<?xml version="1.0" encoding="UTF-8" standalone="no"?>
<svg width="200px" height="48px" viewBox="0 0 200 48" version="1.1" xmlns="http://www.w3.org/2000/svg" xmlns:xlink="http://www.w3.org/1999/xlink">
    <!-- Generator: Sketch 3.7.2 (28276) - http://www.bohemiancoding.com/sketch -->
    <title>Shape</title>
    <desc>Created with Sketch.</desc>
    <defs>
        <path d="M31.5301587,0 L39,0 L39,23.3808554 C39,35.6822811 31.0349206,40 19.4793651,40 C7.96507937,40 0,35.6822811 0,23.3808554 L0,0.936863544 C0,0.285132383 0.33015873,0 0.99047619,0 L8.46031746,0 L8.46031746,23.0142566 C8.46031746,30.3869654 11.7619048,33.4419552 19.4793651,33.4419552 C27.2380952,33.4419552 30.5396825,30.3869654 30.5396825,23.0142566 L30.5396825,0.936863544 C30.5396825,0.285132383 30.8698413,0 31.5301587,0 L31.5301587,0 Z M115.263338,6.34507772 L115.263338,16.1253886 L133.999025,16.1253886 C134.326286,16.1253886 134.449008,16.2870466 134.326286,16.6103627 L132.280905,21.6217617 C132.076367,22.0663212 131.790014,22.2683938 131.176399,22.2683938 L120.172251,22.2683938 C116.572381,22.2683938 115.263338,23.3595855 115.263338,25.7440415 L115.263338,32.6549223 L140.626058,32.6549223 C140.953319,32.6549223 141.076042,32.8165803 140.953319,33.1398964 L138.826123,38.3533679 C138.621585,38.7979275 138.335232,39 137.721617,39 L109.945348,39 C107.818152,39 107,38.2725389 107,36.6963731 L107,2.70777202 C107,0.808290155 108.063598,0 110.845316,0 L140.626058,0 C140.953319,0 141.076042,0.161658031 140.953319,0.444559585 L138.826123,5.6984456 C138.621585,6.14300518 138.335232,6.34507772 137.721617,6.34507772 L115.263338,6.34507772 L115.263338,6.34507772 Z M91,28.2093264 C91,36.0093264 85.439779,39 77.6309392,39 L56.9436464,39 C54.7767956,39 54,38.2725389 54,36.6963731 L54,2.70777202 C54,0.808290155 55.0220994,0 57.8430939,0 L74.6464088,0 C82.0055249,0 89.119337,1.25284974 89.119337,9.9015544 C89.119337,13.6196891 87.7701657,16.7720207 84.5403315,18.4290155 C88.9966851,19.6010363 91,23.561658 91,28.2093264 L91,28.2093264 Z M62,16 L75.345733,16 C79.7527352,16 81,14.3534137 81,10.9799197 C81,7.6064257 79.7527352,6 75.345733,6 L62,6 L62,16 L62,16 Z M83,27.5207547 C83,23.8264151 81.7057654,22 76.9463221,22 L67.0516899,22 C63.3777336,22 62,23.1207547 62,25.5698113 L62,33 L76.9463221,33 C81.7057654,33 83,31.1735849 83,27.5207547 L83,27.5207547 Z M191.542408,39 L184.120992,39 C183.515985,39 183.273983,38.757513 183.03198,38.3533679 L175.166892,24.1274611 L167.947145,24.1274611 C164.397772,24.1274611 163.066757,25.2186528 163.066757,27.6031088 L163.066757,39 L155.968011,39 C155.32267,39 155,38.6766839 155,38.0704663 L155,2.70777202 C155,0.808290155 156.048678,0 158.791376,0 L175.449229,0 C185.169671,0 191.018069,2.54611399 191.018069,12.0031088 C191.018069,19.3181347 187.50903,22.1875648 183.152981,23.319171 L191.905412,38.3129534 C192.066748,38.5554404 192.066748,39 191.542408,39 L191.542408,39 Z M183,12 C183,7.97260274 181.897959,6 176.755102,6 L163,6 L163,18 L176.755102,18 C181.897959,18 183,16.0684932 183,12 L183,12 Z" id="path-1"></path>
        <filter x="-50%" y="-50%" width="200%" height="200%" filterUnits="objectBoundingBox" id="filter-2">
            <feOffset dx="0" dy="2" in="SourceAlpha" result="shadowOffsetOuter1"></feOffset>
            <feGaussianBlur stdDeviation="2" in="shadowOffsetOuter1" result="shadowBlurOuter1"></feGaussianBlur>
            <feColorMatrix values="0 0 0 0 0   0 0 0 0 0   0 0 0 0 0  0 0 0 0.3 0" type="matrix" in="shadowBlurOuter1"></feColorMatrix>
        </filter>
    </defs>
    <g id="Page-1" stroke="none" stroke-width="1" fill="none" fill-rule="evenodd">
        <g id="Desktop-HD" transform="translate(-116.000000, -38.000000)">
            <g id="Group-2" transform="translate(-52.000000, 0.000000)">
                <g id="Logo" transform="translate(172.000000, 40.000000)">
                    <g id="Shape">
                        <use fill="black" fill-opacity="1" filter="url(#filter-2)" xlink:href="#path-1"></use>
                        <use fill="#F5F5F5" fill-rule="evenodd" xlink:href="#path-1"></use>
                    </g>
                </g>
            </g>
        </g>
    </g>
</svg>