<?xml version="1.0" encoding="UTF-8" standalone="no"?>
<svg width="100px" height="121px" viewBox="0 0 100 121" version="1.1" xmlns="http://www.w3.org/2000/svg" xmlns:xlink="http://www.w3.org/1999/xlink">
    <!-- Generator: Sketch 3.7.2 (28276) - http://www.bohemiancoding.com/sketch -->
    <title>apple</title>
    <desc>Created with Sketch.</desc>
    <defs>
        <radialGradient cx="50%" cy="0%" fx="50%" fy="0%" r="100%" id="radialGradient-1">
            <stop stop-color="#18E98A" offset="0%"></stop>
            <stop stop-color="#1C9BE2" offset="100%"></stop>
        </radialGradient>
    </defs>
    <g id="Symbols" stroke="none" stroke-width="1" fill="none" fill-rule="evenodd">
        <g id="Icons" transform="translate(-189.000000, -768.000000)" fill="url(#radialGradient-1)">
            <path d="M289,856.109551 C285.07,867.509551 273.305,887.694551 261.185,887.914551 C253.145,888.069551 250.56,883.149551 241.37,883.149551 C232.185,883.149551 229.31,887.764551 221.71,888.064551 C208.85,888.559551 189,858.929551 189,833.089551 C189,809.354551 205.54,797.589551 219.99,797.374551 C227.74,797.234551 235.06,802.599551 239.785,802.599551 C244.53,802.599551 253.42,796.149551 262.765,797.094551 C266.675,797.259551 277.66,798.669551 284.71,808.979551 C266.005,821.189551 268.92,846.724551 289,856.109551 Z M259.9665,884.823096 C252.7305,884.962596 249.404,879.534596 241.133,879.534596 C232.8665,879.534596 229.279,884.688096 222.439,884.958096 C210.865,885.403596 192,856.736596 192,833.480596 C192,812.119096 206.886,800.530596 219.891,800.337096 C226.866,800.211096 235.454,806.039596 239.7065,806.039596 C243.977,806.039596 252.978,799.234596 261.3885,800.085096 C264.9075,800.233596 273.794,799.502596 280.139,808.781596 C263.3045,819.770596 266.928,848.752096 285,857.198596 C281.463,867.458596 270.8745,884.625096 259.9665,884.823096 Z M262.200468,768 C248.070468,768.57 237.540468,783.395 239.150468,795.655 C252.210468,796.67 264.740468,782.03 263.200468,768 L262.200468,768 Z M241.123721,793.738951 C251.862129,794.573521 262.164753,781.535978 260.898509,770 C249.280307,770.468675 239.79992,783.658331 241.123721,793.738951 Z" id="apple"></path>
        </g>
    </g>
</svg>