<?xml version="1.0" encoding="UTF-8" standalone="no"?>
<svg width="100px" height="100px" viewBox="0 0 100 100" version="1.1" xmlns="http://www.w3.org/2000/svg" xmlns:xlink="http://www.w3.org/1999/xlink">
    <!-- Generator: Sketch 3.8.3 (29802) - http://www.bohemiancoding.com/sketch -->
    <title>Atom</title>
    <desc>Created with Sketch.</desc>
    <defs>
        <linearGradient x1="50%" y1="0%" x2="50%" y2="100%" id="linearGradient-1">
            <stop stop-color="#18E98A" offset="0%"></stop>
            <stop stop-color="#1C9BE2" offset="100%"></stop>
        </linearGradient>
    </defs>
    <g id="Symbols" stroke="none" stroke-width="1" fill="none" fill-rule="evenodd">
        <g id="Icons" transform="translate(-487.000000, -507.000000)" fill="url(#linearGradient-1)">
            <path d="M537,607 C564.614237,607 587,584.614237 587,557 C587,529.385763 564.614237,507 537,507 C509.385763,507 487,529.385763 487,557 C487,584.614237 509.385763,607 537,607 Z M537,604 C562.957383,604 584,582.957383 584,557 C584,531.042617 562.957383,510 537,510 C511.042617,510 490,531.042617 490,557 C490,582.957383 511.042617,604 537,604 Z M566.813928,553.379276 C565.198021,551.828108 562.887899,550.406751 559.947743,549.154582 C554.110924,546.66882 546.292682,545.058364 537.93306,544.619877 C536.92494,544.56704 535.940735,544.530889 534.9889,544.511645 C541.371325,536.893514 547.535285,532.840122 551.125051,532.703748 C551.885229,532.674716 552.523383,532.825105 553.023383,533.150021 C554.703472,534.241901 555.169545,537.628553 554.270324,542.209309 C554.092904,543.113536 554.681892,543.990511 555.586119,544.168041 C556.490457,544.344905 557.367209,543.756473 557.544851,542.852135 C559.09068,534.977385 556.928277,531.708086 554.84207,530.352024 C553.753194,529.644237 552.4592,529.313648 550.998355,529.369154 C545.476553,529.578942 537.739623,535.466707 530.680001,544.54357 C527.885007,544.64001 525.190457,544.881278 522.669879,545.257697 C522.393238,543.973047 522.179445,542.727886 522.034617,541.534337 C521.40147,536.316095 522.177999,532.611979 524.111703,531.625772 C524.422382,531.467374 524.76187,531.376162 525.149634,531.347129 C526.877443,531.217096 529.315374,532.378164 532.009812,534.615872 C532.718488,535.204526 533.770546,535.107196 534.359423,534.398186 C534.948077,533.689287 534.850635,532.637341 534.141736,532.048687 C530.681002,529.174604 527.57177,527.818653 524.899912,528.019432 C524.073772,528.08139 523.298577,528.294627 522.595685,528.653025 C520.799467,529.569043 519.571992,531.323103 518.947298,533.866484 C518.412259,536.04446 518.336397,538.759588 518.721937,541.936228 C518.874328,543.192513 519.097243,544.499966 519.384562,545.846128 C517.413817,546.261479 515.587343,546.767485 513.95019,547.35892 C506.787565,549.946351 505.13395,553.356807 505.008032,555.762257 C504.887676,558.060033 506.063872,561.479721 512.350413,564.721656 C513.169434,565.144126 514.175774,564.822324 514.598132,564.003414 C515.020491,563.184393 514.698911,562.178052 513.87989,561.755806 C510.263538,559.890733 508.244517,557.769932 508.340513,555.936784 C508.475774,553.353915 512.805029,550.62021 520.179445,549.079832 C520.862537,551.546907 521.739957,554.109198 522.792015,556.707307 C520.141514,561.682724 518.207587,566.586284 517.204807,570.94813 C516.488121,574.064927 516.278666,576.770934 516.582226,578.991067 C516.936731,581.584059 517.973883,583.456028 519.66454,584.555027 C520.526609,585.115316 521.688455,585.553581 523.214595,585.553581 C525.427498,585.55347 528.405919,584.631668 532.343294,581.823325 C533.093461,581.288286 533.267988,580.246351 532.732838,579.496073 C532.19791,578.745906 531.155863,578.57149 530.405585,579.106529 C526.524384,581.874827 523.1889,582.865706 521.483116,581.75714 C519.663983,580.574716 519.280335,576.813425 520.456976,571.695739 C521.237176,568.302302 522.629389,564.5409 524.517376,560.664259 C524.927276,561.54179 525.355085,562.419877 525.801247,563.296295 C529.601136,570.760589 534.25286,577.254804 538.899578,581.582836 C541.239623,583.762257 543.477776,585.296851 545.551859,586.144015 C546.810146,586.657808 547.991792,586.91476 549.088789,586.91476 C550.104139,586.914649 551.047298,586.694515 551.910813,586.254137 C553.643294,585.3706 554.848077,583.704081 555.491792,581.300967 C556.04296,579.243014 556.166764,576.675828 555.859979,573.6706 C555.256642,567.761701 553.023828,560.555027 549.572882,553.378053 C549.173661,552.547463 548.176553,552.198186 547.346075,552.597296 C546.515596,552.996629 546.166097,553.993625 546.565429,554.824104 C549.853193,561.661701 551.975218,568.475272 552.540179,574.009532 C553.037065,578.876718 552.235062,582.342791 550.394795,583.281278 C548.462315,584.266706 545.015485,582.718876 541.173994,579.1409 C536.805696,575.072268 532.402359,568.90753 528.774996,561.782391 C527.945741,560.153358 527.181781,558.520989 526.486675,556.900856 C527.349412,555.358253 528.282337,553.810422 529.280224,552.272491 C530.297688,550.704415 531.327721,549.226662 532.360535,547.840455 C532.634506,547.836673 532.909923,547.833892 533.187676,547.833002 C534.620602,547.828442 536.156419,547.868375 537.75831,547.952357 C545.737621,548.370934 553.153639,549.888286 558.64029,552.224771 C563.466208,554.280055 566.279556,556.801746 566.166097,558.970377 C566.069656,560.811645 563.832393,562.714871 560.028055,564.191957 C559.168989,564.52555 558.74296,565.492291 559.076441,566.351245 C559.332949,567.011868 559.963872,567.416317 560.632393,567.416317 C560.83306,567.416317 561.037398,567.379832 561.23573,567.302747 C567.846408,564.736006 569.377887,561.449799 569.498577,559.144793 C569.604028,557.130333 568.700802,555.190622 566.813928,553.379276 Z M527.000222,550.441491 C526.462291,551.270634 525.942492,552.103337 525.440823,552.937264 C524.892102,551.426808 524.410345,549.939266 524,548.488098 C525.458732,548.279088 527.009232,548.114127 528.643493,548 C528.088543,548.795551 527.540156,549.609455 527.000222,550.441491 Z M533,556.648943 C533,558.664182 534.632258,560.297887 536.645717,560.297887 C538.659288,560.297887 540.291546,558.664182 540.291546,556.648943 C540.291546,554.633704 538.659288,553 536.645717,553 C534.632258,553 533,554.633704 533,556.648943 Z" id="Atom"></path>
        </g>
    </g>
</svg>