<?xml version="1.0" encoding="UTF-8" standalone="no"?>
<svg width="100px" height="63px" viewBox="0 0 100 63" version="1.1" xmlns="http://www.w3.org/2000/svg" xmlns:xlink="http://www.w3.org/1999/xlink">
    <!-- Generator: Sketch 3.7.2 (28276) - http://www.bohemiancoding.com/sketch -->
    <title>behance</title>
    <desc>Created with Sketch.</desc>
    <defs>
        <radialGradient cx="50%" cy="0%" fx="50%" fy="0%" r="100%" id="radialGradient-1">
            <stop stop-color="#18E98A" offset="0%"></stop>
            <stop stop-color="#1C9BE2" offset="100%"></stop>
        </radialGradient>
    </defs>
    <g id="iPhone" stroke="none" stroke-width="1" fill="none" fill-rule="evenodd">
        <g id="Contact---iPhone---1.0" transform="translate(-180.000000, -1271.000000)" fill="url(#radialGradient-1)">
            <g id="Social" transform="translate(10.000000, 1130.000000)">
                <g id="Behance" transform="translate(170.000000, 141.000000)">
                    <path d="M91.6656768,8.33324334 L62.4993251,8.33324334 L62.4993251,0 L91.6656768,0 L91.6656768,8.33324334 L91.6656768,8.33324334 Z M98.8572658,49.9994601 C97.015619,55.4035684 90.4031904,62.4993251 77.6033286,62.4993251 C64.7951336,62.4993251 54.4202456,55.2952362 54.4202456,38.8537471 C54.4202456,22.5622563 64.107641,14.1873468 77.1949997,14.1873468 C90.0365277,14.1873468 97.8781097,21.6122666 99.5905912,32.6288143 C99.9155877,34.7371249 100.044753,37.5787609 99.9864202,41.5453847 L66.5409481,41.5453847 C67.0826089,54.9244069 81.0532914,55.3452357 85.6574083,49.9994601 L98.8572658,49.9994601 L98.8572658,49.9994601 Z M66.8326116,33.3329734 L87.5198882,33.3329734 C87.0823929,26.8872096 82.786606,24.0872399 77.1991663,24.0872399 C71.090899,24.0872399 67.7117688,27.2872053 66.8326116,33.3329734 L66.8326116,33.3329734 Z M26.9413757,62.4493256 L-3.55271368e-15,62.4493256 L-3.55271368e-15,0.0874990551 L28.9705205,0.0874990551 C51.7869407,0.42499541 52.2202694,22.7705874 40.3037314,28.8621883 C54.724409,34.1121316 55.2077371,62.4493256 26.9413757,62.4493256 L26.9413757,62.4493256 Z M12.499865,24.99973 L27.4330371,24.99973 C37.8829242,24.99973 39.5412397,12.499865 26.1330511,12.499865 L12.499865,12.499865 L12.499865,24.99973 L12.499865,24.99973 Z M26.6288791,37.499595 L12.499865,37.499595 L12.499865,50.066126 L26.420548,50.066126 C39.1495772,50.066126 38.370419,37.499595 26.6288791,37.499595 L26.6288791,37.499595 Z" id="behance"></path>
                </g>
            </g>
        </g>
    </g>
</svg>