<?xml version="1.0" encoding="UTF-8" standalone="no"?>
<svg width="100px" height="100px" viewBox="0 0 100 100" version="1.1" xmlns="http://www.w3.org/2000/svg" xmlns:xlink="http://www.w3.org/1999/xlink">
    <!-- Generator: Sketch 3.8.3 (29802) - http://www.bohemiancoding.com/sketch -->
    <title>bootstrap</title>
    <desc>Created with Sketch.</desc>
    <defs>
        <radialGradient cx="50%" cy="0%" fx="50%" fy="0%" r="100%" id="radialGradient-1">
            <stop stop-color="#18E98A" offset="0%"></stop>
            <stop stop-color="#1C9BE2" offset="100%"></stop>
        </radialGradient>
    </defs>
    <g id="Symbols" stroke="none" stroke-width="1" fill="none" fill-rule="evenodd">
        <g id="Icons" transform="translate(-189.000000, -481.000000)" fill="url(#radialGradient-1)">
            <path d="M189,568.105947 C189,575.22792 194.772864,581 201.894053,581 L276.105947,581 C283.22792,581 289,575.227136 289,568.105947 L289,493.894053 C289,486.772081 283.227136,481 276.105947,481 L201.894053,481 C194.772081,481 189,486.772864 189,493.894053 L189,568.105947 Z M191,566.621709 C191,573.458803 196.541949,579 203.378291,579 L274.621709,579 C281.458803,579 287,573.458051 287,566.621709 L287,495.378291 C287,488.541197 281.458051,483 274.621709,483 L203.378291,483 C196.541197,483 191,488.541949 191,495.378291 L191,566.621709 Z M214,501 L214,561.546875 L243.340643,561.546875 C246.054241,561.546875 248.697134,561.20768 251.2694,560.52928 C253.841666,559.850881 256.13123,558.80503 258.138163,557.391697 C260.145096,555.978364 261.742138,554.155193 262.929337,551.922127 C264.116537,549.689061 264.710128,547.046168 264.710128,543.993369 C264.710128,540.205637 263.791475,536.969154 261.954143,534.283821 C260.11681,531.598489 257.332586,529.718784 253.601387,528.644652 C256.314986,527.344386 258.364288,525.676678 259.749354,523.641479 C261.134421,521.606279 261.826943,519.062318 261.826943,516.009519 C261.826943,513.182854 261.36055,510.80849 260.427751,508.886358 C259.494951,506.964225 258.180571,505.423715 256.484572,504.264782 C254.788573,503.10585 252.753404,502.271996 250.379005,501.763196 C248.004605,501.254396 245.375846,501 242.492647,501 L214,501 Z M226.467798,550.927893 L226.467798,534.307182 L240.96852,534.307182 C243.851719,534.307182 246.16955,534.971439 247.922083,536.299971 C249.674616,537.628504 250.550869,539.847404 250.550869,542.956736 C250.550869,544.539669 250.282339,545.839915 249.745273,546.857515 C249.208207,547.875114 248.487418,548.680702 247.582885,549.274302 C246.678352,549.867902 245.632501,550.291895 244.445302,550.546295 C243.258102,550.800695 242.014388,550.927893 240.714121,550.927893 L226.467798,550.927893 Z M226.467798,524.233631 L226.467798,510.072107 L238.933331,510.072107 C240.120531,510.072107 241.265313,510.171039 242.367713,510.368905 C243.470113,510.566772 244.445297,510.9201 245.293297,511.4289 C246.141297,511.937699 246.819686,512.644355 247.328486,513.548888 C247.837286,514.453421 248.091682,515.612337 248.091682,517.02567 C248.091682,519.569669 247.328494,521.406974 245.802094,522.53764 C244.275695,523.668306 242.325325,524.233631 239.950926,524.233631 L226.467798,524.233631 Z" id="bootstrap"></path>
        </g>
    </g>
</svg>