<?xml version="1.0" encoding="UTF-8" standalone="no"?>
<svg width="93px" height="93px" viewBox="0 0 93 93" version="1.1" xmlns="http://www.w3.org/2000/svg" xmlns:xlink="http://www.w3.org/1999/xlink">
    <!-- Generator: Sketch 3.7.2 (28276) - http://www.bohemiancoding.com/sketch -->
    <title>codekit</title>
    <desc>Created with Sketch.</desc>
    <defs>
        <radialGradient cx="50%" cy="0%" fx="50%" fy="0%" r="100%" id="radialGradient-1">
            <stop stop-color="#18E98A" offset="0%"></stop>
            <stop stop-color="#1C9BE2" offset="100%"></stop>
        </radialGradient>
    </defs>
    <g id="Symbols" stroke="none" stroke-width="1" fill="none" fill-rule="evenodd">
        <g id="Icons" transform="translate(-193.000000, -912.000000)" fill="url(#radialGradient-1)">
            <path d="M220.278175,958 L233.78735,944.490825 C234.573993,943.704182 234.572158,942.444741 233.794227,941.66681 L228.83319,936.705773 C228.061142,935.933725 226.790904,935.930921 226.009175,936.71265 L206.21265,956.509175 C205.785698,956.936128 205.591015,957.502357 205.626623,958.055285 C205.622039,958.573648 205.816719,959.094894 206.21265,959.490825 L226.009175,979.28735 C226.795818,980.073993 228.055259,980.072158 228.83319,979.294227 L233.794227,974.33319 C234.566275,973.561142 234.569079,972.290904 233.78735,971.509175 L220.278175,958 Z M258.721825,959 L245.21265,972.509175 C244.426007,973.295818 244.427842,974.555259 245.205773,975.33319 L250.16681,980.294227 C250.938858,981.066275 252.209096,981.069079 252.990825,980.28735 L272.78735,960.490825 C273.214302,960.063872 273.408985,959.497643 273.373377,958.944715 C273.377961,958.426352 273.183281,957.905106 272.78735,957.509175 L252.990825,937.71265 C252.204182,936.926007 250.944741,936.927842 250.16681,937.705773 L245.205773,942.66681 C244.433725,943.438858 244.430921,944.709096 245.21265,945.490825 L258.721825,959 Z M193,958 C193,928 196,919 198,917 C200,915 209,912 239,912 C269,912 279,915 281,917 C283,919 286,928 286,958 C286,988 283,998 281,1000 C279,1002 269,1005 239,1005 C209,1005 200,1002 198,1000 C196,998 193,988 193,958 Z M195,958.021505 C195,929.311828 197.870968,920.698925 199.784946,918.784946 C201.698925,916.870968 210.311828,914 239.021505,914 C267.731183,914 277.301075,916.870968 279.215054,918.784946 C281.129032,920.698925 284,929.311828 284,958.021505 C284,986.731183 281.129032,996.301075 279.215054,998.215054 C277.301075,1000.12903 267.731183,1003 239.021505,1003 C210.311828,1003 201.698925,1000.12903 199.784946,998.215054 C197.870968,996.301075 195,986.731183 195,958.021505 Z" id="codekit"></path>
        </g>
    </g>
</svg>