<?xml version="1.0" encoding="UTF-8" standalone="no"?>
<svg width="75px" height="100px" viewBox="0 0 75 100" version="1.1" xmlns="http://www.w3.org/2000/svg" xmlns:xlink="http://www.w3.org/1999/xlink">
    <!-- Generator: Sketch 3.8.3 (29802) - http://www.bohemiancoding.com/sketch -->
    <title>css3</title>
    <desc>Created with Sketch.</desc>
    <defs>
        <radialGradient cx="50%" cy="0%" fx="50%" fy="0%" r="100%" id="radialGradient-1">
            <stop stop-color="#18E98A" offset="0%"></stop>
            <stop stop-color="#1C9BE2" offset="100%"></stop>
        </radialGradient>
    </defs>
    <g id="Symbols" stroke="none" stroke-width="1" fill="none" fill-rule="evenodd">
        <g id="Icons" transform="translate(-452.000000, -346.000000)" fill="url(#radialGradient-1)">
            <path d="M459.857143,437.428571 L452,363.142857 L527,363.142857 L518.428571,437.428571 L489.142857,446 L459.857143,437.428571 Z M524.857143,365.285714 L454.142857,365.285714 L462.294118,435.70588 L489.142858,443.857145 L516.285715,436.000002 L524.857143,365.285714 Z M512,378.142857 L467,378.142857 L467.714286,387.428571 L501.285714,387.428571 L500.571429,396.714286 L468.428571,396.714286 L469.142857,405.285714 L499.857143,405.285714 L499.142857,418.857143 L489.142857,421.714286 L480.571429,418.857143 L479.142857,411 L469.857143,411 L472,426 L489.142857,431 L507,426 L512,378.142857 Z M494.142857,346 L494.142857,348.941176 L486.285714,348.941176 L486.285714,351.714286 L494.142857,351.714286 L494.142857,359.571429 L483.428571,359.571429 L483.428571,356.714286 L491.285714,356.714286 L491.285714,353.857143 L483.428571,353.857143 L483.428571,346 L494.142857,346 Z M507.714286,346 L507.714286,348.941176 L499.857143,348.941176 L499.857143,351.714286 L507.714286,351.714286 L507.714286,359.571429 L497,359.571429 L497,356.714286 L504.857143,356.714286 L504.857143,353.857143 L497,353.857143 L497,346 L507.714286,346 Z M481.285714,346 L481.285714,348.857143 L474.142857,348.857143 L474.142857,356.714286 L481.285714,356.714286 L481.285714,359.571429 L470.571429,359.571429 L470.571429,346 L481.285714,346 Z" id="css3"></path>
        </g>
    </g>
</svg>