<?xml version="1.0" encoding="UTF-8" standalone="no"?>
<svg width="100px" height="100px" viewBox="0 0 100 100" version="1.1" xmlns="http://www.w3.org/2000/svg" xmlns:xlink="http://www.w3.org/1999/xlink">
    <!-- Generator: Sketch 3.7.2 (28276) - http://www.bohemiancoding.com/sketch -->
    <title>dribbble</title>
    <desc>Created with Sketch.</desc>
    <defs>
        <radialGradient cx="50%" cy="0%" fx="50%" fy="0%" r="100%" id="radialGradient-1">
            <stop stop-color="#18E98A" offset="0%"></stop>
            <stop stop-color="#1C9BE2" offset="100%"></stop>
        </radialGradient>
    </defs>
    <g id="iPhone" stroke="none" stroke-width="1" fill="none" fill-rule="evenodd">
        <g id="Contact---iPhone---1.0" transform="translate(-40.000000, -1252.000000)" fill="url(#radialGradient-1)">
            <g id="Social" transform="translate(10.000000, 1130.000000)">
                <g id="Dribbble" transform="translate(30.000000, 122.000000)">
                    <path d="M50,0 C22.3833333,0 0,22.3875 0,50 C0,77.6125 22.3833333,100 50,100 C77.6166667,100 100,77.6125 100,50 C100,22.3875 77.6166667,0 50,0 Z M91.1875,47.6708333 C80.4583333,45.9125 70.5916667,45.8166667 61.5916667,47.3666667 C60.575,45.0208333 59.5208333,42.6791667 58.3958333,40.3666667 C68.0208333,36.2 75.75,30.5416667 81.5125,23.3583333 C87.1375,30 90.6666667,38.4375 91.1875,47.6708333 Z M75.1791667,17.3291667 C70.1583333,23.8041667 63.2291667,28.925 54.4041667,32.6625 C50.1708333,24.9083333 45.3291667,17.3458333 39.8708333,10.0041667 C43.1166667,9.18333333 46.5,8.69583333 50,8.69583333 C59.4791667,8.69583333 68.2,11.9416667 75.1791667,17.3291667 Z M31.3625,13.1916667 C36.9083333,20.45 41.825,27.9333333 46.1,35.6125 C35.975,38.5916667 23.8875,40.1208333 9.91666667,40.2166667 C12.8,28.4041667 20.7541667,18.5791667 31.3625,13.1916667 L31.3625,13.1916667 Z M8.69583333,50 L8.75,48.9333333 C24.7875,48.9125 38.6208333,47.0666667 50.2083333,43.425 C51.1791667,45.4041667 52.1083333,47.3916667 53,49.3916667 C38.9166667,53.7958333 27.3125,62.8166667 18.2625,76.3916667 C12.2958333,69.2291667 8.69583333,60.0291667 8.69583333,50 L8.69583333,50 Z M24.65,82.5416667 C32.8541667,69.675 43.325,61.3 56.3083333,57.4291667 C60.175,67.5125 63.0125,77.8875 64.8208333,88.5125 C50.8666667,93.8916667 35.85,91.2875 24.65,82.5416667 Z M64.925,55.5958333 C72.7416667,54.4916667 81.3416667,54.7791667 90.7541667,56.4125 C88.9333333,68.0208333 82.3041667,78.0458333 72.925,84.3333333 C71.1,74.5291667 68.425,64.9458333 64.925,55.5958333 Z" id="dribbble"></path>
                </g>
            </g>
        </g>
    </g>
</svg>