<?xml version="1.0" encoding="UTF-8" standalone="no"?>
<svg width="75px" height="100px" viewBox="0 0 75 100" version="1.1" xmlns="http://www.w3.org/2000/svg" xmlns:xlink="http://www.w3.org/1999/xlink">
    <!-- Generator: Sketch 3.8.3 (29802) - http://www.bohemiancoding.com/sketch -->
    <title>html5</title>
    <desc>Created with Sketch.</desc>
    <defs>
        <radialGradient cx="50%" cy="0%" fx="50%" fy="0%" r="100%" id="radialGradient-1">
            <stop stop-color="#18E98A" offset="0%"></stop>
            <stop stop-color="#1C9BE2" offset="100%"></stop>
        </radialGradient>
    </defs>
    <g id="Symbols" stroke="none" stroke-width="1" fill="none" fill-rule="evenodd">
        <g id="Icons" transform="translate(-577.000000, -346.000000)" fill="url(#radialGradient-1)">
            <path d="M585.088235,437.176471 L577,363.142857 L652,363.142857 L643.911764,437.176471 L614.500002,446 L585.088235,437.176471 Z M649.731095,365.285714 L579.142857,365.285714 L587.231093,435.873948 L614.436976,443.962182 L641.642859,435.873948 L649.731095,365.285714 Z M604.142857,396.714286 L603.428571,388.857143 L635.571429,388.857143 L637,378.142857 L592,378.142857 L594.142857,405.285714 L624.857143,405.285714 L624.142857,418.857143 L614.142857,421.714286 L605.571429,418.857143 L604.142857,411 L594.857143,411 L597,426 L614.142857,431 L632,426 L634.857143,396.714286 L604.142857,396.714286 Z M639.142857,346 L639.142857,356 L646.285714,356 L646.285714,359.571429 L635.571429,359.571429 L635.571429,346 L639.142857,346 Z M621.285714,346 L624.857143,350.285714 L628.431122,346 L632.000001,346 L632.000001,359.571429 L628.431122,359.571429 L628.431122,352.428571 L624.857143,356.714286 L621.285714,352.428571 L621.285714,359.571429 L617.714286,359.571429 L617.714286,346 L621.285714,346 Z M601.285714,349.571429 L601.285714,346 L614.142857,346 L614.142857,349.571429 L609.857143,349.571429 L609.857143,359.571429 L605.571429,359.571429 L605.571429,349.571429 L601.285714,349.571429 Z M590.571429,346 L590.571429,351 L594.142857,351 L594.142857,346 L597.714286,346 L597.714286,359.571429 L594.142857,359.571429 L594.142857,354.571429 L590.571429,354.571429 L590.571429,359.571429 L587,359.571429 L587,346 L590.571429,346 Z" id="html5"></path>
        </g>
    </g>
</svg>