<?xml version="1.0" encoding="UTF-8" standalone="no"?>
<svg width="98px" height="100px" viewBox="0 0 98 100" version="1.1" xmlns="http://www.w3.org/2000/svg" xmlns:xlink="http://www.w3.org/1999/xlink">
    <!-- Generator: Sketch 3.8.3 (29802) - http://www.bohemiancoding.com/sketch -->
    <title>jade</title>
    <desc>Created with Sketch.</desc>
    <defs>
        <radialGradient cx="50%" cy="0%" fx="50%" fy="0%" r="100%" id="radialGradient-1">
            <stop stop-color="#18E98A" offset="0%"></stop>
            <stop stop-color="#1C9BE2" offset="100%"></stop>
        </radialGradient>
    </defs>
    <g id="Symbols" stroke="none" stroke-width="1" fill="none" fill-rule="evenodd">
        <g id="Icons" transform="translate(-642.000000, -231.000000)" fill="url(#radialGradient-1)">
            <path d="M715.364563,285.61414 C715.812387,286.061964 715.853098,286.794766 715.323852,287.161167 C714.021092,288.016104 712.351931,287.89397 710.804903,287.731125 C708.199383,287.446146 705.105328,287.324012 703.761857,284.881337 C703.721146,284.881337 703.721146,284.840626 703.680434,284.799915 C701.970562,283.863556 704.861061,283.212176 705.675286,283.090042 C707.507292,282.845775 709.461432,283.33431 711.252727,283.741422 C712.759043,284.026401 714.183937,284.433513 715.364563,285.61414 L715.364563,285.61414 L715.364563,285.61414 L715.364563,285.61414 Z M739.139932,324.452671 C737.918595,325.307607 738.447841,326.773212 737.592905,327.790993 C736.737969,328.768063 734.661695,328.768063 733.562491,328.768063 C728.880697,328.808774 724.321037,328.442373 719.720667,328.808774 C718.54004,328.890197 717.481548,329.053042 716.382344,329.338021 C716.056654,329.419443 715.527408,329.622999 715.161006,329.419443 C714.224648,328.930908 713.369712,327.383881 712.148374,327.872416 C711.130593,328.32024 710.35708,329.785844 709.135742,328.890197 C706.896623,327.221036 705.023906,328.727352 702.662653,329.175176 C700.219979,329.66371 697.899438,328.32024 695.497474,328.97162 C693.706179,329.500866 691.996306,330.030112 690.1643,329.419443 C688.332294,328.768063 687.843759,327.343169 689.431498,325.999698 C691.955595,323.923424 695.090361,323.597735 698.225127,323.842002 C702.988343,324.249115 707.710848,323.882713 712.474064,323.638446 C712.636909,323.638446 712.718332,323.719868 712.718332,323.842002 C714.753894,324.656227 716.056654,323.027777 717.23728,321.602883 C717.400125,321.399327 717.685104,321.521461 717.766527,321.643595 C719.476399,324.167692 721.552673,321.317904 723.710369,321.562172 C724.280326,321.602883 724.809573,321.765729 725.175974,322.294974 C725.338819,322.539242 725.37953,322.824221 725.37953,323.1092 C725.460953,324.41196 727.130114,324.126981 727.089403,322.824221 C727.089403,322.620665 727.33367,322.417108 727.537226,322.498531 C729.247099,323.190622 731.445506,324.08627 732.829689,322.294974 C734.010315,320.788659 734.17316,318.630962 734.295294,316.798956 C734.539561,311.872895 734.213871,306.8247 733.84747,301.939351 C733.562491,297.176134 733.033245,292.331496 733.603202,287.56828 C734.17316,282.845775 734.132448,278.245404 734.051026,273.482188 C734.010315,270.998801 733.888181,268.515415 734.051026,266.032029 C734.132448,263.752199 734.539561,261.309524 734.295294,259.029695 C734.051026,256.994132 732.829689,255.243548 732.585421,253.248697 C732.341154,251.416691 732.585421,249.503262 733.033245,247.711967 C733.277512,246.612764 733.84747,245.269293 733.806759,244.129378 C733.766047,243.152308 733.725336,242.134526 733.766047,241.157457 C733.766047,240.668922 733.684625,239.895408 734.051026,239.488295 C734.620984,238.796204 734.905962,237.778423 733.562491,237.656289 C730.346303,237.249177 727.048691,235.213614 723.995348,237.208465 C724.036059,237.900557 724.07677,238.67407 723.913925,239.366162 L724.361749,239.936119 C725.135263,240.261809 725.908776,240.383943 726.763712,240.424654 C727.740782,240.424654 728.799275,240.180387 729.776345,240.261809 C730.59057,240.343232 731.282661,241.076034 730.997683,242.012393 C730.794126,242.704484 730.183457,243.274441 729.817056,243.844399 C729.165676,244.86218 729.28781,246.327785 729.28781,247.508411 C729.247099,250.480332 729.28781,253.452254 729.369232,256.342752 C729.450655,258.785427 729.694922,261.268813 729.857767,263.711488 C729.898479,263.752199 730.061323,263.792911 730.061323,263.915044 C730.142746,266.683409 731.079105,269.411063 731.119816,272.179428 C731.160527,272.220139 730.387014,275.599173 730.387014,275.599173 C730.346303,279.181762 730.061323,285.817696 730.061323,285.817696 C730.020612,291.924383 728.96212,297.990359 730.020612,304.056335 C730.468436,306.49901 729.532078,308.860263 729.450655,311.302937 C729.369232,313.98988 729.694922,316.636111 729.28781,319.323054 C729.328521,319.485899 729.28781,319.648743 729.084253,319.730166 C723.506813,320.788659 717.847949,320.992215 712.148374,320.666525 C710.723481,320.585102 709.054319,320.462968 707.670137,320.992215 C707.140891,321.236482 706.408088,321.562172 705.756708,321.521461 C704.942483,321.440038 704.535371,320.788659 703.761857,320.666525 C702.784787,320.462968 701.848428,320.259412 700.91207,320.17799 C698.387972,319.852299 695.986009,319.689455 693.624756,320.707236 C692.321996,321.277193 690.937814,321.032926 689.635054,320.50368 C688.088027,319.852299 686.9074,319.078786 685.197528,319.933722 C684.505436,320.259412 683.894768,320.625813 683.121254,320.788659 C682.469874,320.951503 681.899917,320.788659 681.329959,320.544391 C680.027199,320.055856 679.009418,319.893011 677.625236,320.137279 C677.788081,320.340835 677.665947,320.707236 677.380968,320.707236 C669.116585,320.259412 660.81149,321.236482 652.547107,321.358616 C652.139994,321.440038 651.855015,321.887862 651.610748,321.887862 L651.36648,321.887862 C651.162924,321.887862 651.122213,321.195771 651.162924,321.073637 C650.06372,319.852299 650.348699,315.821886 650.38941,314.64126 C650.7151,306.946834 649.73803,299.211697 649.534474,291.557982 C649.453052,287.731125 649.453052,283.863556 650.06372,280.07741 C650.796523,275.802729 650.796523,271.650182 650.7151,267.3755 C650.511544,258.86685 651.36648,250.39891 651.122213,241.890259 C651.122213,241.727414 651.285058,241.686703 651.36648,241.727414 L651.447903,241.686703 C653.727733,241.483146 656.211119,240.872478 658.450238,241.483146 C658.490949,241.483146 658.53166,241.523858 658.53166,241.564569 L658.85735,241.60528 L661.381447,241.60528 C661.46287,241.60528 661.585004,241.645991 661.585004,241.686703 C666.063241,241.727414 670.541478,241.361013 675.019716,241.157457 C676.566743,241.116745 678.195193,241.157457 679.742221,240.668922 C680.515734,240.424654 681.452093,240.017542 682.266318,240.098964 C684.30188,240.261809 686.378154,240.872478 688.373005,241.320301 C689.797899,241.60528 690.774969,239.162605 692.037018,240.017542 C693.950446,241.238879 696.148854,240.791055 698.347261,240.831767 C699.527887,240.872478 700.627091,240.62821 701.807717,240.62821 C702.459097,240.62821 702.988343,240.791055 703.558301,240.913189 C704.128258,240.831767 704.616794,240.872478 705.268173,241.116745 L715.690253,240.791055 C717.766527,240.831767 720.046356,240.994612 722.041208,240.221098 C722.570454,240.017542 722.855433,239.732563 723.018278,239.406873 C722.936855,239.244028 722.855433,239.081183 722.77401,238.877627 C722.611165,238.592648 722.44832,238.226247 722.244764,238.02269 C720.005645,237.289888 717.440837,237.493444 715.079584,237.37131 C711.863395,237.208465 708.728629,237.656289 705.512441,237.900557 C702.54052,238.144824 699.446465,238.34838 696.474544,238.104113 C694.72396,237.941268 691.426349,237.167754 689.920033,238.389092 C689.757188,238.470514 689.635054,238.470514 689.472209,238.389092 C686.622422,236.06855 682.876987,239.569718 679.620087,238.592648 C677.665947,238.02269 675.833941,237.615578 673.757667,237.859845 C671.762816,238.063402 669.808676,238.34838 667.773114,238.34838 C663.335587,238.307669 658.938773,238.592648 654.501247,238.429803 C653.524177,238.389092 652.587818,238.389092 651.69217,238.266958 C650.918657,238.185535 649.900875,237.778423 649.127362,238.104113 C647.906024,238.551937 647.661757,238.959049 647.783891,239.32545 C648.109581,239.569718 646.969666,241.116745 646.969666,241.890259 L646.888243,243.925821 C646.847532,246.938454 646.643976,249.706819 645.951884,252.638029 C645.626194,254.185056 644.852681,256.383463 645.422638,257.930491 C645.748328,258.948272 646.521842,259.640363 646.969666,260.536011 C647.743179,262.205172 647.783891,264.240734 647.702468,266.032029 L647.213933,283.537866 C647.010377,289.359575 646.643976,295.221994 646.888243,301.084414 C647.091799,306.49901 647.946736,312.03574 647.213933,317.409625 C646.969666,319.20092 644.811969,322.376397 646.888243,323.638446 C648.068869,324.330537 649.453052,324.493382 650.796523,324.615516 C654.094134,324.819072 657.391745,324.452671 660.730068,324.08627 C661.951405,323.923424 663.172742,323.679157 664.39408,323.679157 C665.330439,323.638446 666.185375,323.760579 667.081022,324.08627 C667.854536,324.371248 669.035162,324.900495 669.93081,324.900495 C669.971521,324.941206 671.396415,324.859783 671.477837,324.452671 C672.699175,323.923424 673.757667,323.516312 675.304694,323.801291 C676.811011,324.08627 678.154482,324.289826 679.742221,324.004847 C680.556446,323.842002 681.777783,323.760579 682.592008,323.964136 L682.917698,324.208404 C683.243388,324.045558 682.714142,324.615516 682.388452,324.737649 C680.556446,325.470452 681.126403,327.831704 680.922847,329.419443 C680.922847,329.582288 680.71929,329.622999 680.637868,329.622999 C679.905066,329.622999 678.887284,329.622999 678.480172,328.849486 C677.625236,327.261747 675.548962,326.162543 675.548962,329.500866 C675.548962,329.704422 675.386117,329.785844 675.263983,329.785844 C675.101138,329.785844 674.979005,329.704422 674.979005,329.500866 C674.979005,329.29731 672.821308,328.157394 672.577041,328.03526 C671.518548,327.465303 670.297211,326.773212 669.035162,327.221036 C668.261649,327.465303 667.610269,327.913127 666.877466,328.238817 C665.574706,329.826556 664.190524,331.536428 662.277095,330.518647 C661.869982,330.315091 660.282244,328.930908 659.956554,329.215887 C659.50873,329.704422 659.020195,330.192957 658.409526,330.437224 C656.658943,331.129315 654.826937,331.007182 652.954219,330.966471 C652.872797,330.966471 652.66924,330.885048 652.66924,330.722203 C652.587818,329.989401 652.180705,328.523796 651.162924,329.419443 C650.918657,329.622999 650.7151,329.826556 650.470833,330.070823 C650.185854,330.315091 649.819453,330.640781 649.453052,330.803626 C648.231714,331.292161 644.486279,330.640781 643.997744,329.785844 C643.590632,329.134464 643.468498,328.483085 643.305653,327.750282 C643.020674,325.958987 643.224231,324.004847 643.142808,322.172841 C642.979963,317.57247 642.654273,313.053521 642.287872,308.45315 C642.084316,306.132609 641.88076,303.730645 642.084316,301.369393 C642.165738,299.863077 642.247161,297.786803 643.020674,296.402621 C643.672054,295.303417 643.224231,294.40777 642.369294,293.593544 C642.165738,293.349277 642.084316,292.901453 642.084316,292.616474 C641.921471,290.906602 642.247161,289.115307 642.328583,287.405435 C642.410006,286.143386 642.613562,284.881337 642.613562,283.619289 C642.613562,282.642219 642.410006,281.70586 642.328583,280.769501 C642.287872,280.280966 642.247161,279.792431 642.532139,279.344607 C643.102097,278.530383 643.020674,278.082559 642.694984,277.1462 C642.043605,275.354905 642.694984,273.197209 642.776407,271.324492 C642.939252,269.126084 643.020674,266.968388 642.776407,264.729269 C642.532139,262.286594 642.043605,259.925342 642.20645,257.441956 C642.369294,255.202837 642.491428,253.167275 642.613562,250.968867 C642.817118,246.979165 642.817118,242.948751 642.694984,238.959049 L642.694984,239.895408 C642.694984,239.895408 642.369294,234.806502 644.486279,233.585164 C647.743179,231.793869 651.69217,232.078848 655.234049,231.916003 C659.83442,231.712447 664.475502,232.160271 669.075873,232.160271 C671.762816,232.160271 674.409047,232.119559 677.014567,231.508891 C678.846573,231.101778 680.67858,230.938933 682.551297,231.020356 C684.831127,231.183201 687.029534,231.753158 689.268653,231.956714 C691.507771,232.160271 693.706179,232.038137 695.945297,231.916003 C700.789936,231.590313 705.675286,231.712447 710.519924,231.916003 L718.092217,232.241693 C719.272843,232.282404 720.616314,232.567383 721.756229,232.282404 L723.913925,231.549602 C725.501664,231.101778 726.600868,231.508891 728.147895,231.875292 L733.84747,233.218763 C734.49885,233.055918 735.109518,233.015207 735.598053,233.503742 C736.656546,234.480812 735.638765,235.702149 736.412278,236.801353 C737.348637,238.104113 738.203573,238.959049 738.40713,240.62821 C738.610686,242.419505 738.692108,244.373645 738.122151,246.124229 C737.715039,247.304855 737.185792,248.566904 737.674327,249.828952 C737.959306,250.602466 738.488552,251.335269 738.692108,252.149494 C739.09922,253.900077 739.09922,255.650661 738.977087,257.441956 C738.895664,259.477518 738.773531,261.553792 738.529263,263.548643 C738.366418,264.851403 737.837172,266.113452 737.796461,267.3755 C737.75575,268.433993 738.08144,269.32964 738.284996,270.347422 C738.977087,273.685744 736.045877,275.802729 735.516631,278.856073 C735.231652,280.525234 737.10437,279.792431 737.959306,280.769501 C738.488552,281.420881 738.203573,282.479373 738.162862,283.171465 C737.959306,284.96276 738.488552,286.713344 738.40713,288.504638 C738.325707,290.743757 737.633616,292.575763 738.162862,294.814882 C738.447841,296.076931 738.692108,297.338979 738.40713,298.601028 C738.122151,299.863077 736.656546,303.038554 738.610686,303.608512 C738.692108,303.608512 738.773531,303.689934 738.773531,303.812068 C738.773531,304.382025 738.692108,304.789138 738.447841,305.318384 C737.592905,307.272524 738.936376,306.865412 739.180643,308.12746 C739.424911,309.308087 738.73282,309.715199 738.529263,310.814402 C738.244284,312.564986 739.180643,313.908457 739.09922,315.61833 C739.05851,317.206068 738.162862,318.101716 738.447841,319.567321 C738.529263,319.567321 738.651397,319.648743 738.651397,319.770877 C738.814242,320.544391 738.895664,321.440038 738.610686,322.213552 C738.203573,323.312756 737.75575,323.638446 739.017798,324.289826 C739.343488,324.045558 739.343488,324.330537 739.139932,324.452671 L739.139932,324.452671 L739.139932,324.452671 L739.139932,324.452671 Z M717.847949,270.428844 C717.074436,265.665628 716.626611,260.698856 715.038873,256.139196 C714.346782,254.225767 714.021092,252.149494 711.781973,251.783092 C708.850763,251.294557 709.827833,253.737232 710.234946,256.057773 C710.804903,259.640363 711.049171,263.304376 711.985529,266.846254 C712.636909,269.288929 713.817535,272.179428 710.560636,270.30671 C705.105328,267.009099 703.232611,259.803208 701.034203,254.429323 C700.057133,251.986649 697.207346,246.16494 695.253206,244.699335 C694.316847,244.007244 689.716477,242.989463 688.820829,243.600131 C686.9074,244.902891 692.810531,254.062922 693.624756,255.691372 C695.416051,259.355385 697.32948,262.978686 699.650021,266.276297 C701.319182,268.596838 703.924702,270.754534 700.219979,272.138717 C696.393121,273.604321 694.520403,271.446626 691.914884,269.451774 C689.83861,267.904747 687.192379,267.660479 684.586859,267.3755 C677.421679,266.520564 670.622901,267.334789 664.882615,272.098005 C662.11425,274.418546 660.363666,277.594024 658.898061,280.850924 C658.490949,281.665149 656.129696,288.87104 656.455386,288.911751 C654.989782,288.667484 655.885429,285.247739 654.012712,287.24259 C652.34355,288.993173 654.501247,294.041368 655.234049,295.791952 C656.90321,299.700232 658.653794,303.527089 659.956554,307.598214 C661.259314,311.669339 661.544293,311.587916 665.289727,311.913606 C670.052943,312.36143 674.734737,310.895825 679.416531,310.325868 C679.416531,310.325868 671.111436,305.155539 687.518069,310.814402 C691.182081,312.076451 695.04965,311.750762 698.876508,311.872895 C701.604161,311.221515 701.685583,306.539721 703.110477,304.341314 C703.639724,303.527089 706.285955,299.374542 707.100179,299.048852 C708.280806,298.601028 709.949967,299.822365 711.130593,299.98521 C717.970083,301.043703 720.087068,295.425551 718.987864,289.929532 C718.051505,285.125605 718.580751,279.75172 719.272843,276.046996 C719.557821,274.662814 718.092217,271.690893 717.847949,270.428844 L717.847949,270.428844 L717.847949,270.428844 L717.847949,270.428844 Z M687.273802,328.890197 C686.540999,328.198106 685.441795,328.03526 684.708993,327.302458 C684.30188,326.854635 684.179747,326.447522 684.261169,325.958987 C684.261169,325.958987 684.220458,325.958987 684.220458,325.918276 C683.691212,324.941206 684.912549,324.126981 685.767485,324.452671 C686.215309,324.656227 686.866689,324.941206 686.948111,325.470452 C686.988823,326.162543 686.540999,326.651079 686.418866,327.261747 C686.9074,327.546726 687.395936,328.238817 687.640203,328.564507 C687.803047,328.849486 687.477358,329.093753 687.273802,328.890197 L687.273802,328.890197 L687.273802,328.890197 L687.273802,328.890197 Z" id="jade"></path>
        </g>
    </g>
</svg>