<?xml version="1.0" encoding="UTF-8" standalone="no"?>
<svg width="100px" height="100px" viewBox="0 0 100 100" version="1.1" xmlns="http://www.w3.org/2000/svg" xmlns:xlink="http://www.w3.org/1999/xlink">
    <!-- Generator: Sketch 3.7.2 (28276) - http://www.bohemiancoding.com/sketch -->
    <title>linkedin</title>
    <desc>Created with Sketch.</desc>
    <defs>
        <radialGradient cx="50%" cy="0%" fx="50%" fy="0%" r="100%" id="radialGradient-1">
            <stop stop-color="#18E98A" offset="0%"></stop>
            <stop stop-color="#1C9BE2" offset="100%"></stop>
        </radialGradient>
    </defs>
    <g id="iPhone" stroke="none" stroke-width="1" fill="none" fill-rule="evenodd">
        <g id="Contact---iPhone---1.0" transform="translate(-40.000000, -1441.000000)" fill="url(#radialGradient-1)">
            <g id="Social" transform="translate(10.000000, 1130.000000)">
                <g id="LinkedIn" transform="translate(30.000000, 311.000000)">
                    <path d="M79.1666667,0 L20.8333333,0 C9.32916667,0 0,9.32916667 0,20.8333333 L0,79.1666667 C0,90.6708333 9.32916667,100 20.8333333,100 L79.1666667,100 C90.675,100 100,90.6708333 100,79.1666667 L100,20.8333333 C100,9.32916667 90.675,0 79.1666667,0 L79.1666667,0 Z M78,2 L22,2 C10.956,2 2,10.956 2,22 L2,78 C2,89.044 10.956,98 22,98 L78,98 C89.048,98 98,89.044 98,78 L98,22 C98,10.956 89.048,2 78,2 Z M33.3333333,79.1666667 L20.8333333,79.1666667 L20.8333333,33.3333333 L33.3333333,33.3333333 L33.3333333,79.1666667 Z M27.0833333,28.05 C23.0583333,28.05 19.7916667,24.7583333 19.7916667,20.7 C19.7916667,16.6416667 23.0583333,13.35 27.0833333,13.35 C31.1083333,13.35 34.375,16.6416667 34.375,20.7 C34.375,24.7583333 31.1125,28.05 27.0833333,28.05 Z M83.3333333,79.1666667 L70.8333333,79.1666667 L70.8333333,55.8166667 C70.8333333,41.7833333 54.1666667,42.8458333 54.1666667,55.8166667 L54.1666667,79.1666667 L41.6666667,79.1666667 L41.6666667,33.3333333 L54.1666667,33.3333333 L54.1666667,40.6875 C59.9833333,29.9125 83.3333333,29.1166667 83.3333333,51.0041667 L83.3333333,79.1666667 Z" id="linkedin"></path>
                </g>
            </g>
        </g>
    </g>
</svg>