<?xml version="1.0" encoding="UTF-8" standalone="no"?>
<svg width="100px" height="97px" viewBox="0 0 100 97" version="1.1" xmlns="http://www.w3.org/2000/svg" xmlns:xlink="http://www.w3.org/1999/xlink">
    <!-- Generator: Sketch 3.7.2 (28276) - http://www.bohemiancoding.com/sketch -->
    <title>nnc</title>
    <desc>Created with Sketch.</desc>
    <defs>
        <radialGradient cx="50%" cy="0%" fx="50%" fy="0%" r="100%" id="radialGradient-1">
            <stop stop-color="#18E98A" offset="0%"></stop>
            <stop stop-color="#1C9BE2" offset="100%"></stop>
        </radialGradient>
    </defs>
    <g id="Symbols" stroke="none" stroke-width="1" fill="none" fill-rule="evenodd">
        <g id="Icons" transform="translate(-20.000000, -780.000000)" fill="url(#radialGradient-1)">
            <path d="M57,821.972222 L46,807 L46,855 L43,855 L43,803 L46,803 L57,817.666667 L57,806 L60,806 L60,821.666667 L71,836.333333 L82,821.666667 L82,806 L85,806 L85,817.666667 L96,803 L99,803 L99,855 L96,855 L96,807 L85,821.972222 L85,856 L82,856 L71,841.027778 L60,856 L57,856 L57,821.972222 Z M60,826.055556 L69.257732,838.656357 L60,851 L60,826.055556 Z M82,826.055556 L82,851 L72.742268,838.656357 L82,826.055556 Z M117.433517,816.976969 C117.367607,816.740312 117.287032,816.452054 117.192635,816.113318 C117.092105,815.751341 116.945255,815.341329 116.796347,814.871616 C116.17704,813.003402 115.152181,810.281539 113.363911,807.051536 C111.558485,803.841433 108.952935,800.132453 105.255278,796.537041 C102.653976,793.999947 99.4888756,791.54105 95.7988862,789.422919 C95.8378674,789.434411 95.8768799,789.445564 95.9159225,789.456355 C97.4554408,789.882836 98.3711917,789.363373 99.3799244,788.313811 L99.6180403,788.080155 C98.2795823,787.032651 96.8062835,786.57632 95.095212,787.352427 C94.8594503,787.45863 94.1202546,787.990057 93.5913627,788.230067 C92.7273841,787.791456 91.8379152,787.372146 90.9233816,786.97501 C88.0042326,785.725073 84.8435366,784.686833 81.486927,783.982436 C80.6439146,783.829067 79.800216,783.634183 78.9349017,783.526447 C78.503617,783.464345 78.0706168,783.4019 77.635901,783.339111 C77.1991266,783.293821 76.7606366,783.247845 76.3204312,783.201869 L75.658579,783.133247 L74.9891784,783.090359 C74.6133219,783.066724 74.2364968,783.043089 73.8582963,783.019454 C73.9864263,782.990932 74.0898892,782.96642 74.1454798,782.945911 C75.4345305,782.471052 75.9292899,781.493885 76.0346236,780.284435 L75.7865576,780.287523 C74.7030277,780.268995 73.9550558,780.470399 73.4102029,781.465407 C73.1503974,781.939539 72.9650594,782.472409 72.7800174,782.985294 C72.6212403,782.981464 72.4622495,782.977605 72.3029986,782.973703 L71.6305101,782.958949 C71.3845028,782.952087 71.1707476,782.966155 70.9388077,782.968899 C67.2957042,783.006984 63.5541291,783.441014 59.8269646,784.31868 C56.0984276,785.189141 52.4042013,786.565684 48.865059,788.379344 C48.4331494,788.581976 48.0255237,788.833807 47.6055961,789.06227 C47.6718293,788.904184 47.7302479,788.732712 47.7808429,788.546437 C48.0477796,787.564809 48.0989025,786.481279 48.2351157,785.495535 C48.1819342,785.877755 46.5617859,786.494661 46.246128,786.699838 C44.6267594,787.755596 44.2489633,789.249167 44.4873886,790.93978 C44.2255344,791.110905 43.9662842,791.286653 43.7116013,791.470046 C42.0324386,792.59372 40.4503752,793.878996 38.9094844,795.222944 C38.159797,795.918763 37.392268,796.600516 36.6851258,797.348831 C35.9491626,798.068325 35.2708413,798.846147 34.5822268,799.617793 C33.2492585,801.196769 31.9571199,802.831328 30.8423673,804.596267 L30.4121119,805.250227 C30.2710952,805.469816 30.144489,805.698324 30.0099913,805.922373 L29.2129551,807.273526 L28.4824817,808.664479 C28.3623944,808.897791 28.235102,809.126986 28.1208476,809.363044 L27.7904361,810.077391 C26.8733128,811.966878 26.151417,813.951062 25.509808,815.957205 L25.074406,817.478196 C24.9220668,817.983248 24.8273695,818.503741 24.7011063,819.015998 C24.4400024,820.039485 24.2852614,821.085616 24.0955236,822.124199 C24.0094039,822.645034 23.9599965,823.171703 23.8903459,823.69494 C23.8241264,824.218863 23.755162,824.742101 23.7287428,825.272543 L23.6168902,826.858038 C23.5928727,827.384363 23.5942451,827.9076 23.5812071,828.432553 C23.5455224,830.117254 23.6185296,831.800374 23.7875933,833.472189 C23.4426076,832.846421 23.0126303,832.304342 22.5240964,831.942874 C22.1734416,831.683829 20.9708538,831.196275 20.9711969,830.677498 C20.9701676,831.765488 20.8627753,832.949205 21.0041351,834.051949 C21.2285267,835.812771 22.6812391,836.57481 24.2900649,837.121379 L24.309616,837.128618 C24.5448946,838.409121 24.8324441,839.678517 25.1663586,840.932261 C26.2920906,844.976113 27.9304235,848.863851 30.0954247,852.401621 C31.0925905,854.079333 32.1999252,855.680155 33.3957263,857.20094 C33.3251572,857.139313 33.2534113,857.079579 33.1802942,857.022235 C32.2851296,856.316465 31.5151989,856.418367 30.5232784,856.851368 L30.2937402,856.945379 C30.8691296,858.015185 31.7131713,858.723013 33.0907434,858.665371 C33.2925535,858.657257 34.020936,858.480208 34.4392519,858.481707 C35.4846434,859.720675 36.5880966,860.902531 37.7367468,862.025412 C40.6878048,864.817268 43.8896735,867.29484 47.3382356,869.241282 C47.7691772,869.484544 48.1987464,869.727807 48.6276294,869.97004 C49.0674918,870.192373 49.5063248,870.413676 49.9444717,870.63498 C50.8115015,871.096801 51.7207334,871.458779 52.6049185,871.864673 C53.0495844,872.061273 53.5079745,872.222533 53.9571007,872.403007 C54.4106874,872.571816 54.8529515,872.769445 55.3130571,872.91355 C56.2291511,873.211709 57.1291192,873.548639 58.0531046,873.787785 C58.512181,873.917479 58.970228,874.04683 59.4269026,874.176181 C59.8890668,874.283916 60.3498587,874.391309 60.8096213,874.498358 C61.4478909,874.659001 62.0911572,874.782169 62.733502,874.897454 C62.1946633,875.201943 61.6838707,875.589782 61.1818917,875.916417 C61.4124592,875.767851 62.4918718,876.292461 62.7485154,876.35525 C64.0257266,876.668485 64.9865674,876.204119 65.7758114,875.351214 C65.9600296,875.374238 66.1440261,875.397261 66.3278011,875.420285 C67.2459537,875.512923 68.1671944,875.569193 69.0760832,875.638157 C69.9835995,875.656685 70.859207,875.69923 71.7749579,875.698201 C72.6714949,875.681046 73.5628852,875.680702 74.4446686,875.615169 C76.2113233,875.533853 77.9426381,875.318725 79.6331232,875.048014 C83.0065451,874.462332 86.2163052,873.593929 89.1738822,872.436975 C92.1335178,871.287912 94.8625859,869.915486 97.3206,868.391408 C99.7793003,866.865957 101.955281,865.178903 103.873932,863.462684 C105.791553,861.743035 107.44361,859.980155 108.856179,858.260162 C108.923644,858.17785 108.990599,858.095654 109.057042,858.013579 C108.757539,859.059896 109.107688,859.975814 109.795262,861.044471 L109.992548,861.370079 C111.608922,860.256698 112.583344,858.821484 112.212789,856.754269 C112.150174,856.409287 111.592904,855.081476 111.626571,854.522507 C111.901827,854.105296 112.1617,853.693307 112.405958,853.287179 C113.367342,851.71335 114.144478,850.259265 114.748345,848.96198 C114.899998,848.637744 115.046162,848.32586 115.186492,848.026329 C115.32099,847.724052 115.439018,847.43001 115.55739,847.150721 C115.795163,846.593173 116.006859,846.085033 116.168462,845.617722 C116.336242,845.153499 116.493727,844.746575 116.612442,844.390773 C116.72704,844.033943 116.823796,843.733382 116.900995,843.491492 C116.926881,843.410682 116.950684,843.336411 116.972377,843.268748 L116.99878,843.305185 C118.551679,842.047357 119.421797,840.506123 118.860818,838.419693 C118.753083,838.017573 117.862036,836.334293 118.111474,835.976433 C117.466434,836.902134 116.677975,837.84499 116.145817,838.860585 C115.296286,840.482449 115.723797,841.621905 116.768556,842.987468 L116.886419,843.150123 C116.855222,843.237067 116.819339,843.33709 116.778849,843.449976 C116.693072,843.689121 116.586023,843.986251 116.459417,844.339308 C116.32835,844.690305 116.158169,845.088652 115.975637,845.543611 C115.223891,847.350752 114.040174,849.993014 112.040893,853.056611 C110.056366,856.118836 107.269312,859.626412 103.428923,862.957975 C101.513017,864.624786 99.3294878,866.227779 96.9088723,867.722693 C94.4807085,869.205942 91.7880097,870.536165 88.8719486,871.646115 C86.6593143,872.494743 84.3056018,873.177757 81.8491271,873.699516 C81.4909857,873.345423 81.123345,872.984089 80.7211135,872.692589 C79.7892366,872.013582 79.0241094,872.137443 78.0496873,872.597205 L77.8259819,872.694991 C78.2297067,873.371914 78.7372112,873.895728 79.415115,874.157899 C76.1125689,874.673341 72.6663744,874.916528 69.0976989,874.758776 C61.9929951,874.402288 54.4552912,872.578678 47.610319,868.758188 C44.1713638,866.89169 40.9372431,864.512933 38.001625,861.749211 C37.6389615,861.399586 37.2876206,861.036579 36.9290744,860.680092 L36.3931423,860.142444 C36.2185011,859.958882 36.0517514,859.768458 35.8805413,859.581465 L34.8577412,858.452302 L33.8874364,857.272016 L33.4033133,856.679128 L32.9459525,856.064282 C32.6433327,855.652554 32.3300766,855.247002 32.034662,854.828756 C31.4681934,853.974764 30.8732469,853.135526 30.3681943,852.237616 C28.6645823,849.420568 27.2976686,846.385192 26.2585174,843.230307 C27.2437412,842.543153 27.8357322,841.651362 27.6209416,840.372655 C27.577024,840.120472 27.1282408,839.039686 27.3039113,838.831421 C26.8516971,839.36701 26.3078735,839.907746 25.9229081,840.504064 C25.7806763,840.722756 25.6812601,840.929317 25.6192722,841.128558 C25.5917399,841.03005 25.5645158,840.93145 25.5375997,840.83276 C25.1940446,839.468061 24.906516,838.085956 24.6821933,836.693013 C24.6754673,836.21372 24.5992176,835.696098 24.4641641,835.179451 C24.1809023,832.948157 24.064801,830.695358 24.1449309,828.44765 C24.2761592,822.901658 25.5189929,817.422078 27.6680079,812.375458 C28.7219517,812.432755 29.6497487,812.128821 30.3273647,811.16744 C30.4755866,810.956087 30.9205956,809.874272 31.1978255,809.840648 C30.4858798,809.930542 29.7063421,809.962794 28.9998861,810.139493 C28.8695647,810.172044 28.7492994,810.209534 28.6381506,810.251951 C29.5124446,808.462769 30.5028961,806.737829 31.5996031,805.0948 C32.7143557,803.379268 33.9848786,801.781079 35.302064,800.243276 C35.9817577,799.491873 36.6501289,798.733608 37.376142,798.033671 C38.072648,797.30457 38.8291975,796.642032 39.5672193,795.965083 C41.0847788,794.658877 42.6404231,793.409283 44.2911079,792.320607 C45.0967217,791.747276 45.949341,791.25286 46.7830895,790.736485 C47.1982482,790.475038 47.6377675,790.257508 48.0625332,790.016991 C48.494161,789.788482 48.9096628,789.531495 49.351927,789.328033 C50.2271913,788.90361 51.0880452,788.458258 51.9818373,788.094566 C52.4261601,787.90723 52.8629345,787.70514 53.3100021,787.530499 C53.7584421,787.359632 54.2058528,787.189108 54.6522342,787.018927 L55.3216348,786.766058 L55.9999561,786.544068 C56.4518272,786.396189 56.902669,786.248653 57.3521383,786.101461 C57.719368,785.990373 58.0899866,785.892841 58.4586775,785.791998 C58.7863309,786.058196 59.1880711,786.518296 59.3291172,786.628129 C60.411961,787.46325 61.5356343,787.383992 62.6671992,786.8635 L62.5388774,786.658665 C62.0363197,785.80512 61.5127236,785.293298 60.4915806,785.268909 C63.9985309,784.466194 67.51721,784.063028 70.9501302,784.018462 C71.169032,784.015374 71.4054323,784.001307 71.6085513,784.007139 L72.2813829,784.020177 C72.7284505,784.029784 73.1741457,784.039391 73.6184685,784.048998 C74.0548998,784.075761 74.4903018,784.10218 74.9239882,784.128599 L75.5731455,784.168399 L76.2212734,784.234276 C76.6525581,784.278193 77.0821273,784.321768 77.509981,784.365342 C77.935776,784.425729 78.3598555,784.486116 78.7825625,784.545816 C79.629349,784.652522 80.4586372,784.82682 81.2858666,784.969896 C84.5814034,785.62317 87.6916627,786.606513 90.5713545,787.801553 C96.3266208,790.22457 101.089624,793.556819 104.795172,797.018762 C108.512044,800.492714 111.13372,804.125525 113.010855,807.254655 C114.86706,810.407803 115.958481,813.087463 116.623765,814.930974 C116.784338,815.394854 116.941481,815.799719 117.051275,816.157579 C117.161069,816.515439 117.254051,816.816686 117.328505,817.059263 C117.339358,817.094459 117.349829,817.12842 117.359918,817.16114 C117.115077,817.762274 116.822211,818.386209 116.66631,819.015655 C116.385649,820.136584 116.819335,820.775105 117.665092,821.460974 L117.85483,821.622577 C118.621673,820.621393 118.926008,819.545755 118.26896,818.345569 C118.173295,818.1694 117.686763,817.602761 117.503941,817.229195 C117.486416,817.166467 117.46739,817.098367 117.446877,817.024952 C117.443127,817.01148 117.439327,816.997831 117.435477,816.984003 C117.436753,816.972926 117.439155,816.962651 117.44276,816.953243 C117.439691,816.961147 117.43661,816.969056 117.433517,816.976969 Z" id="nnc"></path>
        </g>
    </g>
</svg>