<?xml version="1.0" encoding="UTF-8" standalone="no"?>
<svg width="87px" height="86px" viewBox="0 0 87 86" version="1.1" xmlns="http://www.w3.org/2000/svg" xmlns:xlink="http://www.w3.org/1999/xlink">
    <!-- Generator: Sketch 3.7.2 (28276) - http://www.bohemiancoding.com/sketch -->
    <title>Combined Shape</title>
    <desc>Created with Sketch.</desc>
    <defs>
        <radialGradient cx="50%" cy="0%" fx="50%" fy="0%" r="100%" id="radialGradient-1">
            <stop stop-color="#18E98A" offset="0%"></stop>
            <stop stop-color="#1C9BE2" offset="100%"></stop>
        </radialGradient>
    </defs>
    <g id="Desktop" stroke="none" stroke-width="1" fill="none" fill-rule="evenodd">
        <g id="Main-Page---Large---1.0" transform="translate(-92.000000, -2652.000000)" fill="url(#radialGradient-1)">
            <g id="Tools" transform="translate(73.000000, 2325.000000)">
                <g id="Group-4" transform="translate(0.000000, 327.000000)">
                    <g id="adobe-photoshop-cs6">
                        <path d="M19,0 L106,0 L106,85.55 L19,85.55 L19,0 Z M23.35,4.35 L101.728297,4.35 L101.728297,81.4537104 L23.35,81.4537104 L23.35,4.35 Z M40.02442,24.11176 C40.02442,24.11176 45.52514,23.96705 50.0532,23.96705 C54.62882,23.96705 57.89132,25.04353 60.08169,26.9352 C62.1752,28.72276 63.58692,31.77008 63.58692,35.23906 C63.58692,38.70804 62.51566,41.54656 60.56802,43.54234 C58.03661,46.11783 55.08673,47.64236 50.0532,47.85319 C48.66265,47.91148 47.37563,47.9254 47.37563,47.9254 L47.37563,59.20176 L40.02413,59.20176 L40.02442,24.11176 Z M47.37534,41.67793 C48.174,41.75565 48.67454,41.71824 49.85832,41.70403 C53.80174,41.65676 56.23513,39.25875 56.23513,35.6323 C56.23513,32.37444 54.22862,29.69948 50.44296,29.56086 C48.93409,29.50576 47.37534,29.56086 47.37534,29.56086 L47.37534,41.67793 L47.37534,41.67793 Z M66.39238,51.34595 C67.87399,52.2551 71.37023,53.61665 73.75345,53.61665 C76.18829,53.61665 77.19372,52.75854 77.19372,51.42077 C77.19372,50.08126 76.3997,48.67418 73.38167,47.65686 C68.03436,45.83595 65.96927,43.65631 66.02292,40.60551 C66.02292,35.67812 70.15194,31.98352 76.55804,31.98352 C79.57578,31.98352 81.98655,32.9701 83.57343,33.77282 L83.57343,39.6865 C82.40763,39.04328 79.04624,37.6072 76.8231,37.6072 C74.86299,37.6072 73.752,38.4105 73.752,39.74798 C73.752,40.9799 74.75859,41.62254 77.93496,42.74774 C82.85771,44.46106 84.9228,46.9771 84.975,50.83265 C84.975,55.7061 81.21834,59.58137 73.752,59.34618 C71.18956,59.26556 68.35075,58.25259 66.3918,57.18307 L66.39238,51.34595 Z" id="Combined-Shape"></path>
                    </g>
                </g>
            </g>
        </g>
    </g>
</svg>