<?xml version="1.0" encoding="UTF-8" standalone="no"?>
<svg width="100px" height="79px" viewBox="0 0 100 79" version="1.1" xmlns="http://www.w3.org/2000/svg" xmlns:xlink="http://www.w3.org/1999/xlink">
    <!-- Generator: Sketch 3.7.2 (28276) - http://www.bohemiancoding.com/sketch -->
    <title>sasse</title>
    <desc>Created with Sketch.</desc>
    <defs>
        <radialGradient cx="50%" cy="0%" fx="50%" fy="0%" r="100%" id="radialGradient-1">
            <stop stop-color="#18E98A" offset="0%"></stop>
            <stop stop-color="#1C9BE2" offset="100%"></stop>
        </radialGradient>
    </defs>
    <g id="Symbols" stroke="none" stroke-width="1" fill="none" fill-rule="evenodd">
        <g id="Icons" transform="translate(-20.000000, -909.000000)" fill="url(#radialGradient-1)">
            <path d="M32.3147811,982.74307 L30.1644425,982.74307 L30.1644425,984.031776 L32.252166,984.031776 L32.252166,984.792725 L30.1644425,984.792725 L30.1644425,986.585264 L32.3147811,986.585264 L32.3147811,987.346005 L29.3550232,987.346005 L29.3550232,981.982536 L32.3147811,981.982536 L32.3147811,982.74307 Z M44.3181511,981.982536 L44.3181511,985.210437 C44.3181511,985.671209 44.3932476,986.007999 44.5438565,986.221015 C44.7685219,986.528473 45.0845095,986.682619 45.4922355,986.682619 C45.9022498,986.682619 46.2194856,986.528473 46.4441509,986.221015 C46.5945519,986.014863 46.6698564,985.678281 46.6698564,985.210437 L46.6698564,981.982536 L47.4792757,981.982536 L47.4792757,985.435518 C47.4792757,986.000302 47.3032878,986.466066 46.9513121,986.831563 C46.5552354,987.239497 46.0688766,987.443152 45.4922355,987.443152 C44.9155945,987.443152 44.4304838,987.239497 44.0366953,986.831563 C43.6845116,986.466066 43.5087318,986.000302 43.5087318,985.435518 L43.5087318,981.982536 L44.3181511,981.982536 Z M48.7646527,987.346005 L48.7646527,981.982536 L49.8902676,981.982536 C50.4296725,981.982536 50.8559125,982.03579 51.1685718,982.14209 C51.5043217,982.246518 51.808868,982.423754 52.0822109,982.67359 C52.6355533,983.178671 52.9122245,983.842058 52.9122245,984.664167 C52.9122245,985.488772 52.624112,986.155487 52.047471,986.665145 C51.7579023,986.919765 51.4546041,987.097001 51.1371603,987.196437 C50.8407268,987.296288 50.4205194,987.346005 49.8763301,987.346005 L48.7646527,987.346005 Z M49.574072,986.585264 L49.9387371,986.585264 C50.3021541,986.585264 50.6046202,986.546987 50.8455114,986.470643 C51.0864025,986.389514 51.3039951,986.260955 51.498497,986.084967 C51.896862,985.72155 52.0961484,985.247881 52.0961484,984.664167 C52.0961484,984.075877 51.8991502,983.598879 51.5053618,983.233174 C51.1510978,982.906369 50.6289589,982.74307 49.9387371,982.74307 L49.574072,982.74307 L49.574072,986.585264 Z M66.1504218,982.74307 L66.1504218,987.346005 L65.3410025,987.346005 L65.3410025,982.74307 L64.1078394,982.74307 L64.1078394,981.982536 L67.3802565,981.982536 L67.3802565,982.74307 L66.1504218,982.74307 Z M104.409057,982.74307 L104.409057,987.346005 L103.599638,987.346005 L103.599638,982.74307 L102.366475,982.74307 L102.366475,981.982536 L105.638892,981.982536 L105.638892,982.74307 L104.409057,982.74307 Z M106.645934,987.346005 L107.646527,987.346005 L107.646527,981.982536 L106.645934,981.982536 L106.645934,987.346005 Z M108.654608,984.639828 C108.654608,983.884703 108.931071,983.236294 109.48483,982.694601 C110.035884,982.152492 110.698439,981.881853 111.472078,981.881853 C112.236356,981.881853 112.891422,982.154988 113.438108,982.701674 C113.986874,983.248151 114.261465,983.904673 114.261465,984.671032 C114.261465,985.442175 113.985834,986.096616 113.434363,986.633733 C112.881021,987.173554 112.213058,987.443152 111.430265,987.443152 C110.737755,987.443152 110.115765,987.203717 109.564711,986.724223 C108.957906,986.193763 108.654608,985.498965 108.654608,984.639828 Z M109.4711,984.648565 C109.4711,985.241016 109.670179,985.727999 110.068544,986.10993 C110.464412,986.491653 110.921648,986.682619 111.44025,986.682619 C112.00337,986.682619 112.47808,986.487909 112.864795,986.099321 C113.251511,985.705948 113.444973,985.227286 113.444973,984.662503 C113.444973,984.090854 113.253799,983.611984 112.871868,983.225477 C112.491809,982.836681 112.021884,982.642387 111.461469,982.642387 C110.903134,982.642387 110.431961,982.836681 110.047533,983.225477 C109.663106,983.609696 109.4711,984.083989 109.4711,984.648565 Z M115.279115,987.346005 L115.279115,981.617663 L119.190581,985.709901 L119.190581,981.982536 L120,981.982536 L120,987.672394 L116.088327,983.590766 L116.088327,987.346005 L115.279115,987.346005 Z M100.987903,986.043154 L98.6919485,986.043154 L98.094297,987.346005 L97.2224707,987.346005 L99.8764341,981.645538 L102.436579,987.346005 L101.550815,987.346005 L100.987903,986.043154 Z M100.657978,985.282413 L99.8624965,983.458671 L99.0287384,985.282413 L100.657978,985.282413 Z M95.5611953,987.346005 L96.5617882,987.346005 L96.5617882,981.982536 L95.5611953,981.982536 L95.5611953,987.346005 Z M94.18408,982.268985 L94.18408,983.225893 C93.7164432,982.834601 93.2323726,982.639058 92.7320762,982.639058 C92.181022,982.639058 91.7167136,982.836889 91.3391511,983.233174 C90.9593002,983.626754 90.7693748,984.108328 90.7693748,984.678104 C90.7693748,985.241016 90.9593002,985.715518 91.3391511,986.102441 C91.7187939,986.489157 92.1843504,986.682619 92.7356126,986.682619 C93.0206047,986.682619 93.262536,986.636229 93.4618225,986.543659 C93.572907,986.49727 93.687944,986.434655 93.8071414,986.355814 C93.9265469,986.277181 94.0521931,986.182114 94.18408,986.07103 L94.18408,987.048948 C93.7210197,987.31189 93.2346609,987.443152 92.7252114,987.443152 C91.958853,987.443152 91.3044111,987.175842 90.762718,986.640598 C90.2226891,986.101193 89.9528827,985.450704 89.9528827,984.688506 C89.9528827,984.005565 90.1787962,983.396472 90.6304151,982.861436 C91.1862538,982.205954 91.9053909,981.878109 92.7876184,981.878109 C93.2696088,981.878109 93.7347493,982.008539 94.18408,982.268985 Z M83.5958936,984.639828 C83.5958936,983.884703 83.8727728,983.236294 84.4261153,982.694601 C84.9771694,982.152492 85.6397242,981.881853 86.4133634,981.881853 C87.1776416,981.881853 87.8327075,982.154988 88.3793932,982.701674 C88.9283671,983.248151 89.2027501,983.904673 89.2027501,984.671032 C89.2027501,985.442175 88.927119,986.096616 88.3756488,986.633733 C87.8223064,987.173554 87.154343,987.443152 86.3715507,987.443152 C85.6790406,987.443152 85.0570504,987.203717 84.5062043,986.724223 C83.8991918,986.193763 83.5958936,985.498965 83.5958936,984.639828 Z M84.4123857,984.648565 C84.4123857,985.241016 84.6114642,985.727999 85.0098291,986.10993 C85.4056978,986.491653 85.8631414,986.682619 86.3819519,986.682619 C86.9446554,986.682619 87.4193649,986.487909 87.8060805,986.099321 C88.1927961,985.705948 88.386258,985.227286 88.386258,984.662503 C88.386258,984.090854 88.1952924,983.611984 87.8131533,983.225477 C87.4330945,982.836681 86.9631694,982.642387 86.4027542,982.642387 C85.8444193,982.642387 85.3732461,982.836681 84.9888187,983.225477 C84.6043914,983.609696 84.4123857,984.083989 84.4123857,984.648565 Z M82.570546,982.778018 L81.9140239,983.166814 C81.7912901,982.954006 81.6743809,982.815046 81.5628803,982.749935 C81.4474273,982.676087 81.2978584,982.639058 81.1147977,982.639058 C80.8901324,982.639058 80.7039514,982.702714 80.5558387,982.830232 C80.407518,982.955462 80.3332536,983.112728 80.3332536,983.303069 C80.3332536,983.564763 80.5277555,983.775907 80.9169674,983.935669 L81.4520038,984.154509 C81.8871889,984.330913 82.2056728,984.545802 82.4072475,984.799382 C82.6088223,985.053379 82.7095056,985.364582 82.7095056,985.732783 C82.7095056,986.226631 82.5449591,986.634565 82.216074,986.956586 C81.8846926,987.281102 81.4740543,987.443152 80.9827028,987.443152 C80.5175624,987.443152 80.132719,987.305025 79.8296288,987.027938 C79.5311151,986.751266 79.34431,986.362887 79.2702537,985.86259 L80.0900742,985.681818 C80.1271023,985.996973 80.1922137,986.214774 80.2847841,986.335219 C80.4514109,986.56675 80.6947984,986.682619 81.0143224,986.682619 C81.2668629,986.682619 81.4763425,986.597953 81.6429693,986.429038 C81.8098041,986.260123 81.8928055,986.046275 81.8928055,985.787078 C81.8928055,985.68265 81.8786599,985.587375 81.8497447,985.500629 C81.8206214,985.413675 81.7754803,985.333794 81.7141134,985.260986 C81.6527464,985.188178 81.5734895,985.119946 81.4763425,985.056083 C81.3789875,984.992636 81.2631185,984.931893 81.1287353,984.873855 L80.6111729,984.658758 C79.8772662,984.348803 79.5101047,983.894896 79.5101047,983.298077 C79.5101047,982.895343 79.6638341,982.558553 79.9719168,982.287707 C80.2802076,982.014572 80.6633868,981.878109 81.1220786,981.878109 C81.7401163,981.878109 82.2231468,982.17787 82.570546,982.778018 Z M78.244906,982.778018 L77.588384,983.166814 C77.4656501,982.954006 77.3487409,982.815046 77.2374484,982.749935 C77.1217873,982.676087 76.9722185,982.639058 76.7893658,982.639058 C76.5647005,982.639058 76.3783115,982.702714 76.2299907,982.830232 C76.081878,982.955462 76.0076137,983.112728 76.0076137,983.303069 C76.0076137,983.564763 76.2023236,983.775907 76.5913275,983.935669 L77.1261558,984.154509 C77.561757,984.330913 77.8800329,984.545802 78.0816076,984.799382 C78.2831823,985.053379 78.3838657,985.364582 78.3838657,985.732783 C78.3838657,986.226631 78.2195272,986.634565 77.890434,986.956586 C77.5592607,987.281102 77.1486224,987.443152 76.6572709,987.443152 C76.1917144,987.443152 75.8072871,987.305025 75.5039888,987.027938 C75.2052672,986.751266 75.0186701,986.362887 74.9448218,985.86259 L75.7646423,985.681818 C75.8016704,985.996973 75.8665737,986.214774 75.9591442,986.335219 C76.125979,986.56675 76.3689504,986.682619 76.6886825,986.682619 C76.9410149,986.682619 77.1504946,986.597953 77.3175374,986.429038 C77.4841642,986.260123 77.5673736,986.046275 77.5673736,985.787078 C77.5673736,985.68265 77.553228,985.587375 77.5241047,985.500629 C77.4951895,985.413675 77.4500484,985.333794 77.3886814,985.260986 C77.3273145,985.188178 77.2478496,985.119946 77.1504946,985.056083 C77.0535556,984.992636 76.9374785,984.931893 76.8033034,984.873855 L76.285533,984.658758 C75.5514182,984.348803 75.1844648,983.894896 75.1844648,983.298077 C75.1844648,982.895343 75.3386102,982.558553 75.6464849,982.287707 C75.9543597,982.014572 76.3377469,981.878109 76.7962306,981.878109 C77.4146844,981.878109 77.8972988,982.17787 78.244906,982.778018 Z M73.0934129,986.043154 L70.7970419,986.043154 L70.1993905,987.346005 L69.3275641,987.346005 L71.9817355,981.645538 L74.5416723,987.346005 L73.6561164,987.346005 L73.0934129,986.043154 Z M72.7632797,985.282413 L71.9675899,983.458671 L71.1340399,985.282413 L72.7632797,985.282413 Z M58.3085612,987.346005 L58.3085612,981.617663 L62.2200264,985.709901 L62.2200264,981.982536 L63.0294457,981.982536 L63.0294457,987.672394 L59.1179805,983.590766 L59.1179805,987.346005 L58.3085612,987.346005 Z M56.8898412,982.74307 L54.7397106,982.74307 L54.7397106,984.031776 L56.8274341,984.031776 L56.8274341,984.792725 L54.7397106,984.792725 L54.7397106,986.585264 L56.8898412,986.585264 L56.8898412,987.346005 L53.9300833,987.346005 L53.9300833,981.982536 L56.8898412,981.982536 L56.8898412,982.74307 Z M41.3785715,982.74307 L41.3785715,987.346005 L40.5691522,987.346005 L40.5691522,982.74307 L39.3359891,982.74307 L39.3359891,981.982536 L42.6081982,981.982536 L42.6081982,982.74307 L41.3785715,982.74307 Z M38.6058267,982.778018 L37.9493047,983.166814 C37.8263628,982.954006 37.7094536,982.815046 37.5983691,982.749935 C37.4825,982.676087 37.3331392,982.639058 37.1500785,982.639058 C36.9256212,982.639058 36.7390242,982.702714 36.5909115,982.830232 C36.4427987,982.955462 36.3685344,983.112728 36.3685344,983.303069 C36.3685344,983.564763 36.5630363,983.775907 36.9522482,983.935669 L37.4870765,984.154509 C37.9224697,984.330913 38.2409536,984.545802 38.4425283,984.799382 C38.6441031,985.053379 38.7447864,985.364582 38.7447864,985.732783 C38.7447864,986.226631 38.5802399,986.634565 38.2513548,986.956586 C37.9201814,987.281102 37.509127,987.443152 37.0181917,987.443152 C36.5526351,987.443152 36.1682078,987.305025 35.8649096,987.027938 C35.5661879,986.751266 35.3797988,986.362887 35.3055345,985.86259 L36.1253549,985.681818 C36.1623831,985.996973 36.2272864,986.214774 36.3200649,986.335219 C36.4866917,986.56675 36.7298711,986.682619 37.0496032,986.682619 C37.3019357,986.682619 37.5114153,986.597953 37.6782501,986.429038 C37.8448769,986.260123 37.9282943,986.046275 37.9282943,985.787078 C37.9282943,985.68265 37.9139407,985.587375 37.8850254,985.500629 C37.8559021,985.413675 37.8107611,985.333794 37.7493941,985.260986 C37.6880272,985.188178 37.6087703,985.119946 37.5114153,985.056083 C37.4140603,984.992636 37.2983993,984.931893 37.1640161,984.873855 L36.6464537,984.658758 C35.9123389,984.348803 35.5453855,983.894896 35.5453855,983.298077 C35.5453855,982.895343 35.6993229,982.558553 36.0071976,982.287707 C36.3152804,982.014572 36.6986676,981.878109 37.1571513,981.878109 C37.7753971,981.878109 38.2584276,982.17787 38.6058267,982.778018 Z M24.94659,984.080661 L27.260227,984.080661 L27.260227,981.982536 L28.0696463,981.982536 L28.0696463,987.346005 L27.260227,987.346005 L27.260227,984.841403 L24.94659,984.841403 L24.94659,987.346005 L24.1371707,987.346005 L24.1371707,981.982536 L24.94659,981.982536 L24.94659,984.080661 Z M22.0426656,982.74307 L22.0426656,987.346005 L21.2333087,987.346005 L21.2333087,982.74307 L20,982.74307 L20,981.982536 L23.2724171,981.982536 L23.2724171,982.74307 L22.0426656,982.74307 Z M40.4120945,976.359912 L100.627773,976.359912 L100.627773,977.380517 L40.4120945,977.380517 L40.4120945,976.359912 Z M98.2788139,945.916052 C98.2788139,946.30672 97.9617861,946.62354 97.571326,946.62354 C97.180658,946.62354 96.8636302,946.30672 96.8636302,945.916052 C96.8636302,945.524968 97.180658,945.208356 97.571326,945.208356 C97.9617861,945.208356 98.2788139,945.524968 98.2788139,945.916052 Z M43.3086132,945.916052 C43.3086132,946.30672 42.9920015,946.62354 42.6011254,946.62354 C42.2102493,946.62354 41.8936376,946.30672 41.8936376,945.916052 C41.8936376,945.524968 42.2102493,945.208356 42.6011254,945.208356 C42.9920015,945.208356 43.3086132,945.524968 43.3086132,945.916052 Z M94.5046441,951.047367 L94.5318952,951.809565 C94.2860115,951.81539 94.1083594,951.851586 93.998107,951.918153 C93.8776614,951.984097 93.7738577,952.097469 93.6860718,952.258064 C93.5785237,952.45527 93.5454479,952.649564 93.5864285,952.840529 C93.625537,953.030663 93.7283006,953.17087 93.8953434,953.262193 C94.1252093,953.387423 94.4033367,953.317943 94.7293095,953.053337 L95.177184,952.689712 C95.5399769,952.392863 95.8805113,952.216875 96.1998273,952.161541 C96.5185193,952.10683 96.8401236,952.167365 97.1636001,952.343561 C97.597121,952.579876 97.8764965,952.91937 98.0023507,953.361628 C98.1288289,953.807422 98.0747428,954.245728 97.8398843,954.676544 C97.6170912,955.08531 97.3112967,955.356365 96.9229169,955.4895 C96.5366173,955.619099 96.1062168,955.59684 95.6312992,955.422516 L95.8649096,954.616426 C96.1590547,954.734791 96.3814318,954.782012 96.5316248,954.758714 C96.8149527,954.72335 97.0331693,954.564836 97.1856505,954.28442 C97.3065122,954.063083 97.3327231,953.838418 97.2642834,953.611256 C97.1956357,953.384303 97.047523,953.208731 96.8197373,953.084333 C96.728831,953.034823 96.6377167,953.001331 96.5476426,952.985522 C96.4573604,952.969296 96.3660381,952.970544 96.2724275,952.989682 C96.179025,953.00882 96.081254,953.04564 95.9789064,953.100142 C95.8763509,953.155269 95.7677626,953.227661 95.6525176,953.317735 L95.2160844,953.668879 C94.5928461,954.164599 94.0187013,954.269442 93.4946902,953.983826 C93.1412583,953.79078 92.9192973,953.494347 92.8296392,953.093486 C92.7372768,952.692 92.80114,952.290099 93.0206047,951.887366 C93.3162061,951.344632 93.8108859,951.064633 94.5046441,951.047367 Z M91.888125,954.690066 L92.6191194,955.307063 C92.0181396,955.412323 91.5565356,955.656127 91.2336832,956.038266 C90.8783791,956.459513 90.7302664,956.942544 90.7895531,957.486317 C90.8455114,958.030715 91.0918112,958.487326 91.5276203,958.854488 C91.9580209,959.217697 92.4435476,959.379123 92.9844086,959.33835 C93.5248536,959.297786 93.9733522,959.066672 94.3286563,958.645216 C94.512341,958.427415 94.6332026,958.212735 94.6908251,958.000551 C94.7270212,957.88593 94.7536482,957.75758 94.7704981,957.615292 C94.78714,957.473628 94.795669,957.316362 94.795669,957.143703 L95.5426812,957.774014 C95.4444941,958.297193 95.230854,958.753804 94.902385,959.143016 C94.4079132,959.72881 93.7815546,960.056447 93.022893,960.125719 C92.2627752,960.190414 91.5910675,959.976774 91.0090178,959.485215 C90.4866709,959.044829 90.1667308,958.479213 90.0491975,957.788783 C89.9067015,956.941712 90.1201336,956.180762 90.6894938,955.50635 C91.0000728,955.13794 91.3994779,954.865846 91.888125,954.690066 Z M87.8235545,958.737162 L91.3880366,962.750975 L90.7814401,963.289756 L87.2169581,959.275943 L87.8235545,958.737162 Z M84.006948,967.890611 L81.9968172,962.369044 L85.7258459,964.988476 L85.2070354,960.433802 L89.0529732,964.8491 L88.3415329,965.27742 L86.2269744,962.771569 L86.6671521,966.577359 L83.5449279,964.384999 L84.7240049,967.458338 L84.006948,967.890611 Z M76.2510011,967.653672 C76.028,966.932039 76.1014322,966.230792 76.4700498,965.549515 C76.8370032,964.868862 77.3901376,964.414539 78.129453,964.185921 C78.8594073,963.960424 79.5664791,964.028239 80.2502522,964.389576 C80.9361056,964.749873 81.391885,965.296766 81.6182145,966.029217 C81.8457922,966.766244 81.7756883,967.473316 81.4074868,968.149392 C81.037621,968.828381 80.47887,969.283744 79.7310257,969.514442 C79.069095,969.719137 78.404044,969.673372 77.7360806,969.377771 C76.9998856,969.049718 76.5045817,968.475157 76.2510011,967.653672 Z M77.0352496,967.420894 C77.2099893,967.986926 77.5438669,968.393612 78.0366745,968.640951 C78.5276099,968.888915 79.0208336,968.936345 79.5161374,968.783656 C80.0536701,968.617445 80.4493307,968.291888 80.7039514,967.806361 C80.957116,967.316466 81.0003848,966.801816 80.8339661,966.262411 C80.6654671,965.71635 80.3415745,965.314864 79.8629125,965.058163 C79.3857067,964.798966 78.8793776,964.751953 78.3441332,964.916915 C77.8109691,965.081878 77.4184288,965.406395 77.1658883,965.891089 C76.9120997,966.371415 76.8686228,966.881489 77.0352496,967.420894 Z M70.1916936,970.881156 L69.8251563,965.163631 L73.9908262,968.997504 L73.7522233,965.27846 L74.5595623,965.226454 L74.9238114,970.904871 L70.7589736,967.08244 L70.9994487,970.82915 L70.1916936,970.881156 Z M62.9223136,967.181875 C63.0523283,966.438399 63.4365476,965.84782 64.0751797,965.409723 C64.7113154,964.971418 65.4102743,964.818936 66.1722642,964.951863 C66.9246851,965.083958 67.5231686,965.465681 67.9672987,966.098073 C68.4137171,966.730464 68.5709828,967.424222 68.4390959,968.178515 C68.3059609,968.938009 67.9221576,969.534412 67.2866459,969.968349 C66.6484299,970.404366 65.9440625,970.554559 65.1731275,970.41976 C64.4912266,970.300771 63.9199942,969.957324 63.4598463,969.390668 C62.9535172,968.763685 62.774409,968.02749 62.9223136,967.181875 Z M63.7257003,967.331028 C63.6237688,967.913493 63.7361014,968.426479 64.0626983,968.870609 C64.3870069,969.313907 64.8043019,969.580385 65.3152076,969.669628 C65.869174,969.766358 66.3698865,969.657354 66.817345,969.341783 C67.2656356,969.021842 67.5383543,968.584577 67.6357093,968.029571 C67.7338964,967.467699 67.6284285,966.963866 67.3184735,966.518072 C67.0114309,966.070614 66.5820705,965.798519 66.0303922,965.701788 C65.4807942,965.605681 64.9834101,965.716142 64.5382399,966.031505 C64.0934857,966.342916 63.8228472,966.776021 63.7257003,967.331028 Z M62.5139636,964.528952 L62.1434738,965.410555 C61.8638902,964.86803 61.4936085,964.500452 61.0326285,964.306575 C60.5244272,964.092726 60.0197622,964.095431 59.5182177,964.313855 C59.015633,964.529992 58.6540882,964.90069 58.4329592,965.425949 C58.2149506,965.944759 58.2055896,966.455873 58.4059162,966.959706 C58.6056187,967.463539 58.9598827,967.822587 59.468084,968.036019 C59.7306096,968.14648 59.9715008,968.197653 60.1909655,968.189541 C60.3114111,968.189749 60.4418418,968.176851 60.5822577,968.15064 C60.7224655,968.124221 60.8751547,968.085529 61.0401173,968.033939 L60.6613066,968.934265 C60.132927,968.99688 59.6336707,968.929272 59.1641617,968.73165 C58.457506,968.434592 57.9580417,967.934712 57.6659767,967.231593 C57.3762,966.524521 57.3791124,965.820361 57.6740896,965.118282 C57.9389035,964.488595 58.3838657,964.015342 59.0087682,963.69769 C59.7751266,963.309518 60.5647837,963.286428 61.3779474,963.628002 C61.8220775,963.814807 62.2006802,964.115193 62.5139636,964.528952 Z M57.4265417,962.734749 L55.6323393,961.549432 L54.9236034,962.622417 L56.6657999,963.773202 L56.2451765,964.409754 L54.503396,963.259592 L53.5179888,964.751121 L55.3121912,965.93623 L54.8917758,966.57299 L52.4212891,964.94167 L55.3768865,960.466253 L57.8471652,962.097989 L57.4265417,962.734749 Z M51.7897299,958.365008 L50.5546946,956.961474 L49.5850972,957.814578 L50.7766556,959.168603 L50.2064633,959.66994 L49.0151129,958.315707 L47.0952643,960.004857 L46.5591879,959.395349 L50.5883944,955.850421 L52.3595062,957.863464 L51.7897299,958.365008 Z M44.7683139,951.641482 C45.4212995,951.261631 46.1215065,951.174261 46.8687268,951.380413 C47.6144909,951.583859 48.1817709,952.019877 48.5705668,952.688672 C48.9547861,953.348731 49.0477726,954.052474 48.8497343,954.80011 C48.652736,955.549411 48.2223355,956.117315 47.5593647,956.50299 C46.8920254,956.890954 46.187658,956.98186 45.4456383,956.776125 C44.7004982,956.569142 44.131138,956.127508 43.7379736,955.451016 C43.3897424,954.852532 43.2846905,954.194762 43.422402,953.477081 C43.5759234,952.68576 44.024838,952.073963 44.7683139,951.641482 Z M45.1712553,952.351674 C44.6586855,952.64998 44.3372892,953.067275 44.2070666,953.603559 C44.0755957,954.137764 44.140291,954.629323 44.4009444,955.077198 C44.6838563,955.563556 45.0903342,955.8758 45.6212101,956.014551 C46.1560384,956.150391 46.6675681,956.07675 47.1562152,955.79259 C47.650687,955.505102 47.9693789,955.098832 48.111667,954.573989 C48.2572834,954.050394 48.1890517,953.546353 47.907596,953.062074 C47.6269723,952.579876 47.2219506,952.270545 46.6923229,952.134082 C46.1670636,951.995122 45.6596944,952.067722 45.1712553,952.351674 Z M100.899077,938.928128 L96.2992626,939.024235 L96.3321303,940.600429 L95.5724286,940.616238 L95.522919,938.232913 L100.882019,938.121205 L100.899077,938.928128 Z M96.8763196,930.651706 C97.6104345,930.478839 98.3052328,930.599908 98.9592586,931.014915 C99.6130764,931.427634 100.028291,932.010516 100.205943,932.763977 C100.380891,933.508285 100.265438,934.209324 99.8589601,934.866678 C99.4526903,935.526528 98.8768813,935.944031 98.1309092,936.119603 C97.3805685,936.296423 96.6807776,936.177642 96.0317444,935.764091 C95.3797988,935.34846 94.9639599,934.759546 94.7846437,933.99714 C94.6257138,933.322728 94.7168281,932.662045 95.0567384,932.015716 C95.4336769,931.303236 96.0400653,930.848497 96.8763196,930.651706 Z M97.0550118,931.449476 C96.4789948,931.585108 96.0510906,931.890486 95.7706749,932.365612 C95.4900513,932.838657 95.4093382,933.327512 95.5279115,933.832801 C95.6568861,934.380735 95.9551917,934.798654 96.4217884,935.085934 C96.8929615,935.372591 97.4032431,935.451224 97.952217,935.322041 C98.5078477,935.191194 98.9301353,934.895385 99.2184558,934.435237 C99.5094807,933.976129 99.5906098,933.473753 99.4622593,932.928315 C99.3341169,932.384958 99.0372674,931.970575 98.5712948,931.685375 C98.1092747,931.398927 97.6039857,931.320294 97.0550118,931.449476 Z M93.7873792,924.387912 C94.4559666,924.036768 95.1588779,923.98081 95.895489,924.218581 C96.6316841,924.454895 97.1794098,924.915459 97.5388744,925.600273 C97.8939704,926.276973 97.9565855,926.984045 97.7267196,927.721904 C97.4978938,928.461843 97.0439866,929.009777 96.365206,929.366121 C95.682473,929.724546 94.9754012,929.784665 94.2433667,929.54627 C93.5084197,929.307043 92.9592378,928.840862 92.5956128,928.147936 C92.2738005,927.534891 92.1970398,926.87296 92.3653308,926.162352 C92.5525519,925.378519 93.0268454,924.787109 93.7873792,924.387912 Z M94.1601573,925.11641 C93.6357301,925.391833 93.2966519,925.79415 93.1435466,926.323986 C92.9894012,926.851534 93.0326701,927.344757 93.2735613,927.803865 C93.5348387,928.301249 93.927171,928.630966 94.4509741,928.792601 C94.9789376,928.951531 95.4927556,928.899733 95.992844,928.637415 C96.4987571,928.371769 96.8342989,927.980269 96.9990535,927.462707 C97.1667204,926.945976 97.1207472,926.440063 96.8605099,925.944343 C96.6015207,925.450704 96.2104365,925.124315 95.6878816,924.965177 C95.1694871,924.803543 94.6600377,924.854092 94.1601573,925.11641 Z M91.2623904,920.459805 L92.7668161,922.215939 L94.3611079,920.850473 L94.8894875,921.467262 L90.8122276,924.959768 L90.284056,924.342979 L92.1866387,922.713115 L90.682213,920.956565 L88.7796303,922.586637 L88.2510427,921.970055 L92.3280946,918.477549 L92.8562662,919.094131 L91.2623904,920.459805 Z M90.3628969,917.003911 L89.78688,917.766317 C89.6495845,917.172202 89.3812342,916.724327 88.9822452,916.422693 C88.5426916,916.09048 88.0532124,915.968578 87.5127674,916.056988 C86.9727385,916.142278 86.5306887,916.412292 86.1870339,916.866823 C85.8473316,917.316154 85.7125324,917.809586 85.7820122,918.347118 C85.8517001,918.884651 86.1065288,919.31942 86.5460824,919.651842 C86.773036,919.823461 86.9941649,919.932673 87.2088452,919.978646 C87.3255463,920.00881 87.455561,920.028364 87.597641,920.037725 C87.7403451,920.046462 87.8978189,920.046462 88.0700623,920.037725 L87.4815639,920.816565 C86.9536004,920.746253 86.4870037,920.557576 86.0807339,920.250533 C85.469561,919.788097 85.1086403,919.18046 84.9985958,918.427207 C84.8927119,917.671458 85.0697399,916.989765 85.5288477,916.382337 C85.9403181,915.837731 86.4876278,915.48846 87.1705688,915.334523 C88.0093195,915.147301 88.7800464,915.319545 89.4842058,915.851461 C89.8680091,916.141862 90.1613222,916.526081 90.3628969,917.003911 Z M85.1444203,913.961152 L84.3834705,914.017942 C84.3680767,913.772474 84.3250159,913.59607 84.2542879,913.488522 C84.1835599,913.370781 84.0662347,913.271138 83.9023122,913.190009 C83.7009455,913.089949 83.5058195,913.064362 83.3163101,913.112832 C83.1278408,913.159013 82.9913774,913.267393 82.9065039,913.437765 C82.7898027,913.672623 82.8707238,913.948254 83.1482271,914.264658 L83.5301582,914.699011 C83.8421934,915.050362 84.0317028,915.384656 84.0997264,915.701684 C84.1673341,916.01892 84.1190726,916.342812 83.9551501,916.673154 C83.7358934,917.115827 83.4076324,917.408725 82.9703671,917.551845 C82.5299814,917.695797 82.0895957,917.658769 81.6498341,917.440552 C81.2327471,917.233777 80.9498351,916.939008 80.8006823,916.556452 C80.655898,916.176393 80.6613066,915.745785 80.8169081,915.264419 L81.6319441,915.467033 C81.5254361,915.765755 81.4863277,915.989796 81.515867,916.138533 C81.5624642,916.420197 81.728675,916.632173 82.0151233,916.774045 C82.2414528,916.885962 82.4665342,916.903436 82.6911996,916.826259 C82.9158649,916.748874 83.0858201,916.593897 83.2008571,916.361534 C83.2474543,916.26834 83.2767856,916.176185 83.289267,916.085279 C83.3019565,915.994581 83.2967559,915.903051 83.2742893,915.810064 C83.2516148,915.717494 83.2106342,915.620971 83.1519715,915.520704 C83.0926849,915.420228 83.0157162,915.314344 82.9212735,915.202428 L82.5522399,914.778892 C82.0307251,914.17396 81.9029987,913.603975 82.1686446,913.068523 C82.3479608,912.707186 82.6356573,912.473992 83.0329821,912.368316 C83.430723,912.260768 83.8349126,912.308613 84.2459669,912.512476 C84.7999334,912.787275 85.0990712,913.270098 85.1444203,913.961152 Z M70.8654816,914.572741 L72.7345725,909 L74.0187013,913.373693 L76.4515357,909.486983 L76.7080287,915.338475 L75.8848798,915.230511 L75.7918933,911.952269 L73.7653287,915.199307 L72.6885993,911.542463 L71.6961193,914.681537 L70.8654816,914.572741 Z M67.5554123,909.52942 L67.9922615,914.111345 L69.5624226,913.961984 L69.6346068,914.719189 L67.2589788,914.945727 L66.7499454,909.605972 L67.5554123,909.52942 Z M59.9960476,913.98549 C59.7803272,913.261361 59.8604163,912.56053 60.2365227,911.882789 C60.6099248,911.205465 61.1676357,910.756342 61.9094474,910.535421 C62.6423141,910.316789 63.3487617,910.391677 64.0294145,910.759462 C64.7117315,911.126832 65.1627264,911.677678 65.3817751,912.412625 C65.6020719,913.152148 65.5248952,913.85818 65.1500369,914.530928 C64.7733064,915.206588 64.2097709,915.656335 63.4592222,915.87996 C62.7952113,916.07779 62.1303683,916.025785 61.4646932,915.723734 C60.7312025,915.388817 60.2415152,914.809471 59.9960476,913.98549 Z M60.780088,913.760825 C60.9496271,914.329769 61.2801764,914.740408 61.7715278,914.993156 C62.2612151,915.246529 62.7544387,915.298951 63.2524469,915.15063 C63.7926838,914.989828 64.1925049,914.667183 64.4525342,914.183113 C64.7108994,913.694674 64.7593689,913.179399 64.5977346,912.63729 C64.4344362,912.088524 64.113872,911.682879 63.6364582,911.421393 C63.1607085,911.156579 62.6537553,911.104573 62.1160147,911.264751 C61.5803543,911.424305 61.1836535,911.74591 60.9259124,912.229148 C60.6671313,912.708018 60.6184538,913.218716 60.780088,913.760825 Z M55.5874063,915.764299 L57.5994092,914.615801 L56.5592919,912.793516 L57.260539,912.393279 L59.9186628,917.04926 L59.2172077,917.449913 L57.9767638,915.2769 L55.9647608,916.425398 L57.2052047,918.598411 L56.5037496,918.998648 L53.8460418,914.342667 L54.5472889,913.942221 L55.5874063,915.764299 Z M50.9938321,919.413239 L51.108037,916.425814 L51.9097594,915.701684 L51.7387641,919.128871 L55.5162622,919.672436 L54.7124596,920.399062 L51.6792694,919.923104 L51.6674121,920.158795 L53.155612,921.805716 L52.5560883,922.346994 L48.9599867,918.367089 L49.5590943,917.825604 L50.9938321,919.413239 Z M47.4270618,920.434218 L48.2034053,920.994009 C47.6124107,921.144826 47.1701528,921.422953 46.8776718,921.828599 C46.5550274,922.27585 46.4439429,922.768657 46.5448343,923.306814 C46.6423973,923.845803 46.9223968,924.282028 47.3854571,924.615905 C47.8424846,924.945623 48.3394527,925.069813 48.8757372,924.988267 C49.4122297,924.906722 49.8417982,924.642324 50.1644425,924.195282 C50.3310693,923.964168 50.4350811,923.740543 50.4764777,923.524822 C50.5039368,923.407497 50.5207867,923.277483 50.5266114,923.134362 C50.5324361,922.991866 50.5288997,922.834184 50.5160022,922.662149 L51.3094037,923.234422 C51.2513652,923.764049 51.0735051,924.235223 50.7751994,924.648773 C50.3267009,925.270763 49.7267612,925.64479 48.9751724,925.77106 C48.2200472,925.894418 47.5333618,925.732783 46.914492,925.286573 C46.3599014,924.886544 45.9975245,924.346099 45.8284014,923.664822 C45.6216261,922.829816 45.7766036,922.054513 46.2929178,921.338704 C46.5749977,920.947828 46.9527683,920.646194 47.4270618,920.434218 Z M43.9884339,931.525197 C43.2928034,931.231676 42.8029082,930.724931 42.5185401,930.004337 C42.2333399,929.28624 42.2410368,928.57064 42.5414227,927.857951 C42.8382722,927.154416 43.3448093,926.656824 44.0608261,926.365591 C44.7776749,926.072694 45.4893232,926.07519 46.1955629,926.37308 C46.905963,926.672841 47.4016829,927.180835 47.6829306,927.897476 C47.9648024,928.617029 47.9539852,929.337206 47.6500629,930.058007 C47.3810886,930.696015 46.9186524,931.175717 46.2625464,931.496906 C45.5382087,931.849713 44.7803792,931.859283 43.9884339,931.525197 Z M44.3137826,930.776728 C44.8590121,931.006594 45.3848954,931.012419 45.8912245,930.793786 C46.3967216,930.577234 46.7499454,930.230043 46.9519362,929.752421 C47.1699448,929.234026 47.1757694,928.721249 46.968162,928.213879 C46.7561861,927.704846 46.3902728,927.340805 45.8704222,927.12134 C45.3441228,926.899587 44.8288487,926.889394 44.3245998,927.091385 C43.8191028,927.290463 43.457558,927.648056 43.2395494,928.164162 C43.023205,928.678396 43.0190445,929.187845 43.227276,929.692926 C43.4317631,930.196343 43.7937239,930.557472 44.3137826,930.776728 Z M41.6868623,933.381182 L46.1978511,934.302726 L46.0362169,935.093839 L41.5256441,934.172295 L41.2787202,935.380288 L40.5337882,935.228223 L41.18823,932.024453 L41.9333701,932.176518 L41.6868623,933.381182 Z M41.1251989,936.995174 L41.4884079,937.666466 C41.2708153,937.78067 41.1274872,937.892379 41.0582154,938.000759 C40.9797905,938.113716 40.9367297,938.261413 40.9298649,938.444265 C40.9209199,938.668723 40.9775023,938.8574 41.098988,939.010713 C41.2183934,939.163818 41.3727468,939.243908 41.5624642,939.251188 C41.8241578,939.26159 42.0425824,939.0752 42.2173221,938.692853 L42.4569651,938.167178 C42.6495949,937.739066 42.8769645,937.429319 43.13845,937.237937 C43.3995195,937.046556 43.714675,936.958146 44.0824605,936.972499 C44.5754761,936.991845 44.9765454,937.171994 45.2856682,937.512736 C45.5968713,937.856599 45.7429038,938.273686 45.7239737,938.764205 C45.7056676,939.229138 45.5525623,939.607949 45.2650739,939.90043 C44.9775855,940.188542 44.5823409,940.359537 44.0797562,940.41404 L43.9310194,939.587978 C44.2472151,939.563224 44.4673039,939.506849 44.5910779,939.419063 C44.8294728,939.261381 44.9544949,939.022571 44.9669763,938.703463 C44.9765454,938.45113 44.9002007,938.23853 44.7379424,938.065247 C44.5754761,937.891963 44.3647483,937.800225 44.1057591,937.790032 C44.0015394,937.786079 43.9054325,937.796896 43.8174386,937.822483 C43.7294447,937.847862 43.6478995,937.889883 43.572595,937.948129 C43.4974985,938.006584 43.4261465,938.083345 43.3587469,938.177787 C43.2911392,938.272438 43.2260279,938.385603 43.1629968,938.51749 L42.9275142,939.025691 C42.588852,939.746076 42.1207992,940.09514 41.5237719,940.071425 C41.1212465,940.056239 40.7904892,939.888988 40.531708,939.571752 C40.2706385,939.253685 40.1489448,938.865513 40.1668348,938.407445 C40.1907575,937.789615 40.5102816,937.318858 41.1251989,936.995174 Z M68.0299138,930.182405 C68.3171942,930.021603 68.767357,930.11563 69.0667027,930.205288 C69.0881291,929.887636 68.9458411,929.599732 68.7492589,929.379435 C68.4877734,929.023091 67.8974028,929.310579 67.739721,928.873314 C67.5614449,928.601011 67.2442091,928.56107 66.9094994,928.570432 C66.0692926,928.78636 65.2272136,929.020802 64.2931883,929.001664 C64.4885223,929.241515 64.8030538,929.379435 65.0327117,929.586002 C64.9130982,929.682941 64.7618651,929.729954 64.6443319,929.812124 C63.4253144,930.5219 62.8303673,931.796667 63.0009465,933.204986 C63.3820455,936.489885 66.9352943,937.735113 69.2974007,939.12159 C70.8823315,940.057279 73.0206047,940.987976 73.4287468,943.037007 C73.7975724,944.514806 73.3969192,946.14571 72.1727011,947.106154 C72.3347514,947.394475 72.4608136,947.698813 72.5723142,948.001903 C73.2319566,947.579824 73.9488054,946.959082 74.264169,946.231832 C75.1495169,944.678104 74.8792944,942.381941 73.9567103,940.940339 C71.8906213,938.205662 68.5083677,937.684356 66.028312,935.608073 C65.2232612,934.838179 64.5750601,933.855892 64.8852231,932.691792 C65.0478974,932.010308 65.5962473,931.368763 66.3024869,931.233132 C66.8420998,930.977263 66.6600793,931.69224 67.0420103,931.817262 C67.2733324,931.922106 67.6251001,931.964126 67.8768085,931.867811 C68.0126478,931.789179 68.1657531,931.690784 68.2015331,931.507307 L68.0190966,931.453429 C67.8204341,931.332151 67.5410586,931.158868 67.5637332,930.876164 C67.5699739,930.591796 67.792351,930.328646 68.0299138,930.182405 Z M65.8762468,929.284784 C66.3112239,929.177444 66.7634669,928.917415 67.2462894,929.029539 L67.447032,929.252332 C66.737464,929.552926 66.3542848,929.513194 65.8762468,929.284784 Z M73.6475874,936.520048 C72.9016153,937.023465 72.2259551,937.393747 71.4148716,937.776926 L71.382628,937.744474 L71.5003692,926.693228 L71.4560602,923.853083 C70.7868488,923.955639 70.1182613,923.890736 69.432408,923.860364 L69.3643843,923.891776 L69.3546072,926.915605 L69.4960632,936.735145 L69.5266426,936.918829 C70.6395681,937.326763 71.6607553,937.983285 72.6694611,938.606316 C73.6658935,938.09229 74.7143318,937.530002 75.6306751,936.846437 C77.1436298,935.706052 78.1302851,934.072444 77.8540299,932.110991 C77.7437775,930.954588 76.7255026,930.080266 75.7841965,929.541277 C76.0227994,929.346983 76.2917737,929.235691 76.5143588,929.023091 L76.5164391,928.956315 C75.4107943,929.099435 74.5006917,928.563151 73.4628626,928.641784 C73.1949284,928.669035 73.0389108,928.916375 72.9511249,929.131887 C72.6663408,929.160594 72.3803085,929.170787 72.1610518,929.333878 C71.870443,929.577889 71.7631029,929.893253 71.7570702,930.244188 C72.0938602,930.134144 72.4780795,930.125407 72.8271429,930.233163 C73.0243491,930.387517 73.2548391,930.593252 73.2656564,930.878244 C73.2773057,931.095004 73.1720458,931.260383 73.0043789,931.389774 C72.9005752,931.506267 72.6164151,931.466742 72.6638445,931.651051 C72.9103523,931.890486 73.2567114,932.047336 73.6109753,931.922106 C73.9140655,931.811853 74.1374827,931.531438 74.2265168,931.2323 C74.5146293,931.138273 74.7582247,931.36065 75.0428008,931.416817 C75.7203333,931.78273 76.0735571,932.525374 76.0922792,933.259696 C76.0926953,934.765578 74.8168873,935.808816 73.6475874,936.520048 Z M73.3940068,929.252957 C73.4878254,929.135631 73.5766514,929.045141 73.652788,929.01789 C74.2444068,928.951323 74.5266946,929.139168 74.9541828,929.274383 C74.4807214,929.499256 73.8876465,929.570608 73.3940068,929.252957 Z M71.3339505,946.356438 L71.3755552,941.16438 C70.8700581,940.670532 70.2106238,940.373683 69.5844731,940.061024 L69.6693467,946.338548 C70.1721394,946.165888 70.8209646,946.19626 71.3339505,946.356438 Z M69.485662,940.009018 C69.0577577,939.783728 68.6308936,939.49208 68.1855153,939.29945 C66.5958,940.498081 65.9411502,942.348866 66.1653995,944.350676 C66.3513724,945.802679 67.3505091,947.3718 68.7875352,947.90122 C68.7950241,947.551741 69.0174012,947.273405 69.0406998,946.957834 C68.0213848,946.3373 67.4950854,945.244344 67.3686072,944.126218 C67.2048927,942.408152 68.1000177,940.995673 69.485662,940.009018 Z M72.757455,925.648414 C73.4351955,925.314547 74.0736195,925.704711 74.565387,926.33993 C73.8905589,926.891156 73.2635761,926.090659 72.757455,925.648414 Z M74.9627118,925.181841 C75.6928742,925.096682 76.1551023,925.710783 76.6959633,926.115345 C75.8183123,926.359772 75.0415527,925.804394 74.4135298,925.211311 C74.6140645,925.241214 74.7623852,925.16884 74.9627118,925.181841 Z M79.1125719,926.226423 L78.8132261,926.266156 C77.7860063,926.487077 77.1176269,925.552635 76.391625,925.068357 L77.189603,925.034865 C77.9909094,925.134508 78.4714436,925.82369 79.1125719,926.226423 Z M81.8591057,926.235576 C81.5275163,926.292575 81.0956596,926.334803 80.7775917,926.241817 C79.9698366,925.82577 79.140239,925.160511 78.4296309,924.626307 C79.8676971,924.146397 80.7653183,925.675785 81.8591057,926.235576 Z M73.0632495,925.329138 C72.8306793,925.357049 72.5315416,925.408806 72.3133249,925.284697 C72.0287488,925.162485 71.8723152,924.776339 71.8991502,924.363365 C72.3035478,924.677973 72.6748697,924.993123 73.0632495,925.329138 Z M81.9716464,924.451983 C83.1898318,925.408683 84.3911673,926.332307 85.5130379,927.440656 C85.0481054,927.500359 84.5467689,927.410909 84.2070666,927.085352 C83.0215408,926.111386 81.7503094,925.005949 80.5175624,924.183009 C81.0328365,924.122058 81.5820185,924.127466 81.9716464,924.451983 Z M74.6687746,924.655014 C73.6921045,924.942086 72.8795648,924.293261 72.2195064,923.757393 C73.22738,923.419979 73.9265469,924.204435 74.6687746,924.655014 Z M76.5936158,924.381463 C75.4355491,924.705564 74.5518655,923.875134 73.7251802,923.326576 C74.8994727,922.968984 75.7671385,923.866397 76.5936158,924.381463 Z M77.366631,923.932756 C76.6260674,923.548745 75.9006896,923.097958 75.2096356,922.662773 C75.4584317,922.640931 75.6373319,922.437692 75.9214919,922.498435 C76.8952498,922.877245 77.8529898,923.323248 78.6827954,923.988299 C78.2521868,924.097095 77.7860063,924.106872 77.366631,923.932756 Z M80.6727479,923.630498 C80.3080828,923.704347 79.9251116,923.712668 79.5729278,923.57038 C78.5937614,922.941525 77.5511478,922.413977 76.5416099,921.885806 L77.2709402,921.754127 C78.5413395,922.010412 79.6432398,922.952758 80.6727479,923.630498 Z M78.5864806,957.904028 C78.6230927,958.136391 78.4941181,958.371457 78.3137618,958.540372 C78.1304931,958.559926 77.9663626,958.695766 77.7812217,958.581977 C77.5817272,958.568871 77.4454718,958.371041 77.3928419,958.188604 C77.32253,957.940849 77.4019949,957.706406 77.5650853,957.536867 C77.7300479,957.401236 77.9289184,957.381681 78.1619047,957.377729 C78.3630634,957.458026 78.599378,957.670626 78.5864806,957.904028 Z M76.383304,958.587593 C76.1205704,958.808306 75.7224135,958.880907 75.3877037,958.769198 C75.1033357,958.657905 74.8329052,958.428872 74.6949856,958.131606 C74.5237823,957.801057 74.5841091,957.400404 74.7623852,957.081712 C75.0224145,956.678562 75.5173024,956.421237 76.001997,956.563109 C76.3868404,956.690003 76.7074046,956.951489 76.8132885,957.34923 C76.9374785,957.846614 76.7791727,958.331517 76.383304,958.587593 Z M76.3502283,956.474491 C76.2314469,956.326586 76.2279105,956.110034 76.2582819,955.909915 C76.3537647,955.608697 76.6512383,955.48742 76.950584,955.483051 C77.1176269,955.530273 77.2850858,955.594344 77.3707914,955.75889 C77.4575372,955.941327 77.4943574,956.173273 77.4304942,956.35779 C77.349365,956.509023 77.2018764,956.62718 77.0527235,956.696452 C76.7716838,956.800464 76.5366173,956.671073 76.3502283,956.474491 Z M80.7124804,957.6207 C79.7491237,957.735529 79.0220817,957.031578 78.173554,957.044891 C78.6016663,956.771549 79.1633296,956.480108 79.6578014,956.156007 C80.3998211,955.745161 81.0388692,955.102368 81.9364904,955.021447 C82.2703681,955.06638 82.5235327,955.295414 82.7107538,955.575414 C82.7806497,955.774492 82.8355679,956.105874 82.6720614,956.291847 C82.3791644,956.712678 81.7960746,956.688339 81.3303101,956.712678 C81.2864171,957.095649 81.0931633,957.481741 80.7124804,957.6207 Z M79.41483,955.544002 C78.8379809,955.902843 78.2939996,956.244001 77.7493941,956.535858 C78.2051735,955.895978 78.0254413,955.016663 78.4641628,954.377407 C78.7266884,954.090334 79.0745036,954.0013 79.4570588,954.011701 C79.5866574,953.776635 79.5995548,953.510573 79.7788711,953.291524 C79.9565231,952.955566 80.2868644,952.784155 80.6873095,952.844274 C80.921752,952.940588 81.1580666,953.136755 81.2281705,953.368285 C81.4958967,954.512414 80.1730755,955.049114 79.41483,955.544002 Z M82.7667121,954.892265 C82.4143203,954.715237 82.0598484,954.40445 81.9366985,953.989443 C81.8813642,953.641004 81.9084073,953.224957 82.1199671,952.921866 C82.4777675,952.383502 83.1906639,952.189208 83.776458,952.446533 C84.1954172,952.589653 84.4354763,953.051465 84.5415683,953.450038 C84.6147925,953.864421 84.4375566,954.216396 84.2257887,954.536545 C83.8663241,954.958208 83.3177662,955.017079 82.7667121,954.892265 Z M85.4371093,953.252624 C85.2049551,953.306086 85.0193982,953.125729 84.8997847,952.961183 C84.8467387,952.745671 84.8088784,952.446741 85.0058767,952.277618 C85.1541974,952.175062 85.3025181,952.089773 85.5024287,952.119728 C85.6696795,952.149891 85.8046868,952.264512 85.9228441,952.362699 C85.9912838,952.511436 86.0780296,952.726116 85.9638247,952.861332 C85.8673018,953.06249 85.6703036,953.248463 85.4371093,953.252624 Z M83.8494742,951.779193 C83.634586,951.865939 83.3843338,951.836608 83.2156267,951.673102 C83.0962213,951.508763 83.0265334,951.276609 83.1059984,951.075242 C83.2516148,950.8071 83.599014,950.668556 83.8673642,950.780681 C84.0352392,950.877828 84.2031141,950.975183 84.1895926,951.191735 C84.1939611,951.458005 84.0304546,951.643562 83.8494742,951.779193 Z M88.0700623,950.264991 C88.17345,950.480087 88.093777,950.731379 87.9302705,950.89967 C87.1549671,951.36169 86.1560384,951.344632 85.363885,951.739461 C85.7547611,951.21649 86.1626952,950.711201 86.4530959,950.123951 C86.8760076,949.484487 86.9779391,948.551709 87.7378488,948.190165 C88.0182645,948.052245 88.2878629,948.230937 88.5220973,948.327044 C88.7426022,948.573552 88.9637311,948.869777 88.8023049,949.204903 C88.5917852,949.591203 88.2302404,949.879939 87.7817418,949.920088 C87.8508056,950.085466 88.0342823,950.099196 88.0700623,950.264991 Z M84.5195178,948.872898 C84.6312264,948.588322 84.8977045,948.583745 85.1119686,948.430848 C84.9740491,948.133582 84.9838262,947.683836 85.1286105,947.38241 C85.4219236,946.977804 86.1050727,947.034178 86.3767513,947.395515 C86.5799902,947.592305 86.5856069,947.925143 86.5396337,948.191829 C86.1244188,949.313491 85.5925028,950.437234 84.7416869,951.366475 C84.8442424,950.482375 84.3169029,949.724962 84.5195178,948.872898 Z M88.0068232,947.303985 C87.4412074,947.328948 86.8870329,947.004847 86.6294998,946.509751 C86.4235566,946.113258 86.498237,945.546186 86.6916988,945.160303 C86.8533331,944.874895 87.1485184,944.587406 87.4636739,944.516262 C88.0101515,944.340898 88.5951135,944.514806 88.9680996,944.908386 C89.3564794,945.268475 89.4334481,945.932902 89.2580843,946.418221 C89.0500608,946.954089 88.5381151,947.22868 88.0068232,947.303985 Z M90.0662555,944.90797 C89.885067,945.026752 89.6855725,945.063364 89.4844138,944.966841 C89.2497634,944.837242 89.1784113,944.539145 89.2408184,944.272251 C89.3053056,944.154301 89.4195105,944.002444 89.5522295,943.96708 C89.7178162,943.91445 89.885067,943.961672 90.035052,943.992667 C90.1536253,944.107288 90.2890486,944.255609 90.2917529,944.437837 C90.2613815,944.605088 90.24786,944.805207 90.0662555,944.90797 Z M87.0954724,944.388328 C86.9450714,944.340898 86.7603466,944.260601 86.6750569,944.096263 C86.5720853,943.91445 86.6014166,943.664198 86.7160376,943.512341 C86.8622781,943.293708 87.1599596,943.189489 87.4108359,943.252312 C87.6956201,943.380246 87.7336884,943.696026 87.722039,943.996204 C87.6090823,944.247704 87.3619504,944.384167 87.0954724,944.388328 Z M90.5929709,941.337456 C91.1121975,942.611183 89.4527943,942.920098 88.918382,943.877006 C88.9123493,943.494867 88.954162,942.978345 89.0646225,942.576859 C89.2318734,941.559001 88.9799569,940.381172 89.4654837,939.507889 C89.662898,939.371842 89.8771621,939.218737 90.1604901,939.247028 C90.3614408,939.327533 90.6127331,939.423016 90.7489885,939.637488 C90.9357936,939.86777 90.8914846,940.234307 90.7960018,940.502241 C90.8342781,940.801171 89.9728529,941.064529 90.5929709,941.337456 Z M88.0272095,943.308478 C87.7823659,942.547112 86.5319368,942.416681 86.7501534,941.464766 C86.7969587,941.264023 86.994789,941.14441 87.1422776,941.025837 C87.1406135,940.909343 87.0234963,940.86129 86.9386227,940.762895 C86.7347597,940.499329 86.5612681,940.052703 86.772828,939.716537 C86.9192765,939.531396 87.082991,939.328781 87.3143131,939.258885 C87.6789782,939.153209 87.9978782,939.314635 88.2185911,939.594011 C88.7544595,940.883756 88.2631081,942.439356 88.1838511,943.739087 L88.0272095,943.308478 Z M89.8528234,936.605962 C90.0918424,937.018264 90.2008467,937.582424 90.0252749,938.051101 C89.8170434,938.570328 89.3069698,938.944562 88.741354,938.969941 C88.1761543,939.012169 87.7053972,938.703255 87.3827528,938.292408 C87.1593356,937.846614 87.082991,937.231905 87.3421882,936.795263 C87.553332,936.442247 87.8653672,936.204477 88.2135985,936.082367 C88.8262276,935.906379 89.4455135,936.112946 89.8528234,936.605962 Z M86.3393071,936.527953 C86.2706593,936.362574 86.1999314,936.114194 86.3137202,935.945903 C86.4433188,935.727479 86.7245665,935.606409 86.9914606,935.652382 C87.242753,935.748281 87.3294988,935.979811 87.366943,936.229023 C87.3371956,936.479068 87.1743133,936.664417 86.9253092,936.735145 C86.6765131,936.789023 86.4755624,936.692292 86.3393071,936.527953 Z M90.0283952,935.071789 C90.1305347,935.219902 90.2004306,935.418772 90.1195095,935.586647 C90.0387964,935.737256 89.9582913,935.905339 89.7592128,935.958385 C89.5276827,936.045131 89.3425418,935.898266 89.157401,935.784685 C89.0047117,935.587479 88.9997192,935.287925 89.1461677,935.085726 C89.3585596,934.799486 89.8245322,934.825489 90.0283952,935.071789 Z M87.4867645,935.411491 C86.8664385,935.104865 85.9367817,935.252977 85.6413883,934.47497 C85.5203187,934.177496 85.7659944,933.940765 85.8123836,933.689889 C85.2802596,933.715268 84.7934847,933.456279 84.5696515,932.977409 C84.5646589,932.677855 84.5261746,932.328791 84.8063822,932.14157 C85.132979,931.753607 85.7994862,931.792923 86.152918,932.070218 C87.0349375,933.138419 87.4880126,934.396337 87.9238218,935.654255 L87.4867645,935.411491 Z M89.2557961,932.521005 C89.671843,933.562787 88.7690211,934.392592 88.6007302,935.32745 C88.1322613,934.119665 87.6146989,932.929355 86.9808514,931.774409 C86.8753835,931.426594 86.9525602,931.042582 87.2311037,930.771736 C87.3950262,930.586387 87.676898,930.565169 87.943168,930.544158 C88.1100028,930.558304 88.2441779,930.639433 88.3631674,930.787338 C88.7190955,931.197976 88.5965697,931.882165 88.4702994,932.333576 C88.7704773,932.345433 89.068783,932.274081 89.2557961,932.521005 Z M85.6426365,931.346089 C85.1610622,931.453429 84.725253,931.210665 84.4367245,930.882196 C84.1648378,930.537085 84.1565169,930.004753 84.3335448,929.602228 C84.4623113,929.334086 84.7579127,929.063031 85.0558023,928.991887 C85.5527704,928.834413 86.072413,929.042437 86.3942253,929.420207 C86.6319961,929.699583 86.6055771,930.132688 86.578118,930.515659 C86.4343738,930.917352 86.0233194,931.240205 85.6426365,931.346089 Z M83.1051663,929.821485 C82.9360432,929.641128 82.8979749,929.358632 82.961006,929.124606 C83.0577369,928.906597 83.2896831,928.836494 83.5054034,928.816523 C83.70573,928.863329 83.9081368,929.009777 83.9615989,929.225497 C84.0150609,929.490935 83.9528619,929.741604 83.7219558,929.878275 C83.5241255,929.981039 83.2738733,929.968765 83.1051663,929.821485 Z M71.8367432,962.28001 C71.0595675,962.030382 71.2105926,961.185182 71.1910383,960.518883 C70.9451546,960.346848 70.6986468,960.175853 70.452139,960.037309 L69.8430463,960.507026 L69.8251563,961.355762 C69.733834,961.753087 69.4109816,962.062833 69.1066432,962.272729 C69.9133582,962.705834 71.0961796,962.647379 71.8367432,962.28001 Z M69.7471475,959.201887 C68.6452472,960.145065 67.3471808,960.916416 66.0738691,961.32227 C67.5766306,961.088036 68.9375202,960.500369 70.1234619,959.50997 C70.009049,959.407206 69.9121101,959.255557 69.7471475,959.201887 Z M71.1899982,955.791342 L69.7924966,955.762011 L69.7727344,956.710598 C69.9489302,957.03033 70.2586772,957.353182 70.5026887,957.608011 L71.2565657,956.5914 C71.2126728,956.324298 71.3012908,956.043258 71.1899982,955.791342 Z M68.6955889,955.688995 L68.0812956,955.60953 C68.5541329,956.868072 69.3779058,958.083345 70.3391823,959.06896 C71.4826872,960.108453 72.712938,960.983608 74.2211081,961.281289 C71.8789719,960.249701 69.5605504,958.104147 68.6955889,955.688995 Z M71.1785569,958.399748 C72.0614085,957.603226 72.7146022,956.584328 73.2513027,955.613898 C73.0014666,955.59164 72.7686883,955.620347 72.5835474,955.699604 C72.1327606,956.55562 71.5342771,957.309081 70.8860759,958.06067 L70.8839957,958.177163 C70.948483,958.278471 71.0803699,958.331517 71.1785569,958.399748 Z M62.3296548,957.924831 C62.2930427,958.157609 62.4224333,958.392884 62.6027896,958.562007 C62.7854342,958.581561 62.9497727,958.717192 63.1347056,958.602987 C63.3346161,958.589882 63.4708715,958.392259 63.5235015,958.209823 C63.5940214,957.961443 63.5145564,957.727 63.35105,957.557877 C63.1865034,957.422662 62.987217,957.4029 62.7542307,957.399155 C62.55328,957.479661 62.3169654,957.691636 62.3296548,957.924831 Z M64.5328313,958.608812 C64.7953569,958.828901 65.1939299,958.901917 65.5284316,958.790832 C65.8130077,958.678708 66.0832302,958.449882 66.2209417,958.152616 C66.3927691,957.822067 66.3322343,957.42183 66.1541662,957.102514 C65.8941369,956.699573 65.399041,956.442456 64.9141383,956.584119 C64.5292949,956.711222 64.2087307,956.972499 64.1028468,957.369824 C63.9786568,957.867208 64.1371707,958.352527 64.5328313,958.608812 Z M64.565907,956.495501 C64.6846884,956.348013 64.6882248,956.131044 64.6578534,955.931134 C64.5627867,955.629708 64.2653131,955.50843 63.9655513,955.503854 C63.7985085,955.550867 63.6312576,955.615146 63.5453439,955.780109 C63.4590142,955.962545 63.422194,956.194284 63.4858492,956.378592 C63.5667703,956.529617 63.714675,956.648815 63.8636198,956.717671 C64.1446595,956.821682 64.379726,956.692708 64.565907,956.495501 Z M60.203655,957.641711 C61.1674277,957.757164 61.8942617,957.052588 62.7427894,957.066526 C62.3144691,956.792975 61.7530137,956.501326 61.25875,956.177434 C60.5163142,955.766379 59.8772662,955.123587 58.9794369,955.043082 C58.6459753,955.087807 58.3928107,955.316633 58.2053816,955.59684 C58.1356937,955.795503 58.0805675,956.127508 58.2440739,956.312649 C58.537179,956.733688 59.1200607,956.709766 59.5856173,956.733688 C59.6295102,957.117284 59.822972,957.502751 60.203655,957.641711 Z M61.5015134,955.565221 C62.0783624,955.923853 62.6223438,956.265636 63.1669492,956.55666 C62.7109618,955.917404 62.8911101,955.038297 62.4519726,954.398209 C62.189863,954.110929 61.8418398,954.022935 61.4588686,954.03292 C61.329478,953.798269 61.3169966,953.531999 61.1374723,953.312326 C60.9596122,952.976369 60.629479,952.805165 60.2290338,952.8657 C59.9943834,952.961807 59.7584848,953.157765 59.6881728,953.389295 C59.4204466,954.534048 60.7434759,955.070333 61.5015134,955.565221 Z M58.1494233,954.913483 C58.501607,954.735831 58.856495,954.425044 58.9792289,954.011077 C59.0347711,953.662222 59.0079361,953.245551 58.7963762,952.943293 C58.4387839,952.404304 57.7258875,952.210426 57.1394693,952.467751 C56.7211341,952.610663 56.480659,953.072891 56.3747751,953.470632 C56.3015508,953.885431 56.4789948,954.237823 56.6903467,954.557555 C57.0498112,954.978802 57.5985771,955.038297 58.1494233,954.913483 Z M55.478818,953.273634 C55.7111802,953.326888 55.8971532,953.147156 56.0161426,952.981985 C56.0696047,952.766889 56.1072569,952.467959 55.9102587,952.298628 C55.762146,952.196073 55.6138252,952.110367 55.4134986,952.140946 C55.2464558,952.171318 55.1116566,952.285731 54.9937073,952.383918 C54.9246435,952.532654 54.8378977,952.747543 54.9523106,952.882342 C55.0492496,953.083709 55.2458317,953.270098 55.478818,953.273634 Z M57.0666611,951.800412 C57.2815494,951.887366 57.5318016,951.858034 57.7009247,951.693904 C57.8199141,951.529357 57.890018,951.297827 57.810137,951.096669 C57.6645206,950.82811 57.3169133,950.689151 57.0487711,950.801899 C56.8811042,950.899254 56.7130212,950.996401 56.7263347,951.212538 C56.7221743,951.479432 56.8856807,951.664781 57.0666611,951.800412 Z M52.846073,950.286209 C52.7431014,950.501097 52.8223584,950.752182 52.9858648,950.921097 C53.7609602,951.382285 54.7598889,951.365227 55.5526663,951.760679 C55.1613742,951.238124 54.7534402,950.732627 54.4628314,950.145377 C54.0403357,949.506121 53.9381962,948.57272 53.1782865,948.210759 C52.8978709,948.073463 52.6286885,948.252156 52.394038,948.348471 C52.1737412,948.594978 51.9526123,948.890996 52.1138304,949.226122 C52.3241422,949.612213 52.685895,949.90095 53.1343936,949.941306 C53.0655378,950.106477 52.8822691,950.120414 52.846073,950.286209 Z M56.3964095,948.894116 C56.2847009,948.60954 56.0184309,948.605379 55.8043747,948.451858 C55.9420863,948.154593 55.9327252,947.704638 55.7877329,947.403004 C55.4944198,946.99923 54.8108547,947.054981 54.539176,947.416733 C54.3361451,947.613524 54.3309445,947.946361 54.3767097,948.212839 C54.7919245,949.33471 55.3236325,950.458453 56.1744485,951.387277 C56.0716849,950.503178 56.5996484,949.745764 56.3964095,948.894116 Z M52.9095202,947.324579 C53.474928,947.350166 54.0291025,947.025649 54.2866355,946.530969 C54.4927868,946.134269 54.4183144,945.567405 54.2246445,945.181521 C54.0628023,944.896321 53.767617,944.608625 53.4526695,944.537065 C52.9059838,944.362325 52.3208138,944.5354 51.9484518,944.929605 C51.559864,945.289485 51.4828953,945.95412 51.6584671,946.439855 C51.8664905,946.975308 52.3780202,947.249483 52.9095202,947.324579 Z M50.8496718,944.928773 C51.0310683,945.048178 51.2303548,945.08479 51.4315135,944.988059 C51.66658,944.858669 51.737724,944.559739 51.675317,944.293053 C51.6106217,944.17552 51.4966248,944.023871 51.3639058,943.988091 C51.1985272,943.935669 51.0310683,943.98289 50.8808754,944.013678 C50.76251,944.128715 50.6270867,944.276619 50.6241744,944.459472 C50.6549619,944.626099 50.6682754,944.826425 50.8496718,944.928773 Z M53.820663,944.409546 C53.9710639,944.362325 54.1555807,944.28182 54.2414944,944.117065 C54.343842,943.935253 54.3147187,943.685 54.2005138,943.533975 C54.0542733,943.314719 53.7561757,943.210707 53.5055074,943.273114 C53.2209313,943.401464 53.182447,943.71766 53.1943043,944.017006 C53.307053,944.268714 53.5543929,944.405178 53.820663,944.409546 Z M50.3235805,941.35909 C49.8041459,942.632402 51.4637571,942.941525 51.9977533,943.898433 C52.0039941,943.515669 51.9619733,942.999147 51.8519289,942.598078 C51.684678,941.580011 51.9363864,940.40239 51.4506516,939.528692 C51.2530293,939.39306 51.0391812,939.240163 50.7558533,939.268662 C50.5544865,939.348335 50.3034022,939.44465 50.1671469,939.659122 C49.9803418,939.888988 50.0244428,940.255526 50.1201336,940.523668 C50.0822733,940.82239 50.9434904,941.085123 50.3235805,941.35909 Z M52.8891339,943.329488 C53.1337695,942.568122 54.3841985,942.438108 54.1661899,941.486192 C54.1193847,941.285034 53.9215544,941.165628 53.7736497,941.047471 C53.7753139,940.930354 53.8926391,940.882092 53.9775127,940.783697 C54.1813757,940.520339 54.3548672,940.073921 54.1437234,939.737963 C53.9966508,939.552198 53.8335604,939.349791 53.6018223,939.279688 C53.2371572,939.174428 52.9182572,939.335646 52.6975443,939.615229 C52.1614678,940.904767 52.6530273,942.460574 52.7322842,943.760305 L52.8891339,943.329488 Z M51.063728,936.62718 C50.824085,937.039483 50.7154967,937.603851 50.8910685,938.072319 C51.099092,938.591754 51.6093735,938.96578 52.1747813,938.991159 C52.7401891,939.033388 53.2107382,938.724473 53.5335906,938.313627 C53.7567998,937.867832 53.8333524,937.252915 53.5739471,936.816274 C53.3628033,936.463466 53.0505601,936.225695 52.7027449,936.103793 C52.0896997,935.927389 51.4706219,936.134165 51.063728,936.62718 Z M54.5766202,936.549172 C54.6458921,936.383585 54.716412,936.134997 54.6022071,935.966914 C54.4726085,935.748489 54.1913608,935.627628 53.9246747,935.673393 C53.6733824,935.769292 53.5866366,936.001238 53.5494004,936.250034 C53.5787317,936.500078 53.7422381,936.685635 53.9908262,936.756363 C54.2396222,936.810241 54.4407809,936.71351 54.5766202,936.549172 Z M50.8877401,935.093007 C50.7858086,935.241328 50.7159128,935.43999 50.7964178,935.607657 C50.877339,935.758682 50.9580521,935.926349 51.1569225,935.979395 C51.3886606,936.066141 51.5740095,935.919276 51.7587344,935.805696 C51.9116316,935.608489 51.9164162,935.309144 51.7699677,935.106737 C51.5579917,934.820705 51.0916031,934.846708 50.8877401,935.093007 Z M53.4291628,935.432502 C54.0496968,935.126083 54.9793537,935.273988 55.274747,934.49598 C55.3956086,934.198714 55.1499329,933.961776 55.1039597,933.711107 C55.6358757,933.736278 56.1228587,933.477497 56.3466919,932.998419 C56.3512684,932.699073 56.3903768,932.349802 56.1101692,932.162789 C55.7835724,931.774617 55.1170652,931.814141 54.7632173,932.091437 C53.8809898,933.159637 53.4283307,934.417555 52.9923135,935.675473 L53.4291628,935.432502 Z M51.6603393,932.542224 C51.2442924,933.584005 52.1469062,934.413811 52.3154052,935.34846 C52.783666,934.140676 53.3014364,932.950574 53.9356999,931.795627 C54.0409598,931.447604 53.9639911,931.063593 53.6850317,930.792954 C53.5215252,930.607397 53.2390294,930.586387 52.9727593,930.565377 C52.8061325,930.579314 52.6719574,930.660651 52.552968,930.808556 C52.1970398,931.219194 52.3195656,931.903384 52.4456279,932.354794 C52.145658,932.366444 51.8473524,932.295092 51.6603393,932.542224 Z M55.2737069,931.367099 C55.7548651,931.474439 56.1915064,931.231676 56.4794109,930.903415 C56.7512975,930.558304 56.7594105,930.025764 56.5827985,929.623446 C56.453616,929.355304 56.1586387,929.08425 55.860125,929.013105 C55.363157,928.855424 54.8441384,929.063447 54.5221181,929.441426 C54.2843473,929.720593 54.3107663,930.153698 54.3384334,930.536669 C54.4817615,930.938571 54.8928159,931.261423 55.2737069,931.367099 Z M57.8109691,929.842495 C57.9805082,929.662139 58.0181604,929.379851 57.9551293,929.145824 C57.8588145,928.927816 57.6266603,928.857712 57.4105239,928.837534 C57.2104053,928.884547 57.0082065,929.030995 56.9549525,929.246508 C56.9008664,929.511946 56.9632735,929.762822 57.1941795,929.899493 C57.3924259,930.002257 57.6424701,929.989776 57.8109691,929.842495 Z M73.8766213,954.182905 C73.9461011,954.051226 73.9336197,953.850899 73.785299,953.781419 C73.3740366,953.54032 72.8935024,953.44671 72.3944541,953.419875 C70.8473836,953.370365 69.1372227,953.168374 67.7461698,953.622281 C67.5776708,953.717764 67.3586221,953.846947 67.4366309,954.097823 C67.7628116,954.4213 68.2292003,954.414643 68.6596008,954.523023 C70.0387964,954.618506 71.5039056,954.632443 72.8697877,954.561299 C73.2371572,954.502637 73.6207524,954.47705 73.8766213,954.182905 Z M74.5262786,952.565314 C72.2750486,951.969119 69.4993915,951.777737 67.2700041,952.513308 C66.852917,952.554497 67.2448332,952.928731 67.2069729,953.144451 C69.3539831,952.357291 72.0942762,952.664333 74.3145107,953.143827 L74.5262786,952.565314 Z M75.7432158,950.093995 C75.8649096,949.863921 76.1856817,949.65361 76.2559937,949.455779 C75.9244043,949.415839 75.5749249,949.3915 75.2893086,949.519019 C74.5714197,949.620326 74.3719252,950.39875 74.2429506,950.995153 L73.4813767,950.8123 C73.5040513,950.513787 73.4936501,950.213609 73.2818822,950.009538 C73.1177517,949.889716 72.8689556,949.851232 72.668005,949.913015 C72.3819727,950.056967 72.3253903,950.355273 72.2034886,950.618839 C71.9886003,950.564961 71.7034001,950.658987 71.5064019,950.537709 C71.5631923,950.206536 71.5538313,949.839999 71.3930291,949.570192 C71.1972791,949.400029 71.0339806,949.246508 70.7672946,949.240683 C70.4845907,949.2515 70.2170725,949.312659 70.0288112,949.541485 C69.84055,949.787577 69.7506839,950.101692 69.8103866,950.435986 C69.6905651,950.599908 69.3924675,950.527308 69.175291,950.556016 C68.9464652,950.351736 69.1205808,949.988736 68.8247714,949.799226 C68.6945487,949.663387 68.4276546,949.691262 68.2604038,949.737651 C68.0916967,949.833966 67.9385915,949.997264 67.8682795,950.178869 C67.7648919,950.342999 67.8924103,950.628616 67.756779,950.725763 C66.7281029,951.370635 67.500078,949.879939 66.9174043,949.493016 C66.808816,949.116493 65.9380298,948.96526 65.5192786,949.089242 C66.1177621,949.917592 66.6232591,950.818333 66.8356511,951.788555 L66.985636,951.791675 C69.3849786,950.876996 72.437931,951.340056 74.8395619,951.92273 C75.1351632,951.313221 75.3157276,950.634648 75.7432158,950.093995 Z M70.3466711,948.666538 C70.983847,948.44645 71.418616,948.746627 71.843608,949.138752 C72.1223594,949.727458 72.1702048,949.436849 72.7324922,949.215512 C72.5904122,948.846687 72.0227162,948.51801 71.8573375,948.473077 C71.6984076,948.120269 71.6426573,948.010848 71.4475313,947.757476 C71.0886908,947.416733 70.789137,947.426719 70.372674,947.434831 C69.7560925,947.471652 69.4927348,948.115692 69.3494066,948.612244 C69.1457516,948.791352 68.8272677,948.900773 68.7390658,949.131471 L69.2649491,949.4589 C69.5382919,949.115037 69.911486,948.790104 70.3466711,948.666538 Z M63.324423,943.479473 C63.2131304,943.227973 62.9150328,943.155165 62.6674849,943.066339 C61.4736382,942.841881 60.1112926,942.713323 58.9087089,942.904912 C58.4063322,943.060514 57.5669576,942.992906 57.4966456,943.557066 C57.5906722,943.842266 57.8887699,943.915074 58.1198839,944.019918 C59.6952456,944.302622 61.524604,944.374182 63.0155081,943.922771 C63.1835911,943.84289 63.3371124,943.6798 63.324423,943.479473 Z M57.269484,941.688599 L57.1509106,941.802388 L57.3358435,942.505299 C59.1776832,941.978168 61.5083781,941.97692 63.3441852,942.53151 C63.3997275,942.26628 63.555329,941.986697 63.4945862,941.718971 C61.5932517,941.096356 59.1631216,941.095732 57.269484,941.688599 Z M65.4922355,938.515201 C65.097199,938.323612 64.5634108,938.379154 64.2255806,938.605067 C63.7344372,938.994071 63.7225799,939.576537 63.7098905,940.175437 C63.4610944,940.136952 63.2131304,940.04875 62.9813923,939.993832 C63.1188958,939.780192 63.1586283,939.481054 63.1143193,939.21416 C63.0009465,939.061887 62.8218383,938.874666 62.6050779,938.887147 C62.4045432,938.93312 62.1867427,938.995111 62.0827309,939.192318 C61.9793433,939.356864 61.8911413,939.588186 61.9870401,939.773327 C61.7702797,939.801618 61.4709339,939.778944 61.2733116,939.691574 C61.3442476,939.477102 61.3843962,939.144472 61.2558377,938.925216 C61.1295674,938.59009 60.7497166,938.44905 60.4349771,938.375618 C60.1347992,938.419511 59.8344133,938.446554 59.6293022,938.708455 C59.4580989,938.937905 59.317267,939.301114 59.4439533,939.603372 C59.1768511,939.647681 58.9085009,939.741916 58.626005,939.719241 C58.6307896,939.486463 58.6867479,939.204591 58.5240735,939.017994 C58.3770009,938.898173 58.2130784,938.762125 57.9956939,938.807474 C57.828027,938.870505 57.6424701,938.999688 57.5888,939.165067 C57.4668983,939.428632 57.6108505,939.714249 57.6728415,939.915407 C57.4729309,939.927889 57.3192016,940.124471 57.1041053,940.053535 C57.128028,939.704679 57.136349,939.321916 56.9424711,939.035052 C56.6855621,938.596955 56.1546862,938.50272 55.6697836,938.60902 C56.2351913,939.419687 56.6325161,940.32667 56.9961412,941.233028 C59.024786,940.543638 61.6893586,940.482687 63.7573198,941.09178 C64.1273936,940.100756 64.6944655,939.26367 65.4922355,938.515201 Z M59.0168811,938.529347 C59.2405063,938.184444 59.6295102,937.893003 60.0470133,937.834965 C60.7655264,937.700373 61.3405032,938.061918 61.7632069,938.55327 L62.2169061,938.346702 C62.3517053,938.266197 62.5516158,938.253716 62.5722101,938.071071 C62.3623145,937.767149 62.0136671,937.709942 61.6643957,937.702662 C61.6019887,937.501503 61.5730734,937.300968 61.4268329,937.131429 C61.1356001,936.725991 60.7074878,936.500494 60.2078154,936.506735 C59.8242202,936.548755 59.4551865,936.690628 59.2646371,937.052796 C59.060566,937.248338 59.1498081,937.749675 58.7849349,937.69226 C58.5338506,937.753419 58.1656491,937.862216 58.1425585,938.161353 C58.492662,938.135558 58.7714134,938.340878 59.0168811,938.529347 Z M83.0552406,943.759889 C83.1586283,943.595758 83.0465036,943.393768 82.9150328,943.291004 C81.3452877,942.741614 79.2831511,942.665269 77.6435102,943.063426 C77.5255609,943.127914 77.340628,943.223812 77.3042239,943.372965 C77.2674038,943.53876 77.3298108,943.722861 77.4949814,943.809815 C78.7809825,944.402681 80.4476665,944.28806 81.8982141,944.168239 C82.3153012,944.127258 82.7816898,944.120186 83.0552406,943.759889 Z M83.1132792,942.596206 C83.2018972,942.331392 83.3574987,942.051808 83.3131897,941.767648 C81.3947973,941.19496 78.8512944,941.024796 76.9722185,941.734989 C77.0672852,941.970055 77.0104948,942.301644 77.1567353,942.471184 C79.0145928,941.977128 81.2772641,942.024973 83.1132792,942.596206 Z M83.9588946,940.34976 C84.255744,939.70676 84.8165753,939.136151 85.3110471,938.580313 C84.9480461,938.439689 84.4985074,938.430328 84.1783593,938.623165 C83.6383304,938.978054 83.5087318,939.607741 83.5617778,940.241588 L82.7831459,940.075169 C82.8715559,939.827205 82.9597579,939.596507 82.9659986,939.297162 C82.8680195,939.17838 82.7883465,939.009881 82.606118,938.989911 C82.357738,938.934577 82.1066536,938.995944 81.9520922,939.20896 C81.7490613,939.387652 81.8925975,939.6741 81.7892098,939.854664 C81.5568476,939.81722 81.3065954,939.844679 81.0925392,939.740252 C81.2000874,939.359569 81.1919745,938.959747 80.9148872,938.654993 C80.6513215,938.549525 80.4383054,938.361888 80.1219018,938.388515 C79.8210998,938.448634 79.4843098,938.60798 79.3282922,938.904621 C79.2076386,939.118261 79.2348897,939.401589 79.263805,939.618766 C78.980269,939.629791 78.7445784,939.774159 78.4629146,939.701975 C78.5328105,939.553446 78.4697794,939.385571 78.4726917,939.235795 C78.377625,939.000936 78.2149506,938.830773 77.9659466,938.792913 C77.7826779,938.805394 77.597537,938.884443 77.4949814,939.032556 C77.3562298,939.295705 77.3826488,939.628959 77.5438669,939.865898 C77.35831,939.978438 77.1409255,940.040221 76.9584889,940.036685 C77.0156954,939.671188 76.8727832,939.335646 76.7966467,939.001352 C76.5393216,938.579689 76.0255037,938.452586 75.5249992,938.525186 C76.0232154,939.367681 76.5037496,940.243252 76.817033,941.198912 C78.8292439,940.508274 81.4919443,940.530949 83.5761314,941.140873 C83.714675,940.8771 83.820767,940.596476 83.9588946,940.34976 Z M80.6251105,936.601385 C80.194918,936.492381 79.662794,936.481356 79.3393175,936.807537 C78.8849942,937.030954 79.1909967,937.77443 78.5217853,937.68914 C78.4146532,937.746763 78.0516522,937.879274 78.0131679,938.144712 C78.3285315,938.184444 78.6757226,938.274934 78.8698085,938.562215 C79.1435674,938.20171 79.5165535,937.876361 79.9837742,937.836213 C80.6513215,937.733865 81.2269224,938.078768 81.6157183,938.603195 C81.870547,938.341918 82.1711409,938.298233 82.4243055,938.120581 C82.2483176,937.800433 81.9000863,937.726584 81.533549,937.752379 L81.3598494,937.299096 C81.2329551,936.980404 80.8880522,936.773421 80.6251105,936.601385 Z M68.0912807,925.653168 C67.4135402,925.319574 66.7755323,925.70947 66.2835568,926.345045 C66.9579689,926.895716 67.5855757,926.095752 68.0912807,925.653168 Z M65.88644,925.186627 C65.1556536,925.101451 64.6940495,925.715458 64.1531885,926.1201 C65.0304234,926.364576 65.8073911,925.809304 66.4349979,925.215886 C66.2346713,925.246229 66.0863505,925.173623 65.88644,925.186627 Z M61.7365799,926.231416 L62.0353016,926.270732 C63.0627295,926.492069 63.7313169,925.55742 64.4573188,925.073349 L63.6591328,925.039649 C62.8578264,925.139501 62.3775002,925.828474 61.7365799,926.231416 Z M58.98963,926.240569 C59.3214275,926.297359 59.7534922,926.339588 60.0715601,926.246393 C60.8793152,925.830554 61.7089128,925.165503 62.4191049,924.631091 C60.9810387,924.151389 60.0834174,925.68057 58.98963,926.240569 Z M67.7856942,925.334161 C68.0182645,925.362351 68.3169862,925.413582 68.5352028,925.289435 C68.8204029,925.167185 68.9764205,924.781189 68.9497935,924.368358 C68.5449799,924.682792 68.173866,924.997769 67.7856942,925.334161 Z M58.8770893,924.456976 C57.6586959,925.413467 56.4575684,926.3373 55.3359059,927.445649 C55.8006303,927.505143 56.3019669,927.415693 56.6416692,927.090137 C57.8271949,926.116171 59.0988423,925.010942 60.3309653,924.187793 C59.8165233,924.12705 59.2669253,924.132251 58.8770893,924.456976 Z M66.1803771,924.659798 C67.1564232,924.946663 67.9691709,924.297838 68.6296454,923.762385 C67.6213557,923.424971 66.9221888,924.20922 66.1803771,924.659798 Z M64.255328,924.386456 C65.4136027,924.710348 66.2968703,923.879918 67.1237636,923.331361 C65.9492631,922.973976 65.0818052,923.870973 64.255328,924.386456 Z M63.4823128,923.937749 C64.2226683,923.55353 64.9478381,923.102743 65.6395161,922.667558 C65.390304,922.645715 65.2114038,922.442476 64.9274518,922.503011 C63.953902,922.88203 62.9957459,923.328032 62.1661483,923.993083 C62.5965489,924.102088 63.0627295,924.111657 63.4823128,923.937749 Z M60.1764039,923.635283 C60.540653,923.709339 60.9236242,923.717452 61.2758079,923.574956 C62.2547663,922.946309 63.297588,922.41897 64.3075419,921.890798 L63.5777956,921.759119 C62.3071883,922.015196 61.205704,922.95775 60.1764039,923.635283 Z M64.4866501,921.23386 L64.5634108,921.32331 C65.1088483,921.678614 65.6045682,922.016652 66.1843296,922.272521 C69.2626608,923.902177 73.7108266,923.499444 76.3464839,921.313533 C75.9321011,921.142954 75.5014926,920.955109 75.0525779,920.917248 C72.6058059,922.556057 68.7274165,922.581852 66.196603,921.074098 C65.9313731,921.004826 65.8011504,920.737308 65.5009725,920.750621 L64.4866501,921.23386 Z M74.6850005,920.399478 C74.6038713,919.783312 74.2292211,919.061055 73.9916583,918.716152 C72.7932351,917.252915 71.3693145,916.776541 69.6874447,916.986853 C67.9891412,917.197165 66.6026648,918.773358 66.1479255,920.319597 C68.5557971,921.825687 72.2831615,921.955077 74.6850005,920.399478 Z" id="sasse"></path>
        </g>
    </g>
</svg>