<?xml version="1.0" encoding="UTF-8" standalone="no"?>
<svg width="87px" height="66px" viewBox="0 0 87 66" version="1.1" xmlns="http://www.w3.org/2000/svg" xmlns:xlink="http://www.w3.org/1999/xlink">
    <!-- Generator: Sketch 3.7.2 (28276) - http://www.bohemiancoding.com/sketch -->
    <title>sass</title>
    <desc>Created with Sketch.</desc>
    <defs>
        <linearGradient x1="50%" y1="0%" x2="50%" y2="100%" id="linearGradient-1">
            <stop stop-color="#18E98A" offset="0%"></stop>
            <stop stop-color="#1C9BE2" offset="100%"></stop>
        </linearGradient>
    </defs>
    <g id="iPhone" stroke="none" stroke-width="1" fill="none" fill-rule="evenodd">
        <g id="Main-Page---iPhone---1.0" transform="translate(-117.000000, -2722.000000)" fill="url(#linearGradient-1)">
            <g id="Tools---1-column" transform="translate(10.000000, 1453.000000)">
                <g id="sass" transform="translate(107.000000, 1269.000000)">
                    <path d="M74.8937705,37.4471501 C71.8519034,37.4643138 69.2178844,38.1948717 67.0087072,39.2826366 C66.1930109,37.6682378 65.3773147,36.2575932 65.2415353,35.2041555 C65.0885923,33.9806112 64.9016619,33.2327197 65.0885923,31.7714339 C65.2753527,30.3098083 66.1250363,28.2365804 66.1250363,28.0666437 C66.1078726,27.9137007 65.9379359,27.1659791 64.1877577,27.1489855 C62.4375796,27.1319918 60.9249729,27.4888589 60.7550362,27.947688 C60.5850995,28.4065171 60.2452261,29.4601247 60.0243083,30.5477197 C59.7184223,32.1451248 56.5236121,37.8040172 54.7052893,40.7779097 C54.1105108,39.62234 53.6007007,38.6027198 53.4985687,37.7868536 C53.3457956,36.5634792 53.1586953,35.8155878 53.3457956,34.354302 C53.532726,32.8926764 54.3824095,30.8196184 54.3824095,30.6496817 C54.3654159,30.4967387 54.1954791,29.7490171 52.445301,29.7320235 C50.6947829,29.7150298 49.1825161,30.0718969 49.0125794,30.530726 C48.8426427,30.9895551 48.6557123,32.0771501 48.2818515,33.1307577 C47.9248145,34.1843653 43.6763967,43.6328464 42.5718081,46.0969287 C42.011017,47.3544604 41.5183704,48.357087 41.1613334,49.0368338 C40.8044663,49.7165807 41.1443397,49.0878148 41.1103524,49.1557895 C40.8044663,49.7335743 40.6345296,50.0564541 40.6345296,50.0564541 L40.6345296,50.0736177 C40.3966182,50.4984595 40.1417131,50.9061377 40.0225875,50.9061377 C39.9376192,50.9061377 39.7676824,49.7675617 40.0565749,48.2043139 C40.6853407,44.9243654 42.2147711,39.8094404 42.1979473,39.62251 C42.1979473,39.5375416 42.4866698,38.6367071 41.2121445,38.1780479 C39.9716065,37.7192188 39.529941,38.483934 39.427809,38.483934 C39.325847,38.483934 39.2408786,38.7558328 39.2408786,38.7558328 C39.2408786,38.7558328 40.617366,32.9951482 36.6068596,32.9951482 C34.0917963,32.9951482 30.6250874,35.7311292 28.9087266,38.2291989 C27.8211317,38.8239774 25.5099924,40.0813391 23.0629038,41.4240091 C22.1282518,41.9338192 21.1596126,42.4776167 20.2419543,42.9704331 L20.0551939,42.7661692 C15.195004,37.5830995 6.20535196,33.9124666 6.57921272,26.9450614 C6.71516209,24.4130044 7.59883299,17.7344917 23.8449525,9.64550423 C37.150997,3.0179725 47.8060287,4.8362953 49.658169,8.88078903 C52.292188,14.6586372 43.9652891,25.3986373 30.1326108,26.9450614 C24.8645728,27.5398399 22.0944344,25.5005994 21.3978639,24.7358842 C20.667136,23.9371816 20.565174,23.9031943 20.2932752,24.0561373 C19.8514398,24.2940487 20.1233385,25.0077829 20.2932752,25.4326247 C20.7011233,26.503226 22.4004905,28.4065171 25.2894145,29.3581627 C27.8213016,30.1908526 34.0071678,30.6496817 41.4843831,27.7607576 C49.8622629,24.5149664 56.4048263,15.5083208 54.4845415,7.98012446 C52.5302693,0.315978792 39.8190033,-2.19908453 27.8044779,2.06632691 C20.6499724,4.61537758 12.9008584,8.59189662 7.32693425,13.8089536 C0.699402522,19.9946499 -0.354205086,25.3986373 0.0876303624,27.6418019 C1.63422437,35.645821 12.662947,40.862878 17.0813015,44.7204414 C16.8603837,44.8392271 16.6564597,44.9581828 16.4695293,45.0603148 C14.2603521,46.1477398 5.84848487,50.5492706 3.74126965,55.2053665 C1.36215569,60.4734045 4.11513041,64.2631631 5.95044689,64.7729733 C11.626333,66.3533847 17.4381686,63.5154416 20.5819977,58.8421821 C23.7086633,54.1689225 23.3349724,48.1021819 21.8905104,45.3322135 L21.8393594,45.2302515 L23.5727139,44.2106312 C24.6944661,43.5478781 25.7990547,42.9361059 26.7675241,42.4091322 C26.2238965,43.8875816 25.8328721,45.6379297 25.629118,48.1869803 C25.3912066,51.1780364 26.6147509,55.0524235 28.2291497,56.5818539 C28.9428839,57.2444371 29.7925674,57.2616007 30.3193712,57.2616007 C32.1886751,57.2616007 33.0383586,55.7150067 33.9730105,53.8628665 C35.1285802,51.6027082 36.1482004,48.9856829 36.1482004,48.9856829 C36.1482004,48.9856829 34.8736751,56.0720437 38.3573777,56.0720437 C39.631903,56.0720437 40.9064283,54.4236576 41.4842132,53.5739741 L41.4842132,53.5909678 C41.4842132,53.5909678 41.5182005,53.5399867 41.5861752,53.421031 C41.7221246,53.2172769 41.7900992,53.0983212 41.7900992,53.0983212 L41.7900992,53.0643339 C42.2999094,52.180663 43.4384853,50.1584161 45.1378524,46.8106629 C47.3298661,42.4942705 49.4372512,37.0902831 49.4372512,37.0902831 C49.4372512,37.0902831 49.6411753,38.4157894 50.2699411,40.5909793 C50.6436319,41.8826682 51.4593282,43.292973 52.088094,44.6694604 C51.5782839,45.3831945 51.2723978,45.7912126 51.2723978,45.7912126 L51.2893914,45.8082063 C50.8817133,46.3520037 50.4227142,46.9299585 49.9470614,47.5075734 C48.2137069,49.5808012 46.140479,51.9430915 45.8685803,52.6228383 C45.5457006,53.4213709 45.6136752,54.0161494 46.2424411,54.4921421 C46.7012702,54.8320156 47.5169664,54.8998203 48.3836436,54.8320156 C49.9470614,54.7298836 51.0346563,54.3391991 51.5784538,54.1011178 C52.4281373,53.7952317 53.3967766,53.3364026 54.3314285,52.6566557 C56.0307956,51.399294 57.0674096,49.6149585 56.9654475,47.2358446 C56.9144665,45.9273319 56.4896247,44.6358129 55.9628209,43.4122686 C56.115764,43.1913508 56.268877,42.9702632 56.4216501,42.7325217 C59.1066501,38.8068138 61.179878,34.4905912 61.179878,34.4905912 C61.179878,34.4905912 61.383802,35.8160976 62.0125678,37.9912875 C62.3352777,39.0958761 62.9812071,40.3025967 63.5589919,41.4921537 C61.0439286,43.5483879 59.4635172,45.9275018 58.9197197,47.4909196 C57.9170931,50.3798437 58.698802,51.6883563 60.1772514,51.9942424 C60.8398346,52.1301918 61.7916501,51.8243057 62.5052144,51.5184196 C63.3888853,51.2295272 64.4594866,50.7365408 65.4452894,50.0059829 C67.1446565,48.7484512 68.7760489,46.9981031 68.6910806,44.6359828 C68.6400996,43.5483879 68.3512072,42.4777866 67.9603527,41.4581663 C70.1015553,40.5744954 72.8713537,40.0646853 76.3892136,40.4895271 C83.9513972,41.373198 85.4468403,46.0974385 85.1581178,48.0687044 C84.8692254,50.0401402 83.288814,51.1275652 82.7618403,51.4674386 C82.2350365,51.7903184 82.0650997,51.909444 82.1160808,52.1471855 C82.1840554,52.5042225 82.4219668,52.4870589 82.880796,52.4192541 C83.5095618,52.3171222 86.857315,50.8048554 86.9932644,47.1683797 C87.1971884,42.4944404 82.7618403,37.3963391 74.8937705,37.4471501 L74.8937705,37.4471501 L74.8937705,37.4471501 Z M16.5714913,57.1088276 C14.0734217,59.8448087 10.5557318,60.8814226 9.0602887,59.9977517 C7.44588995,59.0630998 8.07448584,55.0355997 11.1505102,52.129682 C13.0198141,50.3623402 15.449909,48.7309478 17.0473141,47.7283212 C17.4041812,47.5074034 17.9479787,47.1846936 18.5937382,46.7936692 C18.6957002,46.7258645 18.7636749,46.6917072 18.7636749,46.6917072 C18.8826306,46.6237325 19.01858,46.5387642 19.1545293,46.4537958 C20.2931053,50.6002516 19.2055103,54.2368972 16.5714913,57.1088276 L16.5714913,57.1088276 L16.5714913,57.1088276 Z M34.8396878,44.686454 C33.9730105,46.8106629 32.1376941,52.2656313 31.0331054,51.9597453 C30.0812899,51.7048402 29.503675,47.5753781 30.8460051,43.4968971 C31.525752,41.4404929 32.970214,38.9935742 33.8198976,38.0417587 C35.1965549,36.5123283 36.691828,36.0025182 37.0658587,36.631284 C37.5076941,37.4471501 35.3834852,43.3609477 34.8396878,44.686454 L34.8396878,44.686454 Z M49.913074,51.8917706 C49.5392133,52.0788709 49.1993398,52.2146503 49.0463968,52.1128582 C48.9274411,52.0448836 49.1991699,51.7899785 49.1991699,51.7899785 C49.1991699,51.7899785 51.0854674,49.7677316 51.8331889,48.8330797 C52.2580307,48.2894522 52.7678408,47.6606863 53.3116383,46.9467822 L53.3116383,47.1507063 C53.3118082,49.597625 50.9666816,51.2290174 49.913074,51.8917706 L49.913074,51.8917706 Z M61.5365751,49.2407579 C61.2646764,49.0368338 61.2988337,48.408068 62.216322,46.4368022 C62.573359,45.6550933 63.3888853,44.3465806 64.79936,43.1060426 C64.9692967,43.6158528 65.0714286,44.1084993 65.054265,44.5674983 C65.0374413,47.6263591 62.8622514,48.7649351 61.5365751,49.2407579 L61.5365751,49.2407579 Z"></path>
                </g>
            </g>
        </g>
    </g>
</svg>