<?xml version="1.0" encoding="UTF-8" standalone="no"?>
<svg width="87px" height="79px" viewBox="0 0 87 79" version="1.1" xmlns="http://www.w3.org/2000/svg" xmlns:xlink="http://www.w3.org/1999/xlink">
    <!-- Generator: Sketch 3.7.2 (28276) - http://www.bohemiancoding.com/sketch -->
    <title>sketch</title>
    <desc>Created with Sketch.</desc>
    <defs>
        <linearGradient x1="50%" y1="0%" x2="50%" y2="100%" id="linearGradient-1">
            <stop stop-color="#18E98A" offset="0%"></stop>
            <stop stop-color="#1C9BE2" offset="100%"></stop>
        </linearGradient>
    </defs>
    <g id="iPhone" stroke="none" stroke-width="1" fill="none" fill-rule="evenodd">
        <g id="Main-Page---iPhone---1.0" transform="translate(-117.000000, -1539.000000)" fill="url(#linearGradient-1)">
            <g id="Tools---1-column" transform="translate(10.000000, 1453.000000)">
                <g id="Sketch" transform="translate(107.000000, 86.000000)">
                    <path d="M74.4519234,6.69230774 L59.2393783,-7.10542736e-15 L27.698718,-7.10542736e-15 L12.5791218,6.8163013 L0,20.789468 L43.5000001,78.6346153 L87,20.789468 L74.4519234,6.69230774 L74.4519234,6.69230774 L74.4519234,6.69230774 Z M83.375,21.164609 L69.6185898,31.4584935 L59.8357373,16.8004808 L73.6772886,10.2862629 L83.375,21.164609 L83.375,21.164609 L83.375,21.164609 Z M64.5683142,33.0278397 L21.6260065,33.0278397 L30.1724551,17.8461539 L55.7692308,17.9080578 L64.5683142,33.0278397 L64.5683142,33.0278397 L64.5683142,33.0278397 Z M30.5161794,2.26516028 L56.7184231,2.26516028 L69.6185898,7.95417954 L56.6632114,13.5972821 L30.4609682,13.5972821 L17.6362757,7.95882697 L30.5161794,2.26516028 L30.5161794,2.26516028 L30.5161794,2.26516028 Z M13.2931538,10.2862629 L26.2734424,16.7926732 L16.9785705,31.1688656 L3.59544231,21.164609 L13.2931538,10.2862629 L13.2931538,10.2862629 L13.2931538,10.2862629 Z M8.58269873,28.7438336 L17.0402885,35.8746732 L37.1618271,68.9869103 L8.58269873,28.7438336 L8.58269873,28.7438336 L8.58269873,28.7438336 Z M22.7986474,37.7371794 L63.5720899,37.7371794 L43.5000001,74.7307694 L22.7986474,37.7371794 L22.7986474,37.7371794 L22.7986474,37.7371794 Z M49.8086153,68.9869103 L69.9301539,35.8746732 L78.3877437,28.7438336 L49.8086153,68.9869103 L49.8086153,68.9869103 L49.8086153,68.9869103 Z" id="sketch"></path>
                </g>
            </g>
        </g>
    </g>
</svg>