<?xml version="1.0" encoding="UTF-8" standalone="no"?>
<svg width="87px" height="88px" viewBox="0 0 87 88" version="1.1" xmlns="http://www.w3.org/2000/svg" xmlns:xlink="http://www.w3.org/1999/xlink">
    <!-- Generator: Sketch 3.7.2 (28276) - http://www.bohemiancoding.com/sketch -->
    <title>slack</title>
    <desc>Created with Sketch.</desc>
    <defs>
        <radialGradient cx="50%" cy="0%" fx="50%" fy="0%" r="100%" id="radialGradient-1">
            <stop stop-color="#18E98A" offset="0%"></stop>
            <stop stop-color="#1C9BE2" offset="100%"></stop>
        </radialGradient>
    </defs>
    <g id="iPhone" stroke="none" stroke-width="1" fill="none" fill-rule="evenodd">
        <g id="Main-Page---iPhone---1.0" transform="translate(-117.000000, -2037.000000)" fill="url(#radialGradient-1)">
            <g id="Tools---1-column" transform="translate(10.000000, 1453.000000)">
                <g id="slack-1" transform="translate(107.000000, 584.000000)">
                    <path d="M48.6661555,33.5590439 L53.9442998,49.7985627 L37.7035808,55.0772849 C35.9786307,49.7683446 34.1449167,44.1246506 32.4264294,38.8355912 C37.7170577,37.1165559 43.3600046,35.2830845 48.6661555,33.5590439 Z M43.8759094,18.8206645 L41.3816813,11.1465537 C40,7.00000019 40.9999999,2.99999997 45.9999998,1 C50.9999997,-0.999999972 54.9999997,1.99999995 56.1220806,6.35720802 C56.1220806,6.35720802 57.0966344,9.35550331 58.615856,14.0297383 L66.7640054,11.3813448 C70.8350205,10.0588177 75.2070641,12.2865696 76.5295913,16.3568715 C77.8521182,20.4278867 75.6243664,24.7999301 71.5540645,26.1224572 C71.5540645,26.1224572 68.3516516,27.1629629 63.4064892,28.7697117 C65.124105,34.0547154 66.9577903,39.6970851 68.6835691,45.0078568 L76.7643964,42.3813448 C80.8346983,41.0588176 85.2067419,43.2865698 86.5292688,47.3568717 C87.851796,51.4278868 85.6247574,55.7999301 81.5537423,57.1224573 C81.5537423,57.1224573 78.3801294,58.1536174 73.4729207,59.7480503 C75.0921484,64.7325698 76.1458365,67.9780003 76.1561548,68.0145059 C76.9999998,71.0000002 76.9999998,75.0000002 71.9999998,77.0000002 C66.9999998,79.0000002 62.9999998,77.0000002 61.420749,72.8017114 L58.7345007,64.5368026 C53.4303491,66.2602066 47.7863101,68.0940439 42.4918532,69.8142938 C44.0995097,74.7622106 45.1447826,77.9792405 45.1561547,78.014169 C46.4686952,82.0545108 43.9613149,86.4229877 39.8482127,87.606414 C35.9048851,88.7420467 31.7967763,86.6048887 30.4207489,82.8020882 L27.7556642,74.6022946 C23.0013622,76.1470297 19.930723,77.1447095 19.8964446,77.1558183 C15.8568162,78.4683585 11.4883394,75.9609786 10.3041997,71.8478763 C9.16928032,67.9045484 11.3064385,63.7964397 15.1092388,62.4211257 L22.9665104,59.8672761 L17.6873122,43.6245144 C12.9720125,45.1565904 9.93072269,46.1447628 9.89676681,46.1558182 C5.85642514,47.4683584 1.48794835,44.9609785 0.304521999,40.8478763 C-0.831110763,36.9045483 1.30604738,32.7964397 5.10884778,31.4211257 L12.89812,28.8893779 L10.3816813,21.1469305 C9.05844089,17.0759153 11.2861928,12.7038719 15.357208,11.3813448 C19.4275099,10.0588177 23.7995533,12.2865696 25.1227938,16.3568715 C25.1227938,16.3568715 26.106577,19.384707 27.6381286,24.0984317 L43.8759094,18.8206645 Z M50.1133519,33.0888302 L55.3475708,49.3424574 L67.2781376,45.4646643 C65.5543901,40.2035437 63.6968482,34.535053 61.9613011,29.2392725 C58.5532399,30.3465968 54.4716615,31.6727563 50.1133519,33.0888302 Z M45.362877,18.3373553 L43,11.0000004 C42,6.99999989 43.1402319,3.25390044 46.9999998,2.00000001 C50.8590914,0.74542326 53.9999998,4.00000011 54.9999998,8.0000002 C54.9999998,8.0000002 55.8262998,10.5207781 57.1342649,14.5113001 L45.362877,18.3373553 Z M19.243629,43.1188425 L24.4419741,59.387706 L36.2487392,55.5501522 C34.5531851,50.2419434 32.7408059,44.5679255 31.0523993,39.2819982 C26.69624,40.6973766 22.626796,42.0195989 19.243629,43.1188425 Z M14.5276872,28.3597195 L12.3602191,21.5763602 C11.1113855,17.7342616 12.2138691,14.6080618 16.0559678,13.3599014 C19.8973932,12.1117411 23.023593,14.2142248 24.2724266,18.0556502 C24.2724266,18.0556502 25.0700242,20.5527447 26.337581,24.5211488 L14.5276872,28.3597195 Z M60.0979969,64.0937808 L61.9999997,70 C62.9999997,74 65.9999997,78 70.9999997,76 C75.9999997,74 74.9999997,70 73.9999997,66 C73.9923941,65.9695777 73.266463,63.74918 72.1024121,60.1933511 C68.6622051,61.3111309 64.5224197,62.6562147 60.0979969,64.0937808 Z M29.1578741,74.1466979 L31.2724733,80.7645974 C32.5711255,84.3535633 35.448232,87.3705471 39.169823,86.298772 C43.0516421,85.1818908 44.4180303,81.0590569 43.179295,77.2459069 C43.1692845,77.2151602 42.3103866,74.5266164 40.9636985,70.3108145 C36.6041859,71.7272862 32.535057,73.0494055 29.1578741,74.1466979 Z M84.548433,48.0782224 C83.2947002,44.2196461 79.1500779,43.1077752 75.2915016,44.3615083 L16.8434707,63.3588766 C13.2384812,64.6626506 11.212492,67.5570671 12.2883761,71.2952743 C13.4109202,75.1944246 17.5521612,76.5713777 21.3816595,75.3271122 C21.5277255,75.2797757 79.8317192,56.3358299 79.8317192,56.3358299 C83.6909717,55.0820968 85.8021661,51.9374748 84.548433,48.0782224 Z M74.5484967,17.0782053 C73.2947678,13.2196419 69.1501593,12.1077783 65.2909197,13.3615071 L6.84308383,32.358812 C3.23810636,33.6625817 1.21212389,36.5569851 2.28868066,40.2951799 C3.41054479,44.1943172 7.55177197,45.5712623 11.3819337,44.3270009 C11.527323,44.2796646 69.8317984,25.335782 69.8317984,25.335782 C73.6903618,24.0820532 75.8022253,20.9374449 74.5484967,17.0782053 Z" id="slack"></path>
                </g>
            </g>
        </g>
    </g>
</svg>