<?xml version="1.0" encoding="UTF-8" standalone="no"?>
<svg width="100px" height="97px" viewBox="0 0 100 97" version="1.1" xmlns="http://www.w3.org/2000/svg" xmlns:xlink="http://www.w3.org/1999/xlink">
    <!-- Generator: Sketch 3.7.2 (28276) - http://www.bohemiancoding.com/sketch -->
    <title>Combined Shape</title>
    <desc>Created with Sketch.</desc>
    <defs>
        <linearGradient x1="50%" y1="0%" x2="50%" y2="100%" id="linearGradient-1">
            <stop stop-color="#18E98A" offset="0%"></stop>
            <stop stop-color="#1C9BE2" offset="100%"></stop>
        </linearGradient>
    </defs>
    <g id="iPhone" stroke="none" stroke-width="1" fill="none" fill-rule="evenodd">
        <g id="Main-Page---iPhone---1.0" transform="translate(-110.000000, -3474.000000)" fill="url(#linearGradient-1)">
            <g id="CV" transform="translate(8.000000, 3093.000000)">
                <g id="SU" transform="translate(56.000000, 381.000000)">
                    <g id="Logo" transform="translate(46.000000, 0.000000)">
                        <path d="M79.7680591,9.14765519 C79.8432143,9.23523283 79.8078106,9.29486016 79.7245808,9.36318314 C79.5792392,9.4824378 78.7612268,10.6762266 78.6680591,10.8252949 C78.6059473,10.9240527 78.5966305,10.7513819 78.6314131,10.6488974 C78.725823,10.3706366 79.0015994,9.23212724 78.0444566,8.38181668 C77.3674379,7.78057444 76.3196119,8.130885 75.9357609,8.70045022 C75.4239597,9.45945643 75.4078106,10.1488974 75.9357609,12.1321272 C76.4854504,14.2010713 76.2575001,14.962562 75.499115,15.8377173 C74.8003572,16.6451707 73.1711647,17.0849223 71.7432143,16.0923757 C70.2742702,15.0712577 70.2134007,14.8346117 69.9842081,14.7433074 C69.8022206,14.6712577 69.809674,14.5252949 69.9916615,14.3116303 C70.2512889,14.0041769 71.1208541,12.8197049 71.2705435,12.5985869 C71.3724069,12.4482763 71.3929038,12.6215682 71.2897982,12.8439285 C71.1475622,13.1457918 70.6419721,14.6091459 71.8575001,15.4321272 C73.0351398,16.230885 73.7935249,15.7091459 74.1929038,15.2383384 C74.6345187,14.7165993 74.8842081,14.2116303 74.2655746,11.841444 C73.6115373,9.33585395 74.0630901,8.51908376 75.0078106,7.77933221 C75.9854504,7.01473593 77.2823448,6.96753097 78.341351,7.80045022 C78.9115373,8.24889743 79.1953883,8.56131979 79.4102951,8.76628873 C79.5314131,8.88305892 79.5960094,9.01597817 79.6575001,9.07622662 C79.7059473,9.12094711 79.7301709,9.10417693 79.7680591,9.14765519 Z M1.29228266,37.4327484 C1.32768639,37.3476552 1.42582304,37.3880279 1.54445658,37.4327484 C1.85128887,37.5470341 2.80408391,37.6961024 3.11588515,37.7079036 C3.3798603,37.7172204 2.93513981,37.9072825 2.79476714,37.9246738 C2.42209633,37.9700154 1.68110254,38.1917546 1.35004664,39.4277794 C1.11650627,40.3029347 1.64818328,41.0023136 2.32085409,41.1420651 C3.4109162,41.3681521 3.98172366,40.9538664 5.58296589,39.6700154 C7.2245808,38.3532453 8.33203422,38.1855434 9.37923919,38.48368 C10.3463199,38.7594564 11.4997361,40.0377173 11.120233,41.6805744 C10.7897982,43.109767 10.3960094,43.3762266 10.2829659,43.67809 C10.2146429,43.8606987 10.1326553,43.9234316 9.86184788,43.8495185 C9.51340068,43.7551086 8.20781061,43.5619409 7.97178577,43.5364751 C7.55004664,43.4911335 7.72768639,43.3296428 7.97178577,43.2985869 C8.64631993,43.2116303 10.1115373,43.0290216 10.4028417,41.5911335 C10.6208541,40.5165993 9.89849384,40.0079036 9.26433235,39.8538664 C8.59973608,39.6923757 7.87302801,39.7128726 5.99476714,41.2669098 C3.97116465,42.941444 3.10843173,42.9395807 2.01961186,42.4433074 C0.866816825,41.9178415 0.385450365,40.8774689 0.633276452,39.4762266 C0.790419309,38.5861645 1.18296589,37.799208 1.24694105,37.7072825 C1.29166155,37.6433074 1.26681683,37.494239 1.29228266,37.4327484 Z M63.3382454,96.4706366 C63.1972516,96.4706366 63.2239597,96.3501397 63.2034628,96.2650465 C63.2034628,96.2650465 62.846941,95.0718788 62.8115373,94.9811956 C62.7717858,94.8718788 62.8817237,94.8526241 62.9537733,94.9339906 C63.1407299,95.1439285 63.9109162,95.862562 65.0015994,95.5898912 C65.8686802,95.3724999 66.3506678,94.4445496 66.1332765,93.7923757 C65.8444566,92.9240527 64.9966305,92.5178415 63.1332765,91.6594564 C61.4531522,90.8861645 60.909674,90.104798 60.7556367,89.1402018 C60.5736491,88.004798 61.3053261,86.4103881 62.9165063,85.9134937 C64.3227174,85.4793322 64.6612268,85.5215682 64.9351398,85.3799533 C65.1488044,85.2700154 65.1792392,85.7122515 65.2090528,85.7954813 C65.3450777,86.1700154 65.7102951,87.3346117 65.7935249,87.556972 C65.8686802,87.7575931 65.7183696,87.8296428 65.615264,87.6072825 C65.4767547,87.3091459 64.4711647,86.1110092 63.1984938,86.5221894 C61.9438355,86.9277794 61.7612268,87.8221894 61.9345187,88.4141148 C62.1283075,89.0724999 62.2450777,89.5929968 64.604705,90.5867856 C66.9009783,91.5532453 67.3512889,92.541444 67.3599845,93.6526241 C67.3686802,94.8923757 66.3860715,95.8538664 65.0792392,96.1843012 C64.3755125,96.3619409 64.2407299,96.309767 63.9475622,96.3538664 C63.7798603,96.3793322 63.646941,96.3880279 63.5618479,96.3998291 C63.4984938,96.4116303 63.4512889,96.4706366 63.3382454,96.4706366 Z M80.8848292,11.7501397 C81.1394876,11.6358539 81.5680591,11.4110092 81.8295497,11.1917546 C81.9463199,11.094239 82.1767547,11.1917546 82.3171274,11.3333695 C82.4090528,11.4252949 84.4581212,13.4538664 84.8661957,13.8880279 C85.4146429,14.473121 87.2338976,16.1395807 87.4693013,16.3650465 C87.7009783,16.5867856 87.9220963,16.7153571 87.6891771,16.867531 C87.4550156,17.0197049 86.9512889,17.3079036 86.8009783,17.38368 C86.6637112,17.452003 86.6978727,17.3998291 86.6978727,17.2284005 C86.6978727,17.0513819 86.5779969,16.7967235 86.0680591,16.2662887 C85.5587423,15.7352328 84.9711647,15.1271583 84.8655746,15.041444 C84.7587423,14.9563508 84.720233,14.9395807 84.6314131,15.020326 C84.4823448,15.1544875 82.473028,17.1929968 82.0196119,17.6600775 C81.6059473,18.0874067 78.9842081,20.6606987 78.9065684,21.0638043 C78.8252019,21.4811956 78.9612268,21.5644254 79.0121584,21.6439285 C79.0767547,21.7433074 79.1289286,22.0613198 79.0009783,21.9339906 C78.8736491,21.8060403 78.0314131,20.8861645 77.8338976,20.7029347 C77.6084317,20.4936179 76.8208541,19.8246738 76.7009783,19.7190838 C76.599115,19.6290216 76.6655746,19.5420651 76.8705435,19.6271583 C77.0525311,19.7023136 77.3338976,19.8532453 77.762469,19.6408229 C78.3643324,19.3433074 80.6121584,17.0159782 80.9301709,16.6973446 C81.2494255,16.3793322 83.4233386,14.109767 83.4848292,14.0439285 C83.5842081,13.9377173 83.6208541,13.8867856 83.4773758,13.7116303 C83.3220963,13.520326 81.9891771,12.2526241 81.7146429,12.0712577 C81.4693013,11.9103881 81.3140218,11.8408229 81.1009783,11.8402018 C80.9264442,11.8395807 80.6972516,11.8352328 80.8848292,11.7501397 Z M6.09787273,28.0644254 C5.90967397,27.856972 5.45750005,27.4613198 5.19600937,27.2420651 C5.07923919,27.1439285 5.14507769,27.0134937 5.2488044,26.8426862 C5.31588515,26.730885 6.7556367,24.0911335 7.08048142,23.5929968 C7.5177485,22.9209471 8.81340068,20.7532453 8.9761336,20.4712577 C9.14756217,20.1737421 9.25936341,19.9774689 9.3935249,20.1035558 C9.59663049,20.294239 9.9556367,20.7209471 10.05191,20.8563508 C10.1649535,21.0165993 10.1003572,20.9377173 9.93017086,20.9377173 C9.75315223,20.9377173 9.53886651,21.2787111 9.14445658,21.8998291 C8.75004664,22.5209471 8.43762428,23.1638043 8.38048142,23.2867856 C8.29911496,23.4619409 8.41277956,23.5128726 8.51153732,23.5805744 C8.67799695,23.6929968 11.0568789,25.162562 11.6183696,25.4911335 C12.1320342,25.7917546 15.2599845,27.5724999 15.7134007,27.552003 C16.1382454,27.5327484 16.1357609,27.4588353 16.2134007,27.404798 C16.336382,27.3197049 16.5798603,27.2811956 16.4587423,27.4141148 C16.3171274,27.5700154 15.7792392,28.367531 15.6059473,28.6867856 C15.4084317,29.0501397 14.9456988,29.9072825 14.8829659,30.0370962 C14.8245808,30.1600775 14.8189907,29.9507608 14.8314131,29.7638043 C14.8456988,29.546413 14.9779969,29.3482763 14.65191,29.0818167 C14.0767547,28.6110092 11.3419721,27.009767 10.9568789,26.7756055 C10.5717858,26.5420651 7.89725161,25.0302639 7.70905285,24.9638043 C7.57178577,24.9159782 7.45377335,24.7501397 7.34756217,24.9495185 C7.21712738,25.1961024 6.22582304,26.7532453 6.14135099,27.2911335 C6.10284167,27.5358539 6.08420813,27.6252949 6.13079198,27.8439285 C6.1798603,28.0768477 6.18731372,28.1631831 6.09787273,28.0644254 Z M18.3456988,12.004798 C18.2512889,11.6178415 17.9779969,11.2594564 17.8332765,10.9718788 C17.7444566,10.7948602 17.7425932,10.7979657 17.973028,10.6134937 C18.0748914,10.5321272 20.4705435,8.76007755 20.9438355,8.39858687 C21.5947671,7.90169246 23.7916615,6.41846264 24.0550156,6.22653718 C24.3320342,6.0240527 24.6109162,5.91908376 24.6997361,6.16380426 C24.794146,6.42591606 25.0568789,7.05200302 25.1015994,7.21163034 C25.1674379,7.44765519 25.0693013,7.27125767 24.8997361,7.12094711 C24.7674379,7.00355581 24.5295497,7.02529494 23.9171274,7.43336947 C23.3134007,7.83647507 22.4475622,8.41411482 22.3295497,8.51784152 C22.1848292,8.6445496 22.2295497,8.62467382 22.283587,8.73150612 C22.4208541,9.00045022 23.9966305,11.3215682 24.4401088,11.9066614 C24.8028417,12.3855434 26.9873137,15.4774689 27.4028417,15.6575931 C27.683587,15.7799533 27.8531522,15.694239 27.9270653,15.6768477 C28.0550156,15.6476552 28.2158851,15.6948602 27.9984938,15.8172204 C27.815264,15.9209471 27.125823,16.38368 26.8935249,16.5420651 C26.6432143,16.7128726 26.0419721,17.1737421 25.8283075,17.3557297 C25.5736491,17.5724999 25.6444566,17.341444 25.762469,17.188649 C25.8612268,17.0613198 25.9599845,16.9377173 25.7966305,16.5563508 C25.4817237,15.8197049 23.8953883,13.541444 23.4897982,12.9756055 C23.2276864,12.609767 21.1500466,9.82653718 21.0165063,9.6513819 C20.9407299,9.55200302 20.9171274,9.51908376 20.7332765,9.6513819 C20.5326553,9.79486016 18.9345187,11.0147359 18.6953883,11.241444 C18.5115373,11.4159782 18.4090528,11.4588353 18.3935249,11.694239 C18.3829659,11.8352328 18.388556,12.1830589 18.3456988,12.004798 Z M91.5960094,21.3892701 C93.0711647,22.9315061 94.2537733,26.5762266 91.2140218,29.1103881 C88.6301709,31.2644254 85.3264442,30.3768477 83.9537733,28.8557297 C82.6798603,27.4439285 81.3761336,24.1488974 84.1736491,21.4178415 C86.8897982,18.7638043 90.1947671,19.9246738 91.5960094,21.3892701 Z M85.4245808,22.6563508 C83.2165063,24.8004502 83.4860715,27.2277794 84.6177485,28.3743633 C85.7314131,29.5016925 88.1711647,29.6979657 90.294146,27.6594564 C92.4537733,25.5867856 92.2475622,22.8470341 90.888556,21.6513819 C89.8910404,20.7737421 87.65191,20.4936179 85.4245808,22.6563508 Z M94.5693013,71.18368 C93.8848292,73.3799533 90.9506678,75.7495185 87.4326553,74.1768477 C84.5456988,72.8874067 83.8674379,69.6662887 84.5537733,67.7159782 C85.1848292,65.9221894 87.7978727,63.2793322 91.188556,64.5973446 C94.5252019,65.8929968 95.2630901,68.9563508 94.5693013,71.18368 Z M90.6910404,66.1358539 C87.6798603,65.0575931 85.7630901,66.4818167 85.2755125,67.9190838 C84.809674,69.2936179 85.3456988,71.3532453 88.3935249,72.4954813 C91.336382,73.599208 93.5494255,72.504798 94.0537733,70.5159782 C94.2425932,69.773121 94.2854504,67.4240527 90.6910404,66.1358539 Z M90.7432143,40.9346117 C90.4823448,40.9408229 89.673028,40.8445496 89.4121584,40.7917546 C89.1090528,40.7296428 89.0661957,40.7228105 88.9705435,40.5961024 C88.8904193,40.4905123 87.609674,38.9594564 87.609674,36.6116303 C87.609674,34.0426862 88.8289286,31.9333695 91.2804814,31.209767 C93.3984938,30.5843012 95.6183696,31.47809 96.9009783,33.1116303 C97.9227174,34.4134937 98.0450777,36.0929968 98.0786181,36.6265372 C98.1233386,37.3650465 98.1904193,37.8159782 98.2264442,38.0488974 C98.2910404,38.452003 98.2860715,38.562562 98.3705435,38.6693943 C98.4556367,38.7756055 98.3351398,38.87809 98.1811025,38.8961024 C97.9978727,38.9172204 97.4432143,38.9967235 97.1463199,39.067531 C96.9245808,39.120326 96.4693013,39.2445496 96.4078106,39.2594564 C96.0860715,39.3370962 96.0997361,39.252003 96.346941,39.0681521 C96.5301709,38.9333695 97.2456988,38.5762266 97.3661957,37.6600775 C97.473028,36.8532453 97.6015994,35.0718788 96.3158851,33.7606987 C95.362469,32.7898912 93.7668168,32.0134937 91.4755125,32.9538664 C89.6593634,33.699208 88.3966305,35.3221894 88.3829659,37.2352328 C88.3686802,39.1600775 89.5488044,40.3072825 90.646941,40.6979657 C90.9978727,40.8215682 91.1904193,40.9234316 90.7432143,40.9346117 Z M99.094146,42.17809 C99.0879348,42.5687732 99.2699224,44.3315061 99.3438355,44.6749844 C99.4338976,45.0892701 99.2494255,44.9010713 99.2214752,44.7501397 C99.1972516,44.6178415 99.0419721,44.3693943 98.7326553,44.3377173 C98.2512889,44.288649 96.1575001,44.4395807 94.430792,44.6575931 C95.2146429,45.4880279 97.8140218,47.3588353 98.1637112,47.604798 C98.5873137,47.9035558 99.0115373,48.1737421 99.1438355,48.1650465 C99.2338976,48.1588353 99.1873137,48.2346117 99.2289286,48.1178415 C99.2848292,47.9538664 99.4543945,47.4302639 99.4264442,48.2296428 C99.4189907,48.4221894 99.409674,48.9923757 99.4301709,49.1402018 C99.4506678,49.2892701 99.4978727,49.6861645 99.5102951,49.7724999 C99.5711647,50.204798 99.4972516,50.1147359 99.1804814,49.7252949 C98.7084317,49.146413 97.6922827,48.4265372 97.3245808,48.1631831 C96.9717858,47.9072825 94.7345187,46.2153571 94.7345187,46.2153571 C94.7345187,46.2153571 91.5233386,49.2656676 90.9146429,49.9315061 C90.7009783,50.1644254 89.8873137,51.0110092 89.6637112,51.5159782 C89.5593634,51.7488974 89.4767547,51.8606987 89.5146429,51.6389595 C89.5376243,51.4985869 89.6382454,50.6209471 89.6599845,50.2389595 C89.6804814,49.8998291 89.7171274,48.8575931 89.7220963,48.7551086 C89.7345187,48.5470341 89.8177485,48.7029347 89.9283075,48.7327484 C90.0910404,48.7749844 91.0022206,47.9246738 91.9929038,46.9495185 C92.7463199,46.2091459 94.0028417,44.8470341 94.0953883,44.7122515 C93.8270653,44.6830589 91.441351,44.9787111 90.9742702,45.08368 C90.5059473,45.1880279 90.0109162,45.3141148 89.8618479,45.48368 C89.7127796,45.6526241 89.6630901,45.7588353 89.6481833,45.8929968 C89.6338976,46.0209471 89.5053261,46.0843012 89.4842081,45.9147359 C89.4637112,45.7445496 89.4233386,44.8302639 89.4040839,44.5060403 C89.3848292,44.1662887 89.2742702,43.4240527 89.2525311,43.3178415 C89.2320342,43.2122515 89.3388665,43.120326 89.4015994,43.2687732 C89.4643324,43.4172204 89.5084317,43.4917546 89.6978727,43.5669098 C90.0581212,43.709767 90.5394876,43.7116303 94.0866926,43.299208 C97.6338976,42.8867856 97.9053261,42.7917546 98.2637112,42.6985869 C98.6394876,42.6004502 98.8736491,42.4600775 98.9177485,42.1420651 C98.941351,41.9575931 99.1003572,41.5998291 99.094146,42.17809 Z M99.1606056,54.3513819 C99.0929038,54.673121 98.8028417,56.4184626 98.8028417,56.7712577 C98.8028417,57.1271583 98.636382,57.1265372 98.5978727,56.8905123 C98.5419721,56.5488974 98.4109162,56.5072825 98.2655746,56.4178415 C98.1165063,56.3252949 97.6891771,56.1774689 96.5028417,55.9874067 C95.2748914,55.7911335 94.4742702,55.652003 94.4742702,55.652003 C94.4742702,55.652003 94.0935249,57.2693943 93.8811025,58.2513819 C93.6140218,59.4818167 93.3208541,61.1110092 93.3208541,61.1110092 C93.3208541,61.1110092 95.0494255,61.5998291 95.6842081,61.7774689 C96.3189907,61.9551086 97.2904193,62.356972 97.6009783,61.8302639 C97.8183696,61.462562 97.9537733,61.5420651 97.7488044,61.9383384 C97.6773758,62.0756055 97.2450777,63.7544875 97.1761336,64.0892701 C97.0488044,64.7128726 96.9661957,64.3184626 96.9916615,64.1724999 C97.0134007,64.0383384 97.1370032,63.7706366 96.5891771,63.5513819 C96.0394876,63.3321272 94.1860715,62.7141148 92.5568789,62.2476552 C90.9276864,61.7811956 89.0606056,61.1843012 88.3233386,61.246413 C87.9556367,61.2768477 87.8562578,61.3613198 87.7686802,61.4874067 C87.6463199,61.6619409 87.4239597,61.7122515 87.599115,61.4277794 C87.7655746,61.1582142 88.1804814,59.6551086 88.2506678,59.1861645 C88.3587423,58.456972 88.4724069,58.962562 88.4568789,59.1035558 C88.4376243,59.2718788 88.4873137,59.4861645 88.7966305,59.6600775 C89.5910404,60.1072825 92.5463199,60.8824378 92.5463199,60.8824378 C92.5463199,60.8824378 92.9220963,59.3898912 93.1736491,58.2433074 C93.4717858,56.8855434 93.6724069,55.5420651 93.6724069,55.5420651 C93.6724069,55.5420651 92.9239597,55.4246738 92.3947671,55.3315061 C91.8643324,55.2389595 89.8947671,54.9538664 89.6314131,55.0339906 C89.3842081,55.1103881 89.2456988,55.2973446 89.2078106,55.409767 C89.1680591,55.5321272 88.9252019,55.767531 89.0612268,55.3221894 C89.1568789,55.0072825 89.3512889,53.7973446 89.3848292,53.1054192 C89.415264,52.4830589 89.5786181,52.7544875 89.5860715,52.930885 C89.5910404,53.0656676 89.7351398,53.3016925 89.8686802,53.3600775 C90.5252019,53.6476552 91.6953883,53.8128726 94.0891771,54.167531 C96.4829659,54.5221894 98.2891771,54.7700154 98.6140218,54.6588353 C98.9562578,54.5420651 98.9332765,54.4116303 98.9997361,54.2638043 C99.0649535,54.1159782 99.2568789,53.8998291 99.1606056,54.3513819 Z M89.4196119,78.97809 C89.1488044,79.1650465 88.0972516,80.4433074 87.7779969,80.8811956 C87.5233386,81.2302639 87.5593634,80.9551086 87.6264442,80.8159782 C87.7475622,80.5631831 87.6724069,80.4861645 87.5767547,80.2687732 C87.4177485,79.9079036 86.1879348,78.9054192 84.6034628,77.5818167 C83.0407299,76.2768477 81.6227174,75.0693943 81.1960094,75.0488974 C80.9848292,75.0377173 80.7978727,75.0234316 80.3599845,75.4234316 C79.7003572,76.0271583 78.9214752,76.9892701 78.7425932,77.3041769 C78.4891771,77.7513819 78.5425932,78.1749844 78.5438355,78.3197049 C78.5463199,78.5575931 78.4736491,78.5259161 78.3910404,78.320326 C78.2978727,78.0892701 78.0717858,77.1613198 78.0599845,76.9911335 C78.0500466,76.8619409 78.0599845,76.7973446 78.1997361,76.6433074 C78.446941,76.373121 80.5227174,74.0209471 80.8270653,73.6811956 C81.1581212,73.3116303 81.6618479,72.7190838 81.7929038,72.4954813 C81.9891771,72.1575931 82.0537733,72.4029347 81.9904193,72.5724999 C81.9270653,72.7426862 81.7879348,72.9451707 81.8947671,73.2594564 C82.1022206,73.8737421 84.0612268,75.3240527 85.1910404,76.2321272 C87.4059473,78.0153571 88.4897982,78.9513819 88.8531522,78.9563508 C89.1332765,78.9600775 89.2084317,78.9072825 89.3407299,78.8010713 C89.4463199,78.7159782 89.7034628,78.7811956 89.4196119,78.97809 Z M76.6922827,78.8737421 C76.799115,79.1426862 77.8556367,80.9613198 78.9606056,82.8147359 C80.1034628,84.7284005 81.3394876,86.7215682 81.5102951,87.020326 C81.8463199,87.6041769 81.8562578,87.7457918 81.2773758,87.4588353 C80.4357609,87.0408229 77.0643324,85.3426862 76.5171274,85.0787111 C75.946941,84.8035558 73.2003572,83.4085248 73.2003572,83.4085248 C73.2003572,83.4085248 73.7972516,87.904798 73.8394876,88.1594564 C73.8817237,88.4141148 74.3742702,92.1600775 74.3984938,92.3488974 C74.4214752,92.5377173 74.4264442,92.8321272 74.0866926,92.5141148 C73.746941,92.1961024 68.4239597,85.404798 68.1568789,85.0979657 C67.9022206,84.8054192 67.6425932,84.673121 67.3779969,84.6402018 C67.1655746,84.6141148 67.0612268,84.6252949 66.9606056,84.6638043 C66.825823,84.7159782 66.7214752,84.588649 66.9158851,84.5128726 C67.1550156,84.4197049 69.0543945,83.4408229 69.241351,83.3290216 C69.3587423,83.2582142 69.5189907,83.3501397 69.3407299,83.4613198 C69.1040839,83.6072825 69.0686802,83.7116303 69.1189907,83.9284005 C69.236382,84.4470341 73.0897982,89.2290216 73.0897982,89.2290216 C73.0897982,89.2290216 72.430792,84.9333695 72.325823,84.3811956 C72.2189907,83.8290216 71.8332765,81.3016925 71.8332765,81.3016925 C71.8332765,81.3016925 71.8357609,81.1370962 71.9960094,81.2240527 C72.1655746,81.3153571 75.9276864,83.2346117 76.3233386,83.4327484 C76.7015994,83.6215682 79.1401088,84.8197049 79.1401088,84.8197049 C79.1401088,84.8197049 77.0245808,81.3874067 76.1512889,80.0147359 C75.930792,79.6693943 75.7009783,79.5103881 75.5773758,79.4855434 C75.2792392,79.4252949 75.1842081,79.5544875 75.0146429,79.6252949 C74.9270653,79.662562 74.7879348,79.556972 75.0500466,79.399208 C75.3693013,79.2079036 75.7196119,78.9358539 75.9320342,78.7656676 C76.1444566,78.5954813 76.6929038,78.0756055 76.7773758,77.9905123 C76.8829659,77.8843012 77.0028417,78.0116303 76.904705,78.1041769 C76.6997361,78.2936179 76.5326553,78.4743633 76.6922827,78.8737421 Z M53.4419721,91.9439285 C53.420233,92.1209471 53.4773758,94.2016925 53.4978727,94.4638043 C53.5090528,94.5849223 53.4034628,94.5495185 53.3326553,94.2880279 C53.3084317,94.2016925 53.1686802,93.9190838 52.8897982,93.8619409 C52.0829659,93.6973446 50.5581212,93.820326 50.5581212,93.820326 C50.5581212,93.820326 50.5084317,96.2265372 50.7630901,96.5023136 C51.0022206,96.762562 51.0382454,96.7358539 51.1450777,96.756972 C51.2506678,96.77809 51.5090528,96.9128726 51.3388665,96.8985869 C51.0140218,96.8700154 49.2015994,96.8700154 48.7910404,96.9122515 C48.4947671,96.9433074 48.6432143,96.8054192 48.894146,96.7501397 C49.1488044,96.6929968 49.2711647,96.5557297 49.3686802,96.2408229 C49.4817237,95.8724999 49.4252019,93.8060403 49.4252019,93.8060403 C49.4252019,93.8060403 47.2109162,93.7867856 46.9338976,93.9333695 C46.7078106,94.0532453 46.6581212,94.2656676 46.636382,94.4358539 C46.615264,94.6054192 46.4320342,94.7606987 46.4556367,94.5271583 C46.4978727,94.109767 46.5264442,92.6165993 46.4767547,92.2768477 C46.4332765,91.9793322 46.5015994,92.0228105 46.6009783,92.1998291 C46.7214752,92.4159782 46.6811025,92.5433074 46.9407299,92.6457918 C47.2450777,92.7656676 49.4245808,92.730885 49.4245808,92.730885 C49.4245808,92.730885 49.4394876,90.6843012 49.3823448,90.3737421 C49.325823,90.0700154 49.1115373,89.8743633 48.8587423,89.8501397 C48.7102951,89.8364751 48.5786181,89.7079036 48.7699224,89.7296428 C49.4140218,89.8004502 50.6947671,89.7718788 51.2040839,89.7221894 C51.4661957,89.6936179 51.3109162,89.8358539 51.115264,89.8861645 C50.8966305,89.9426862 50.6848292,90.062562 50.5997361,90.3811956 C50.5146429,90.6998291 50.5283075,92.709767 50.5283075,92.709767 C50.5283075,92.709767 52.436382,92.7352328 52.7786181,92.6600775 C53.0699224,92.5961024 53.2252019,92.4190838 53.2879348,92.1507608 C53.3301709,91.9793322 53.462469,91.7669098 53.4419721,91.9439285 Z M36.1705435,96.830885 C35.799115,96.6029347 34.0854504,95.9551086 33.4102951,95.8439285 C33.1109162,95.7948602 33.3904193,95.7147359 33.5804814,95.730885 C33.8283075,95.752003 34.0401088,95.7874067 34.2208541,95.5917546 C34.694146,95.0787111 36.562469,90.3700154 36.8071895,89.262562 C37.062469,88.1085248 37.0984938,86.6246738 35.0134007,85.8793322 C32.8419721,85.1029347 31.9761336,86.2905123 30.7972516,88.5072825 C29.9345187,90.1290216 28.5630901,93.0091459 28.5630901,93.3339906 C28.5630901,93.5818167 28.6425932,93.673121 28.7823448,93.7867856 C28.9736491,93.9420651 29.088556,94.1961024 28.9022206,94.0488974 C28.4214752,93.6669098 26.8183696,92.9898912 26.5071895,92.8905123 C26.3208541,92.8315061 26.4705435,92.7271583 26.7053261,92.7774689 C26.9034628,92.8197049 26.988556,92.7700154 27.1755125,92.6402018 C27.6438355,92.3153571 30.0121584,87.5693943 30.325823,87.0538664 C30.904705,86.1004502 31.8034628,85.2029347 33.0599845,84.9824378 C34.4208541,84.7439285 36.5724069,85.4395807 37.6717858,86.9923757 C38.5873137,88.2849223 38.2724069,89.656972 38.1022206,90.3936179 C37.8953883,91.2917546 35.9432143,95.6526241 35.936382,96.2420651 C35.9338976,96.4799533 36.0357609,96.546413 36.1630901,96.6526241 C36.2904193,96.7588353 36.3612268,96.9470341 36.1705435,96.830885 Z M22.4910404,91.0110092 C22.4910404,91.0110092 22.0829659,86.5979657 21.9587423,85.0700154 C21.8146429,83.2892701 21.3699224,79.8557297 21.3699224,79.8557297 C21.3699224,79.8557297 17.9003572,83.604798 17.4506678,84.0613198 C17.0009783,84.5178415 16.5860715,84.9662887 16.588556,85.27809 C16.5904193,85.5892701 16.730792,85.6482763 16.7848292,85.762562 C16.8264442,85.8501397 16.9040839,86.1470341 16.8183696,86.0426862 C16.6432143,85.8296428 16.2612268,85.4346117 15.8674379,85.0743633 C15.5295497,84.7656676 15.1823448,84.4867856 14.9500466,84.3302639 C14.7140218,84.1706366 15.0071895,84.199208 15.1351398,84.2830589 C15.2630901,84.3669098 15.3550156,84.4128726 15.6140218,84.38368 C15.9463199,84.3457918 18.4407299,81.6054192 19.3680591,80.6364751 C20.2953883,79.6669098 22.3755125,77.3793322 22.5904193,77.0849223 C22.7444566,76.8743633 22.7419721,76.967531 22.7587423,77.1948602 C22.7798603,77.47809 23.1438355,82.0184626 23.2208541,82.541444 C23.2929038,83.0327484 23.5264442,86.1197049 23.5575001,86.4656676 C23.588556,86.8091459 23.6910404,87.9693943 23.6910404,87.9693943 C23.6910404,87.9693943 25.2860715,85.6749844 25.8183696,84.8501397 C26.3506678,84.0259161 27.4587423,82.5507608 27.4556367,82.1538664 C27.4531522,81.7389595 27.2332765,81.6172204 27.0997361,81.4861645 C27.0270653,81.4141148 26.9705435,81.2221894 27.1351398,81.3700154 C27.5034628,81.6998291 28.6357609,82.5165993 29.3338976,82.8370962 C29.6711647,82.9923757 29.1661957,82.8961024 29.0817237,82.8588353 C29.0276864,82.8352328 28.7109162,82.7650465 28.4376243,82.8606987 C28.0798603,82.9855434 26.0748914,86.056972 25.6779969,86.6433074 C25.2668168,87.2501397 24.0612268,88.9370962 23.7817237,89.3929968 C23.5022206,89.8470341 22.8525311,90.804798 22.7220963,91.0370962 C22.5860715,91.2799533 22.525823,91.2606987 22.4910404,91.0110092 Z M18.0208541,72.5190838 C18.1394876,72.7426862 18.4606056,73.2296428 18.8314131,73.694239 C19.1953883,74.1501397 19.5897982,74.5544875 19.8270653,74.7799533 C20.0158851,74.9594564 19.7550156,74.8892701 19.5798603,74.7582142 C19.3736491,74.604798 19.204705,74.5693943 18.6537733,74.8687732 C18.009674,75.2178415 12.3171274,80.0122515 12.099115,80.2849223 C11.8351398,80.6147359 11.8537733,80.7749844 11.9680591,81.0259161 C12.0531522,81.2147359 11.9935249,81.3855434 11.920233,81.2662887 C11.7003572,80.9091459 10.620233,79.4134937 10.2332765,79.1302639 C9.9798603,78.9445496 10.2438355,78.9898912 10.404705,79.0830589 C10.5779969,79.18368 10.6276864,79.1737421 10.820233,79.0929968 C11.4550156,78.8240527 17.8935249,73.6234316 17.9935249,73.2582142 C18.099115,72.8700154 17.9568789,72.8147359 17.9419721,72.699208 C17.9227174,72.5507608 17.899115,72.2905123 18.0208541,72.5190838 Z M13.0897982,33.8110092 C12.8444566,34.1880279 12.1084317,36.056972 11.9860715,36.594239 C11.9289286,36.8445496 11.8084317,36.5811956 11.8444566,36.3985869 C11.9059473,36.0849223 11.9525311,35.9184626 11.4301709,35.5724999 C10.7543945,35.1246738 4.03203422,32.5557297 3.35253111,32.5557297 C3.00408391,32.5557297 2.92582304,32.6954813 2.8003572,32.8532453 C2.69228266,32.9905123 2.46371123,33.0532453 2.60656838,32.8488974 C2.77054353,32.6159782 3.66184788,30.3973446 3.71029509,30.08368 C3.75750005,29.7818167 3.87675471,30.0874067 3.84383546,30.256972 C3.79414602,30.5116303 3.81153732,30.6954813 3.97116465,30.8296428 C4.61526403,31.3749844 11.8804814,34.1656676 12.4208541,34.07809 C12.7873137,34.0184626 12.7500466,33.8961024 12.8742702,33.77809 C13.0127796,33.6488974 13.2618479,33.546413 13.0897982,33.8110092 Z M10.5593634,70.9638043 L12.7140218,68.0849223 C12.7140218,68.0849223 8.93638204,68.2880279 8.13017086,68.3575931 C7.32395968,68.4265372 4.97054353,68.5259161 4.70843173,68.904798 C4.5314131,69.1619409 4.69725161,69.441444 4.71277956,69.5277794 C4.74445658,69.7004502 4.70470502,69.9768477 4.62892863,69.7693943 C4.58234478,69.6408229 4.28917707,68.8724999 4.05625782,68.3402018 C3.84818328,67.8650465 3.57116465,67.2855434 3.49911496,67.1743633 C3.38358701,66.9961024 3.5798603,67.0426862 3.69725161,67.1669098 C3.82085409,67.2985869 3.88855596,67.3867856 4.20781061,67.4693943 C4.73762428,67.6066614 8.25066776,67.4296428 8.93017086,67.4035558 C9.60967397,67.3774689 14.6034628,67.0526241 15.0189907,67.0898912 C15.2401088,67.1091459 15.4382454,67.0035558 15.1724069,67.4159782 C15.0220963,67.6488974 12.041351,71.5501397 11.8102951,71.8706366 C11.5792392,72.1911335 8.80843173,75.7762266 8.75687894,76.220326 C8.71277956,76.6016925 8.76743794,76.6967235 8.78855596,76.8023136 C8.81961186,76.9557297 8.80284167,77.373121 8.74321434,77.2302639 C8.48855596,76.6190838 7.40346279,74.967531 7.06619571,74.5265372 C6.8556367,74.2513819 7.13638204,74.4358539 7.30656838,74.4979657 C7.47675471,74.5613198 7.57861807,74.5190838 7.76681683,74.3936179 C8.30594726,74.0346117 10.2649535,71.3700154 10.5593634,70.9638043 Z M10.8742702,56.7706366 C11.0165063,57.17809 11.4568789,58.9656676 11.6773758,59.7488974 C11.7556367,60.0252949 12.246941,61.846413 12.3960094,62.1507608 C12.4686802,62.2998291 12.1425932,62.0693943 12.0773758,61.909767 C12.0357609,61.8072825 12.05191,61.7383384 11.8860715,61.6197049 C11.7947671,61.5544875 11.6668168,61.5346117 11.5537733,61.5209471 C11.099115,61.4638043 8.49041931,62.3315061 7.18917707,62.7302639 C5.85004664,63.1408229 3.29476714,63.9066614 3.03017086,64.2184626 C2.76619571,64.5302639 2.84694105,64.6656676 2.86992242,64.8259161 C2.89041931,64.9681521 2.78482925,65.4687732 2.72830751,65.1575931 C2.67364912,64.8582142 2.61464291,64.3296428 2.37923919,63.4830589 C2.16992242,62.7321272 1.30470502,59.6433074 1.25190999,59.5103881 C1.18420813,59.3383384 1.17427024,59.2737421 1.30097832,59.2271583 C1.42768639,59.1799533 2.2382454,58.8998291 2.45501558,58.7700154 C2.72582304,58.6072825 2.62147521,58.8426862 2.46805906,59.0010713 C2.3245808,59.1495185 2.24756217,59.230885 2.27675471,59.7165993 C2.3109162,60.2824378 2.99849384,62.4060403 2.99849384,62.4060403 C2.99849384,62.4060403 4.27364912,62.0700154 4.68793484,61.9190838 C5.09663049,61.7693943 6.4935249,61.3619409 6.4935249,61.3619409 C6.4935249,61.3619409 5.88855596,59.0669098 5.67427024,58.7867856 C5.47116465,58.5228105 5.33886651,58.5743633 5.1314131,58.5936179 C4.9798603,58.6066614 4.72147521,58.4948602 4.91402179,58.4563508 C5.34321434,58.3712577 6.52271745,58.0507608 7.09849384,57.7768477 C7.34321434,57.6600775 7.09725161,57.9613198 6.98545037,58.0265372 C6.86868018,58.0954813 6.68917707,58.1998291 6.6761336,58.5917546 C6.66557459,58.9165993 6.89104043,59.6874067 6.98793484,59.9606987 C7.0798603,60.2197049 7.33948763,61.1116303 7.33948763,61.1116303 C7.33948763,61.1116303 9.6488044,60.4488974 10.0332765,60.2613198 C10.4003572,60.0824378 10.7177485,60.0756055 10.6332765,59.3128726 C10.562469,58.6718788 10.1432143,57.1737421 9.81712738,56.6880279 C9.56805906,56.3165993 9.36371123,56.1861645 9.27799695,56.1184626 C9.19228266,56.0507608 8.89104043,55.7948602 9.07054353,55.852003 C9.34259322,55.9377173 10.4935249,56.3408229 10.6314131,56.4488974 C10.7531522,56.5445496 10.8102951,56.5874067 10.8742702,56.7706366 Z M22.204705,20.4476552 C21.930792,20.7370962 19.9022206,22.9321272 19.336382,23.5737421 C19.1463199,23.7892701 18.694146,24.3054192 18.562469,24.4606987 C18.4587423,24.5830589 18.4115373,24.3476552 18.4966305,24.1967235 C18.5811025,24.0457918 18.6693013,23.9805744 18.562469,23.6302639 C18.420233,23.1650465 16.0581212,21.2333695 15.0289286,20.3420651 C13.9252019,19.3867856 12.1444566,17.762562 11.7388665,17.7072825 C11.373028,17.6575931 11.2786181,17.7234316 11.1084317,17.8085248 C10.9792392,17.873121 10.6643324,18.0029347 10.8817237,17.7898912 C11.099115,17.5768477 11.4370032,17.2072825 11.9220963,16.68368 C12.4525311,16.1122515 14.615264,13.8631831 14.7015994,13.7476552 C14.8121584,13.599208 14.873028,13.5979657 14.9674379,13.6948602 C15.0779969,13.8072825 15.620233,14.373121 15.8357609,14.5066614 C16.1562578,14.704798 15.8674379,14.67809 15.6978727,14.6402018 C15.5456988,14.6060403 15.4649535,14.5488974 15.1084317,14.7563508 C14.5488044,15.0805744 13.225823,16.6669098 13.225823,16.6669098 L15.8121584,19.056972 C15.8121584,19.056972 17.6140218,17.3824378 17.646941,17.030885 C17.6742702,16.7370962 17.630792,16.662562 17.609674,16.5985869 C17.5649535,16.4600775 17.5817237,16.2234316 17.6947671,16.38368 C18.0252019,16.8557297 18.8891771,17.6234316 19.109674,17.7799533 C19.336382,17.9402018 19.0724069,17.9470341 18.9494255,17.8911335 C18.7606056,17.8060403 18.6879348,17.6712577 18.3357609,17.8439285 C17.9842081,18.0172204 16.5382454,19.7122515 16.5382454,19.7122515 C16.5382454,19.7122515 18.3817237,21.2948602 18.7276864,21.5476552 C19.1804814,21.8774689 19.5015994,21.9582142 19.9543945,21.5426862 C20.4320342,21.104798 21.4593634,20.1035558 21.7003572,19.5706366 C21.8842081,19.1631831 21.8134007,18.8774689 21.8233386,18.7687732 C21.8370032,18.6103881 21.9301709,18.4122515 21.9599845,18.5445496 C21.9897982,18.6768477 22.3655746,19.8538664 22.3897982,20.0352328 C22.4102951,20.1874067 22.3742702,20.2687732 22.204705,20.4476552 Z M10.1543945,51.8234316 C10.1736491,52.0408229 10.2276864,53.0787111 10.2960094,53.5408229 C10.3338976,53.7954813 10.1767547,53.4762266 10.1351398,53.3433074 C10.0972516,53.2209471 10.0786181,53.0824378 9.86309012,52.9700154 C9.50346279,52.7824378 6.99041931,52.9911335 5.52644415,53.1513819 C4.18607148,53.2979657 1.09290378,53.4563508 0.725823036,53.7917546 C0.458742291,54.0364751 0.50594726,54.3284005 0.499114962,54.4352328 C0.490419309,54.57809 0.246941049,55.041444 0.256257819,54.6917546 C0.262468999,54.47809 0.248183285,53.5501397 0.20284167,53.2296428 C0.152531111,52.87809 -0.0940527402,50.6451707 0.0388665145,49.8737421 C0.190419309,48.9929968 1.06184788,47.7662887 2.56371123,47.7010713 C4.13948763,47.6327484 4.90470502,48.9544875 5.06619571,49.2737421 C5.20967397,49.0830589 5.29414602,48.98368 5.71340068,48.667531 C6.22582304,48.2811956 9.57427024,46.3041769 9.8314131,45.7010713 C9.99663049,45.3147359 9.91588515,45.1228105 9.90905285,45.0377173 C9.8798603,44.6426862 9.96495347,44.3693943 10.15191,45.0358539 C10.2649535,45.4370962 10.3432143,46.5551086 9.86309012,47.2246738 C9.26619571,48.0594564 7.37489136,49.1880279 7.00159943,49.4426862 C6.56309012,49.741444 5.55004664,50.3010713 5.55439446,50.9035558 C5.55874229,51.4383384 5.63638204,51.7669098 5.63638204,51.7669098 C5.63638204,51.7669098 7.12395968,51.6153571 7.52706527,51.5700154 C7.92954974,51.5240527 9.50284167,51.4290216 9.71340068,51.1929968 C9.92395968,50.9557297 9.8761336,50.873121 9.89600937,50.752003 C9.91526403,50.6383384 10.1512889,50.1383384 10.1345187,50.7861645 C10.1295497,51.0246738 10.1357609,51.6066614 10.1543945,51.8234316 Z M4.09663049,49.3911335 C2.7003572,48.5706366 1.38048142,49.2954813 0.935760924,50.0265372 C0.49663049,50.7482763 0.73389757,52.1141148 0.73389757,52.1141148 C0.73389757,52.1141148 2.5314131,51.9954813 2.87054353,51.9737421 C3.21029509,51.9532453 5.07116465,51.8197049 5.07116465,51.8197049 C5.07116465,51.8197049 5.26433235,50.07809 4.09663049,49.3911335 Z M37.9680591,38.9054192 C38.6115373,38.9054192 39.094146,38.4079036 39.094146,37.8072825 C39.094146,37.2066614 38.6252019,36.6650465 37.9817237,36.6650465 C37.3388665,36.6650465 36.8171274,37.1793322 36.8171274,37.7799533 C36.8171274,38.3805744 37.3245808,38.9054192 37.9680591,38.9054192 Z M39.3127796,40.8184626 C39.9562578,40.8184626 40.4506678,40.3041769 40.4506678,39.7035558 C40.4506678,39.1035558 39.9568789,38.5749844 39.3127796,38.5749844 C38.6693013,38.5749844 38.1612268,39.1035558 38.1612268,39.7035558 C38.1612268,40.3041769 38.6693013,40.8184626 39.3127796,40.8184626 Z M36.7376243,40.8892701 C37.3811025,40.8892701 37.8891771,40.3749844 37.8891771,39.7743633 C37.8891771,39.1743633 37.3811025,38.6600775 36.7376243,38.6600775 C36.094146,38.6600775 35.6140218,39.1743633 35.6140218,39.7743633 C35.6140218,40.3749844 36.094146,40.8892701 36.7376243,40.8892701 Z M42.0450777,45.7476552 L33.8357609,45.7476552 C33.8357609,45.7476552 33.4320342,42.7178415 33.2444566,41.2961024 C33.0575001,39.8737421 32.6935249,37.5197049 32.6935249,37.5197049 C32.6935249,37.5197049 32.7786181,37.2650465 33.2599845,37.5197049 C33.741351,37.7743633 34.0904193,37.9911335 34.0904193,38.4445496 C34.0904193,38.973121 33.4345187,39.0228105 33.4109162,39.0532453 C33.325823,39.1613198 33.4326553,39.3799533 33.5904193,39.2749844 C33.788556,39.1426862 34.6189907,39.1582142 34.8643324,39.9445496 C35.0910404,40.6712577 34.7227174,40.9923757 34.609674,41.1054192 C34.4966305,41.2184626 33.9910404,41.430885 33.9910404,41.430885 C33.9910404,41.430885 34.3450777,42.6905123 35.6755125,42.6619409 C37.0059473,42.6333695 37.5630901,41.3600775 37.6761336,41.1333695 C37.7897982,40.9072825 37.9686802,40.3128726 37.9686802,40.3128726 C37.9686802,40.3128726 38.1382454,40.8221894 38.2798603,41.1619409 C38.4214752,41.5016925 38.7612268,42.662562 40.2332765,42.6339906 C41.7053261,42.6060403 42.1015994,41.3457918 42.1015994,41.3457918 C42.1015994,41.3457918 41.3090528,41.1905123 41.1388665,40.6526241 C40.9686802,40.1147359 41.0823448,39.4165993 41.6674379,39.1805744 C42.2407299,38.9488974 42.2239597,39.199208 42.4227174,39.199208 C42.620233,39.199208 42.6488044,38.9917546 42.4792392,38.9631831 C42.309674,38.9346117 41.8289286,38.7265372 42.0829659,38.0855434 C42.2997361,37.5383384 42.9618479,37.5153571 43.2618479,37.4818167 C43.4314131,37.462562 43.4494255,37.4389595 43.4314131,37.6234316 C43.3606056,38.3662887 42.4904193,44.0774689 42.0450777,45.7476552 Z M30.1556367,48.5712577 C30.7984938,48.5712577 31.3084317,48.0184626 31.3084317,47.4184626 C31.3084317,46.8178415 30.825823,46.262562 30.1829659,46.262562 C29.5394876,46.262562 28.9904193,46.7905123 28.9904193,47.3911335 C28.9904193,47.9917546 29.5121584,48.5712577 30.1556367,48.5712577 Z M31.5146429,50.4433074 C32.1581212,50.4433074 32.6661957,49.9563508 32.6661957,49.3557297 C32.6661957,48.7551086 32.1581212,48.2277794 31.5146429,48.2277794 C30.8711647,48.2277794 30.3630901,48.7557297 30.3630901,49.3557297 C30.3630901,49.8718788 30.9146429,50.4433074 31.5146429,50.4433074 Z M28.8786181,50.6321272 C29.5481833,50.630885 30.0283075,50.1439285 30.0301709,49.5035558 C30.0314131,48.9035558 29.5220963,48.3756055 28.8786181,48.3756055 C28.2351398,48.3756055 27.7270653,48.9041769 27.7270653,49.5035558 C27.7270653,50.1035558 28.2345187,50.6333695 28.8786181,50.6321272 Z M34.2456988,55.4290216 L26.1786181,55.4290216 C26.1786181,55.4290216 25.6972516,52.3861645 25.4456988,50.9631831 C25.1960094,49.5513819 24.699115,47.3190838 24.699115,47.3190838 C24.699115,47.3190838 24.8904193,47.0718788 25.4283075,47.2700154 C25.9394876,47.4582142 26.1997361,47.5321272 26.2276864,47.9843012 C26.2630901,48.5501397 25.7978727,48.5551086 25.7680591,48.5787111 C25.6127796,48.6985869 25.7512889,48.9954813 25.909674,48.8687732 C26.1929038,48.6426862 26.8792392,48.8973446 27.0562578,49.5277794 C27.1904193,50.0041769 26.8158851,50.4973446 26.7028417,50.6103881 C26.5891771,50.7234316 26.1438355,50.9004502 26.1438355,50.9004502 C26.1438355,50.9004502 26.4338976,52.6290216 27.920233,52.5985869 C29.3071895,52.5700154 29.8220963,51.1973446 29.9345187,50.9712577 C30.0481833,50.7445496 30.2270653,50.1501397 30.2270653,50.1501397 C30.2270653,50.1501397 30.3966305,50.7165993 30.5382454,51.0563508 C30.6798603,51.3961024 31.062469,52.3700154 32.5338976,52.3302639 C34.0767547,52.2880279 34.3171274,50.999208 34.3171274,50.999208 C34.3171274,50.999208 33.5289286,50.7383384 33.3407299,50.2072825 C33.1854504,49.7681521 33.5531522,49.0321272 33.9208541,48.8762266 C34.4904193,48.6352328 34.4916615,48.8756055 34.6848292,48.9184626 C34.9394876,48.9749844 35.0531522,48.7346117 34.7978727,48.5929968 C34.6475622,48.5091459 33.9345187,48.1544875 34.515264,47.5600775 C34.9568789,47.1072825 35.2904193,47.0979657 35.5904193,47.0644254 C35.7599845,47.0457918 35.7922827,47.0501397 35.7742702,47.2346117 C35.7040839,47.9768477 34.5997361,53.6880279 34.2456988,55.4290216 Z M22.0879348,38.8631831 C22.7314131,38.8631831 23.1997361,38.3929968 23.1997361,37.7923757 C23.1997361,37.1917546 22.7450777,36.6501397 22.1015994,36.6501397 C21.4581212,36.6501397 20.9500466,37.1644254 20.9500466,37.7650465 C20.9500466,38.3650465 21.4444566,38.8631831 22.0879348,38.8631831 Z M23.4040839,40.8470341 C24.0475622,40.8470341 24.5419721,40.3327484 24.5419721,39.7321272 C24.5419721,39.1315061 24.0338976,38.5898912 23.3904193,38.5898912 C22.7748914,38.5898912 22.225823,39.0631831 22.225823,39.7321272 C22.2252019,40.3321272 22.7599845,40.8470341 23.4040839,40.8470341 Z M20.8283075,40.9035558 C21.4506678,40.9035558 21.9525311,40.362562 21.9525311,39.8029347 C21.9525311,39.2023136 21.4724069,38.688649 20.8283075,38.688649 C20.1848292,38.688649 19.704705,39.2029347 19.704705,39.8029347 C19.704705,40.3495185 20.1910404,40.9035558 20.8283075,40.9035558 Z M26.4264442,45.6843012 L18.0755125,45.6843012 C18.0755125,45.6843012 17.583587,42.7395807 17.3966305,41.3178415 C17.2090528,39.8954813 16.7854504,37.562562 16.7854504,37.562562 C16.7854504,37.562562 16.873028,37.241444 17.3537733,37.4961024 C17.8351398,37.7507608 18.1109162,37.8290216 18.1320342,38.4582142 C18.1500466,38.9867856 17.5680591,39.0507608 17.5444566,39.0811956 C17.4593634,39.1892701 17.630792,39.5153571 17.7997361,39.4277794 C18.004705,39.3215682 18.7009783,39.2563508 18.9456988,40.0439285 C19.1724069,40.7700154 18.7829659,40.9706366 18.6699224,41.08368 C18.5562578,41.1973446 18.0543945,41.3600775 18.0543945,41.3600775 C18.0543945,41.3600775 18.2456988,42.7402018 19.6680591,42.6762266 C20.9972516,42.6165993 21.5717858,41.3954813 21.6848292,41.1687732 C21.7978727,40.9420651 22.0879348,40.2985869 22.0879348,40.2985869 C22.0879348,40.2985869 22.2748914,40.9631831 22.4699224,41.2749844 C22.6823448,41.6147359 23.1283075,42.4426862 24.2742702,42.5066614 C25.7444566,42.5880279 26.3332765,41.3811956 26.3332765,41.3811956 C26.3332765,41.3811956 25.5053261,41.1333695 25.3357609,40.5954813 C25.1661957,40.0575931 25.4090528,39.2178415 25.994146,38.9818167 C26.5674379,38.7501397 26.4612268,39.2147359 26.8003572,39.2147359 C26.9984938,39.2147359 26.9705435,38.8756055 26.8003572,38.7687732 C26.746941,38.7352328 26.5034628,38.7905123 26.4183696,38.7476552 C26.2146429,38.6457918 26.2873137,38.0923757 26.4401088,37.7072825 C26.6568789,37.1600775 27.2220963,37.1532453 27.5227174,37.1197049 C27.6922827,37.1010713 27.730792,37.0799533 27.6922827,37.2613198 C27.4593634,38.3662887 26.6314131,43.9290216 26.4264442,45.6843012 Z M64.9593634,53.5110092 C64.6655746,53.6737421 64.3370032,54.020326 64.4779969,54.4172204 C64.6562578,54.9147359 64.8599845,54.8979657 64.9873137,54.8979657 C65.2456988,54.8973446 65.5345187,54.6861645 65.6239597,54.5861645 C65.7270653,54.4724999 65.8680591,53.9060403 65.7090528,53.6669098 C65.6432143,53.5669098 65.2140218,53.3693943 64.9593634,53.5110092 Z M56.3109162,53.7582142 C56.0370032,53.9936179 55.8438355,54.6718788 56.183587,54.9265372 C56.5233386,55.1811956 56.7357609,55.0532453 56.8425932,55.0321272 C56.9481833,55.0110092 57.35191,54.5228105 57.309674,54.3103881 C57.2674379,54.0979657 56.9053261,53.2488974 56.3109162,53.7582142 Z M53.3183696,63.5246738 C52.941351,63.7060403 52.4922827,64.1669098 52.8512889,64.88368 C53.0208541,65.2234316 53.615264,65.0532453 53.7208541,65.0110092 C53.8276864,64.9687732 54.1456988,64.1830589 54.1028417,64.0134937 C54.0599845,63.8439285 53.8910404,63.2482763 53.3183696,63.5246738 Z M65.0575001,37.4327484 C64.7357609,37.4327484 64.2084317,37.7346117 64.562469,38.4799533 C64.8463199,39.0743633 65.4966305,38.4662887 65.5960094,38.2824378 C65.6674379,38.1470341 65.9357609,37.4327484 65.0575001,37.4327484 Z M78.5606056,40.3476552 C78.0860715,40.3364751 77.6543945,40.9141148 77.9661957,41.4799533 C78.2779969,42.046413 78.7581212,41.5929968 78.8724069,41.4799533 C78.9854504,41.3669098 79.7494255,40.3762266 78.5606056,40.3476552 Z M71.4699224,47.8774689 C71.3109162,47.9420651 70.683587,48.4718788 70.9177485,48.8538664 C71.1506678,49.2358539 71.5438355,49.1724999 71.6599845,49.1296428 C71.894146,49.0445496 72.2761336,48.599208 72.2121584,48.2805744 C72.1494255,47.962562 71.8301709,47.7290216 71.4699224,47.8774689 Z M52.204705,55.4128726 C52.8488044,55.2855434 52.8755125,54.9911335 53.1488044,54.7420651 C53.6438355,54.2892701 54.3376243,53.0010713 54.846941,52.746413 C55.3562578,52.4917546 55.4618479,52.6116303 55.9717858,52.6116303 C56.4817237,52.6116303 56.5736491,52.4793322 56.8854504,52.4700154 C57.1183696,52.4631831 57.946941,52.7172204 57.9674379,52.9085248 C58.0071895,53.2644254 58.4345187,54.2246738 59.3053261,55.1805744 C60.3022206,56.2749844 61.0326553,56.8687732 61.788556,57.1830589 C62.8792392,57.6358539 64.115264,57.8184626 64.4929038,57.9756055 C64.9177485,58.1526241 65.5966305,58.4923757 65.6817237,58.520326 C65.7668168,58.5488974 65.8090528,58.562562 65.6115373,58.3079036 C65.4127796,58.0532453 64.5078106,56.9488974 64.2239597,56.5532453 C63.941351,56.1563508 62.5568789,54.3588353 61.7891771,53.8426862 C60.8661957,53.2215682 59.8481833,52.7880279 58.3500466,52.6116303 C57.9897982,52.5693943 57.473028,52.3426862 57.473028,52.3426862 C57.473028,52.3426862 57.7848292,52.2575931 58.2370032,52.3426862 C58.6891771,52.4277794 61.1239597,52.7103881 61.7183696,52.6538664 C62.3127796,52.5973446 64.9028417,52.4557297 65.2705435,52.4843012 C65.6394876,52.5128726 65.3649535,52.5439285 65.9643324,52.7041769 C66.8134007,52.9302639 67.9450777,53.5252949 68.5407299,53.5818167 C69.7649535,53.6985869 70.6736491,53.4861645 71.625823,53.1849223 C72.1630901,53.0153571 74.2301709,52.194239 74.8245808,52.109767 C75.0382454,52.0793322 75.1922827,51.7985869 74.8525311,51.7985869 C74.5127796,51.7985869 74.3432143,51.7700154 74.0606056,51.741444 C73.7767547,51.7134937 72.9568789,51.4867856 72.8146429,51.4302639 C72.6724069,51.3737421 71.8804814,51.0619409 71.4556367,50.8923757 C71.030792,50.7228105 69.7575001,50.6662887 69.0500466,50.8644254 C68.341351,51.0619409 66.6432143,51.9961024 66.3606056,52.0811956 C66.0767547,52.1662887 65.1997361,52.1662887 65.1997361,52.1662887 C65.1997361,52.1662887 65.8792392,51.7985869 66.3314131,51.4867856 C66.7848292,51.1756055 67.6947671,50.6650465 69.1910404,48.9954813 C70.6637112,47.3538664 71.5407299,46.9010713 71.9376243,46.7662887 C72.2494255,46.6606987 72.7866926,46.4551086 73.0972516,46.4830589 C73.4090528,46.5110092 75.9127796,46.6917546 76.9649535,46.4892701 C78.4376243,46.2060403 80.4699224,45.1588353 81.1550156,44.8476552 C81.7773758,44.5644254 82.4848292,44.4234316 83.3910404,44.3383384 C82.599115,43.9706366 81.3239597,43.7867856 80.8432143,43.7159782 C80.1252019,43.6091459 78.1935249,42.8811956 76.9481833,43.2209471 C75.7028417,43.5606987 75.0494255,44.004798 74.0612268,44.8911335 C73.4450777,45.4426862 72.425823,46.0799533 72.2488044,46.2563508 C72.115264,46.3911335 71.5693013,46.5110092 71.5693013,46.5110092 C71.5693013,46.5110092 72.1891771,45.5408229 72.3904193,45.3507608 C72.625823,45.1296428 75.4171274,42.6681521 76.3109162,41.4445496 C77.0494255,40.4321272 77.6854504,38.499208 78.0798603,37.756972 C78.4935249,36.97809 79.6935249,35.867531 79.8071895,35.8110092 C79.920233,35.7544875 79.8351398,35.5277794 79.6376243,35.641444 C79.4388665,35.7544875 77.6953883,36.7054192 77.1456988,36.9153571 C76.3146429,37.2333695 74.4394876,38.5085248 73.7916615,39.1513819 C73.1860715,39.752003 72.5214752,40.5451707 72.3904193,42.088649 C72.2475622,43.7811956 72.3078106,44.9383384 71.2015994,46.3420651 C70.0699224,47.7787111 68.5984938,49.1582142 68.2866926,49.420326 C68.073028,49.5998291 66.2233386,51.2451707 65.1022206,51.720326 C64.1668168,52.1172204 63.7214752,52.0532453 63.7214752,52.0532453 C63.7214752,52.0532453 64.6276864,51.2321272 64.8252019,51.0333695 C65.0227174,50.8358539 65.7668168,50.446413 66.1338976,50.2476552 C66.5028417,50.0501397 68.5612268,49.2072825 69.4102951,46.8867856 C70.2593634,44.5656676 70.3661957,43.9495185 70.7059473,43.6383384 C71.0456988,43.3271583 71.1438355,43.0582142 70.5494255,43.3408229 C69.9550156,43.6234316 68.8568789,44.3513819 68.4338976,44.67809 C67.9668168,45.0389595 66.3910404,45.8998291 65.6531522,48.0178415 C64.9630901,49.9985869 64.4531522,50.7631831 64.1450777,51.0544875 C63.9264442,51.2606987 63.4233386,51.9954813 62.2345187,52.0799533 C61.0456988,52.1644254 60.1891771,52.052003 59.6227174,51.9948602 C59.0575001,51.9383384 58.7953883,51.9246738 58.7953883,51.9246738 C58.7953883,51.9246738 59.9512889,51.6693943 60.5860715,51.3793322 C61.1512889,51.1209471 62.3860715,50.3669098 62.999115,49.7805744 C63.5388665,49.2631831 64.0289286,48.1874067 64.4245808,47.762562 C64.8214752,47.3377173 65.8438355,46.1849223 66.0984938,45.9867856 C66.3531522,45.788649 66.820233,45.5693943 65.9289286,45.6538664 C65.1668168,45.7265372 63.2332765,46.1849223 62.6171274,46.488649 C62.094146,46.7470341 60.9189907,47.2035558 60.2817237,48.7811956 C59.5345187,50.6321272 59.0879348,50.8631831 58.7922827,51.2439285 C58.5935249,51.4985869 58.3432143,51.7116303 58.2015994,51.7395807 C58.0593634,51.7681521 57.1823448,51.7606987 56.9276864,51.9029347 C56.673028,52.0445496 54.9742702,51.9451707 54.9742702,51.9451707 C55.0873137,51.4358539 55.399115,50.473121 55.5686802,50.1619409 C55.7382454,49.8501397 56.3326553,48.4066614 56.5028417,48.0954813 C56.6724069,47.7843012 56.8208541,47.5364751 56.9904193,47.1681521 C57.1599845,46.8004502 57.6370032,45.8072825 57.8686802,45.4134937 C58.1512889,44.9321272 58.3612268,44.1594564 58.688556,43.5029347 C58.9432143,42.9936179 59.4674379,42.009767 60.2742702,41.6843012 C61.0811025,41.3588353 61.6053261,41.556972 61.9301709,41.5849223 C62.2140218,41.609767 64.6618479,42.0495185 65.3984938,41.9315061 C66.1059473,41.8184626 67.5773758,41.2029347 68.1438355,41.0613198 C68.7102951,40.9197049 69.0779969,40.8768477 69.2755125,40.8488974 C69.4742702,40.820326 69.4177485,40.6433074 69.1059473,40.6433074 C68.7953883,40.6433074 68.2432143,40.4948602 67.7338976,40.3818167 C67.2245808,40.2687732 65.3270653,39.3346117 64.6196119,39.3346117 C63.9109162,39.3346117 63.009674,39.5221894 61.9022206,40.1488974 C60.75191,40.799208 60.0512889,41.2662887 59.6444566,41.6352328 C59.2829659,41.9619409 58.7028417,42.7389595 58.7028417,42.7389595 L58.7450777,41.6700154 C58.7450777,41.4010713 58.730792,39.4551086 59.099115,38.8606987 C59.5804814,38.0830589 60.0525311,37.3830589 61.8022206,36.6507608 C63.020233,36.141444 63.9444566,36.1495185 63.7419721,36.1998291 C63.4581212,36.2706366 62.0289286,37.0209471 60.8537733,38.2948602 C59.6494255,39.6016925 59.0568789,40.8209471 58.85191,41.5426862 C58.85191,41.5426862 58.8376243,41.7973446 58.9649535,41.57809 C59.1115373,41.3259161 59.5376243,40.6638043 59.6829659,40.5656676 C59.8295497,40.4662887 60.2388665,40.2476552 60.825823,39.9929968 C61.4823448,39.7085248 62.6239597,38.8041769 63.1040839,38.1246738 C63.5854504,37.4451707 64.2370032,36.7159782 64.8314131,36.4333695 C65.425823,36.1501397 65.5109162,36.0936179 65.7084317,36.0370962 C65.9071895,35.9805744 66.2059473,35.6284005 65.9630901,35.7259161 C65.7276864,35.820326 64.8661957,35.9029347 64.6332765,35.9029347 C64.3786181,35.9029347 63.1227174,35.9004502 62.2929038,36.1743633 C61.5929038,36.404798 60.6500466,36.8538664 60.1599845,37.2333695 C59.8860715,37.4451707 59.0599845,38.0662887 58.7165063,38.9600775 C58.2916615,40.0638043 58.4897982,41.8973446 58.4326553,42.4631831 C58.3767547,43.0290216 57.9798603,44.5296428 57.7531522,44.9544875 C57.5276864,45.3787111 55.7866926,48.68368 55.7866926,48.68368 C55.7866926,48.68368 55.8289286,48.0892701 55.8848292,47.8060403 C55.9537733,47.4631831 56.0158851,46.7799533 56.1115373,46.5178415 C56.2245808,46.2066614 57.1028417,44.5364751 57.0736491,42.5830589 C57.0456988,40.6296428 56.2668168,39.7240527 55.9842081,39.1861645 C55.7015994,38.6482763 55.5873137,37.7849223 55.5873137,37.7849223 C55.5873137,37.7849223 55.5450777,37.4451707 55.4599845,37.5016925 C55.3748914,37.5582142 55.2345187,37.9054192 55.1773758,38.1035558 C55.120233,38.3016925 54.1581212,40.6439285 54.0736491,41.2383384 C53.988556,41.8327484 53.6065684,42.6818167 54.3432143,44.3234316 C55.0786181,45.9656676 55.4897982,46.6023136 55.5177485,47.4234316 C55.5456988,48.2445496 55.4475622,49.1426862 55.4183696,49.2563508 C55.3904193,49.3700154 55.0506678,49.8793322 54.8531522,50.2190838 C54.6543945,50.5588353 54.4562578,51.209767 54.2866926,51.57809 C54.1171274,51.946413 53.8320342,52.3315061 53.6146429,52.6184626 C53.441351,52.8470341 52.5568789,53.9979657 52.1916615,54.0544875 L52.1879348,54.0557297 C52.2134007,52.9488974 52.2388665,51.8669098 52.2630901,50.8197049 C52.3394876,50.6321272 52.5326553,50.1246738 52.5953883,49.956972 C52.7009783,49.6737421 53.3804814,47.2532453 53.7065684,46.7159782 C53.9078106,46.3824378 54.0171274,46.1352328 53.5370032,46.4041769 C53.2581212,46.5594564 52.6817237,46.8849223 52.3612268,47.0979657 C52.4811025,42.0321272 52.5494255,38.3693943 52.5736491,38.0470341 C52.746941,35.746413 52.9655746,30.9954813 55.2630901,28.1110092 C57.0779969,25.8321272 58.5860715,24.9613198 60.1177485,24.6718788 L60.2158851,23.6240527 C58.1922827,23.794239 51.441351,23.8787111 49.4314131,23.9072825 C47.7314131,23.9315061 39.4109162,23.9209471 39.4109162,23.9209471 L39.4109162,25.109767 C41.1090528,25.2799533 43.083587,26.1457918 44.3929038,27.9693943 C45.9531522,30.141444 46.9158851,31.4197049 47.1953883,38.3010713 C47.2630901,39.9669098 47.4593634,45.5252949 47.6705435,51.7954813 C47.5916615,51.5420651 47.2910404,50.7128726 46.9693013,50.2395807 C46.6711647,49.8004502 46.4338976,49.4700154 46.0811025,49.099208 C45.7978727,48.8016925 45.2463199,48.1513819 45.1295497,47.9818167 C45.0276864,47.8346117 44.9028417,47.5855434 44.8183696,47.556972 C44.7332765,47.5290216 44.6488044,47.5855434 44.6488044,47.8681521 C44.6488044,48.1513819 44.4506678,49.3402018 44.4220963,49.9631831 C44.394146,50.5855434 44.2978727,52.0712577 44.9773758,53.0905123 C45.6450777,54.0917546 46.4134007,54.5265372 46.7817237,55.0433074 C47.0171274,55.3737421 47.5637112,56.2470341 47.5637112,56.2470341 C47.5637112,56.2470341 46.941351,57.7756055 46.7711647,58.2284005 C46.6015994,58.6811956 46.2897982,59.1339906 46.1488044,59.4743633 C46.0071895,59.8134937 45.2997361,62.4178415 45.1581212,63.0122515 C45.0165063,63.6066614 44.3090528,65.3613198 44.3090528,65.3613198 C44.3090528,65.3613198 43.6860715,64.8240527 43.5450777,64.7103881 C43.4040839,64.5967235 42.7811025,64.1445496 42.6674379,63.946413 C42.5543945,63.7482763 41.8599845,62.7849223 41.4786181,62.446413 C41.0717858,62.0849223 40.0351398,61.48368 38.8463199,61.3426862 C37.6568789,61.2004502 36.5252019,61.2855434 36.2705435,61.2284005 C36.0158851,61.1718788 35.7326553,60.9737421 35.5630901,60.8892701 C35.3935249,60.8041769 35.1947671,60.9172204 35.336382,61.030885 C35.4779969,61.1445496 36.6388665,62.2762266 36.8370032,62.530885 C37.0345187,62.7855434 38.0823448,63.9252949 38.8463199,64.1165993 C39.6922827,64.3284005 41.3376243,64.2582142 41.8183696,64.2582142 C42.2997361,64.2582142 42.5823448,64.2867856 42.6674379,64.4004502 C42.7525311,64.5134937 42.3842081,64.5979657 42.2146429,64.6265372 C42.0456988,64.6551086 40.5165063,65.0228105 39.6109162,66.1265372 C38.7053261,67.2302639 38.3655746,68.4190838 38.25191,68.8724999 C38.1382454,69.3252949 37.7425932,71.2501397 37.7425932,71.2501397 C37.7425932,71.2501397 38.1388665,70.8824378 38.4220963,70.6557297 C38.7053261,70.4296428 40.8171274,69.2749844 41.5643324,68.3631831 C42.2208541,67.5619409 42.8668168,65.9290216 42.9233386,65.3911335 C42.9798603,64.8532453 43.0649535,64.7116303 43.1500466,64.7967235 C43.2345187,64.8818167 43.8009783,65.362562 43.8860715,65.5327484 C43.9711647,65.7029347 44.8767547,67.7973446 44.9332765,67.9103881 C44.9897982,68.0240527 45.8960094,69.2973446 46.0370032,69.5240527 C46.1786181,69.7507608 47.4525311,71.6756055 48.2165063,72.2700154 C48.2444566,72.2917546 48.2748914,72.3153571 48.3065684,72.341444 C48.3183696,72.7967235 48.325823,73.1284005 48.3283075,73.3141148 C48.3581212,75.9495185 48.6127796,82.3184626 48.5848292,84.8948602 L51.4717858,84.9234316 C51.4717858,84.9234316 51.5674379,80.8743633 51.7022206,75.2339906 C51.7630901,75.2923757 51.8102951,75.4085248 51.8394876,75.4402018 C52.4481833,76.0985869 52.5761336,76.7563508 53.0854504,77.8600775 C53.7444566,79.2855434 53.7717858,79.8501397 53.9214752,80.2526241 C54.2189907,81.0594564 54.1618479,81.7811956 54.3314131,81.8662887 C54.5289286,81.9650465 55.562469,80.394239 55.2655746,79.446413 C55.0084317,78.6259161 54.0618479,77.3370962 53.7649535,76.4594564 C53.5612268,75.856972 52.6755125,74.4072825 52.3357609,74.0954813 C52.2705435,74.0358539 52.0593634,73.846413 51.7556367,73.5681521 C51.7910404,72.052003 51.815264,70.5693943 51.8550156,68.9029347 C51.8599845,68.9023136 51.8637112,68.873121 51.8680591,68.8724999 C52.7171274,68.730885 54.6873137,68.0153571 55.2394876,67.9023136 C55.6966305,67.8085248 56.1736491,67.6898912 56.3966305,67.6619409 C55.5792392,67.2793322 55.5034628,67.2091459 55.2817237,67.1234316 C55.0270653,67.0246738 54.404705,66.7408229 53.8488044,66.473121 C53.2009783,66.1613198 52.4270653,66.0482763 51.920233,65.9805744 C51.9531522,64.6252949 51.9904193,63.4793322 52.0233386,62.0998291 C52.0438355,62.0706366 52.0817237,62.0029347 52.0922827,61.9830589 C52.3761336,61.5023136 52.5680591,60.9402018 53.1488044,60.4010713 C53.7432143,59.8488974 53.4668168,59.6929968 53.1270653,59.8917546 C52.7997361,60.0830589 52.2425932,60.3209471 52.0568789,60.3619409 C52.0935249,58.7905123 52.130792,57.2252949 52.1661957,55.6948602 C52.1661957,55.6948602 51.7829659,55.8364751 51.4575001,56.0482763 C51.1314131,56.2613198 50.7382454,56.588649 50.5792392,56.7420651 C49.7630901,57.5277794 48.504705,57.5631831 48.2531522,57.773121 C48.083587,57.9147359 47.883587,58.5110092 47.883587,58.5110092 C47.9376243,60.156972 48.0227174,63.4420651 47.9966305,63.5004502 C47.2109162,65.241444 47.0978727,66.3451707 46.9705435,66.9395807 C46.85191,67.494239 46.7140218,67.8116303 46.5916615,68.0662887 C46.4314131,67.9911335 46.4500466,68.0004502 46.3370032,67.8016925 C46.2239597,67.6041769 45.4276864,65.6439285 45.3997361,65.3327484 C45.3717858,65.0209471 46.5891771,61.9358539 46.5891771,61.7662887 C46.5891771,61.5967235 47.183587,60.2656676 47.183587,60.1234316 C47.183587,59.9818167 47.3537733,58.8358539 47.8065684,58.0147359 C47.936382,57.7787111 47.9338976,57.4557297 48.5705435,57.3215682 C49.2606056,57.1756055 49.7593634,56.9532453 50.1270653,56.6700154 C50.4817237,56.3979657 51.094146,55.8669098 51.5245808,55.6358539 C51.8276864,55.5197049 52.0779969,55.4346117 52.199115,55.4103881 L52.204705,55.4128726 Z M56.5655746,48.3594564 C56.6276864,48.2563508 57.641351,46.7880279 58.0804814,46.1650465 C58.5183696,45.5426862 59.130792,44.7631831 59.6370032,44.388649 C60.3320342,43.8743633 61.3779969,43.4265372 62.4537733,43.1929968 C63.4301709,42.9811956 64.109674,42.909767 64.4494255,42.7538664 C64.7891771,42.5985869 64.7891771,42.7116303 64.6618479,42.8532453 C64.5345187,42.9948602 64.3643324,42.9172204 63.8270653,43.5116303 C63.288556,44.1060403 62.2121584,45.4929968 62.0568789,45.6346117 C61.9015994,45.7762266 60.7525311,46.9190838 60.330792,47.1843012 C59.7786181,47.5315061 59.0425932,47.7718788 57.8109162,48.1184626 C56.9009783,48.3743633 56.7773758,48.4575931 56.7071895,48.4867856 C56.6370032,48.5147359 56.5233386,48.4296428 56.5655746,48.3594564 Z M38.3643324,64.720326 C38.1668168,64.8197049 37.615264,65.2451707 37.7693013,65.8246738 C37.8829659,66.2495185 38.7606056,66.1644254 38.9587423,65.909767 C39.1059473,65.7197049 39.3264442,65.0321272 39.1562578,64.8619409 C38.9860715,64.6917546 38.7612268,64.5221894 38.3643324,64.720326 Z M39.1040839,21.1768477 C38.1332765,18.541444 37.6823448,14.2712577 37.7593634,12.6284005 C37.8015994,11.7228105 40.5196119,10.4470341 40.5332765,10.420326 C40.7245808,10.0389595 41.4848292,4.41597817 41.3823448,3.51287258 C41.1227174,4.31659929 40.7028417,5.57933221 39.9102951,6.34330736 C39.3618479,6.87249991 36.630792,9.52218935 36.5177485,9.63523283 C36.404705,9.74827631 35.2823448,12.2029347 35.3388665,12.373121 C35.3953883,12.5426862 36.5842081,16.2793322 36.5140218,17.4967235 C37.462469,18.430885 39.1040839,21.1768477 39.1040839,21.1768477 Z M41.7929038,23.1159782 C41.5382454,21.9265372 41.2972516,16.562562 41.55191,15.7985869 C41.9767547,16.0103881 42.7916615,17.4004502 42.9245808,17.38368 C43.2643324,17.341444 44.6233386,17.9215682 45.5289286,19.0818167 C45.1326553,17.2420651 43.2922827,13.2929968 43.2922827,13.0805744 C43.2922827,12.8687732 43.7171274,11.552003 43.7171274,11.552003 L44.1842081,14.4395807 C44.1842081,14.4395807 44.541351,11.6768477 44.5661957,11.552003 C44.6655746,11.056972 46.5761336,7.87249991 46.6606056,7.70231357 C46.7456988,7.53274836 46.8873137,3.07374215 46.8022206,2.8619409 C46.6326553,3.71100923 45.7121584,6.32964277 44.9481833,7.68802786 C44.1842081,9.04703407 42.2823448,11.2811956 41.8059473,11.6085248 C41.2438355,11.9954813 40.4015994,12.6830589 39.825823,13.5041769 C39.3289286,14.2128726 38.7630901,15.2321272 38.7488044,15.4582142 C38.5668168,18.3905123 41.7929038,23.1159782 41.7929038,23.1159782 Z M44.015264,7.66007755 C44.2059473,6.17374215 44.609674,3.60790364 44.609674,3.26504649 C44.3972516,2.92529494 41.9978727,0.540822891 41.8283075,0.413493699 C41.6587423,0.286164506 41.4674379,0.137717301 41.4674379,0.137717301 L42.0829659,1.94206513 C42.0829659,1.94206513 42.4984938,3.33026388 42.5289286,3.77498438 C42.5717858,4.39051233 42.0407299,7.25697196 42.0407299,7.25697196 L42.2177485,7.32777941 C42.2177485,7.32777941 43.2227174,4.7445496 43.3929038,4.36256202 C43.6686802,4.59610239 44.015264,7.1929968 44.015264,7.66007755 Z M46.7748914,10.2929968 C46.9873137,10.0383384 47.9494255,8.71473593 48.6711647,8.2687732 C49.3929038,7.82281047 51.1767547,6.6619409 51.3463199,6.17374215 C51.5972516,5.4513819 49.5910404,0.738959537 49.2587423,0.00976699047 C49.2270653,-0.0597982269 49.2587423,0.265046494 49.2587423,0.265046494 C49.2587423,0.265046494 49.4500466,4.97063656 49.2376243,5.64268625 C48.9512889,6.55013966 47.0438355,9.41473593 46.7115373,10.2290216 L46.7748914,10.2929968 Z M51.2767547,7.90045022 C51.2767547,7.90045022 53.188556,7.04268625 53.8022206,6.930885 C54.5034628,6.80293469 56.4773758,6.2582142 56.7320342,6.04641295 C56.873028,5.92964277 58.8345187,2.58554339 59.0891771,1.82156823 C58.2183696,2.7134937 56.4351398,3.86007755 55.1407299,4.00852475 C54.8214752,4.41163034 53.994146,5.62218935 53.4425932,6.13150612 C52.7686802,6.75262413 51.2767547,7.90045022 51.2767547,7.90045022 Z M50.115264,19.6197049 C50.3910404,17.17809 51.0208541,12.5426862 51.5239597,12.0756055 C51.8140218,11.8054192 52.9252019,11.5874067 53.2220963,11.4172204 C53.5761336,11.2147359 55.4506678,9.58492227 55.7475622,9.2582142 C56.1165063,8.85510861 59.2655746,7.12156823 59.4562578,6.90914587 C59.6270653,6.71908376 60.5891771,4.78616451 60.8500466,4.24144401 C60.2494255,5.1824378 57.4606056,7.19237569 56.6115373,7.4892701 C55.8693013,7.74827631 51.2618479,8.35945643 51.0494255,8.42343159 C50.8829659,8.47312103 49.2481833,9.67001544 47.5817237,10.7588353 C46.1338976,11.704798 44.8562578,12.4905123 44.8276864,12.6060403 C44.573028,13.646413 46.4984938,18.78368 46.7537733,19.1874067 C46.7966305,17.9134937 46.6407299,15.2954813 46.9171274,14.7221894 C47.320233,15.1470341 48.7500466,18.1898912 48.9407299,18.3811956 C49.1314131,18.5724999 49.3935249,18.6221894 50.115264,19.6197049 Z M51.0351398,19.6693943 C51.0351398,19.6693943 51.8842081,18.1973446 52.5637112,17.2631831 C53.2432143,16.3296428 54.2065684,15.2532453 54.2065684,15.2532453 C54.2065684,15.2532453 54.0500466,16.356972 54.0500466,17.630885 C54.0500466,18.904798 53.8947671,20.2638043 53.8947671,20.2638043 C53.8947671,20.2638043 54.6314131,18.9333695 55.1686802,17.9141148 C55.7059473,16.8948602 56.4146429,15.5364751 56.4146429,15.5364751 C56.4146429,15.5364751 56.1053261,17.3973446 55.9618479,17.9426862 C55.7910404,18.5867856 55.3661957,20.0445496 55.3382454,20.3488974 C55.6500466,20.341444 56.7444566,18.009767 56.9090528,17.752003 C57.0220963,17.5749844 57.8575001,16.4638043 58.4239597,16.067531 C58.2817237,16.8035558 58.45191,21.8706366 58.45191,21.8706366 C58.45191,21.8706366 59.3568789,19.8321272 59.5264442,19.3507608 C59.6960094,18.8700154 60.1351398,17.3557297 60.2773758,17.1855434 C60.4183696,17.0159782 61.8189907,15.6712577 61.8761336,15.4165993 C61.9332765,15.1613198 61.536382,13.1234316 61.1966305,12.5855434 C61.0556367,13.5476552 60.9562578,13.6327484 60.8717858,13.830885 C60.7866926,14.0290216 58.8618479,15.5575931 58.8618479,15.5575931 C58.8618479,15.5575931 59.3289286,14.056972 59.4984938,13.6041769 C59.6680591,13.1513819 59.8233386,12.3445496 59.9798603,11.9762266 C60.0220963,11.7756055 59.4134007,8.38119556 59.3854504,7.80107134 C59.1866926,8.84827631 58.2947671,13.1650465 57.8425932,13.7880279 C57.3897982,14.4110092 56.6960094,14.9631831 56.583587,14.9631831 C56.6966305,14.6377173 56.6817237,14.5246738 56.6817237,14.2128726 C56.6817237,13.8874067 56.5736491,12.2259161 56.7109162,11.7079036 C56.8382454,11.2265372 57.6873137,9.78305892 57.6873137,9.78305892 C57.6873137,9.78305892 56.0444566,10.6321272 55.7053261,10.7451707 C55.3655746,10.8582142 53.9220963,11.5377173 53.8370032,11.6228105 C53.75191,11.7079036 53.0593634,13.5197049 52.8326553,14.0855434 C52.6674379,14.4973446 51.1488044,17.5110092 51.0916615,17.7656676 C51.0345187,18.020326 51.0351398,19.6693943 51.0351398,19.6693943 Z M61.4811025,11.7929968 C61.4811025,11.7929968 62.6276864,8.18368003 62.8953883,7.78740674 C63.1649535,7.39113345 63.8717858,6.86753097 64.1134007,6.72591606 C63.6171274,6.76815208 63.0506678,6.89548128 62.7401088,6.93833842 C62.4283075,6.98057444 61.8761336,7.1929968 61.7916615,7.30604028 C61.7065684,7.41970488 61.494146,9.69796575 61.4811025,9.92467382 C61.4668168,10.1513819 61.3394876,11.2551086 61.4811025,11.7929968 Z M62.5003572,13.4060403 C62.5003572,13.4060403 63.6320342,12.9110092 63.6748914,12.8681521 C63.7177485,12.8252949 64.6090528,11.0426862 64.7935249,10.8582142 C64.9283075,10.7234316 66.5767547,9.21411482 66.8742702,9.03274836 C67.1289286,8.87746885 68.7556367,8.45200302 68.925823,8.4240527 C68.5301709,8.31100923 66.5059473,8.15510861 65.8978727,8.33895954 C65.6102951,8.42591606 63.0239597,9.5134937 62.9680591,9.83958066 C62.9109162,10.1650465 63.0382454,11.1700154 62.9811025,11.5377173 C62.915264,11.9693943 62.5003572,13.4060403 62.5003572,13.4060403 Z" id="Combined-Shape"></path>
                    </g>
                </g>
            </g>
        </g>
    </g>
</svg>