<?xml version="1.0" encoding="UTF-8" standalone="no"?>
<svg width="63px" height="87px" viewBox="0 0 63 87" version="1.1" xmlns="http://www.w3.org/2000/svg" xmlns:xlink="http://www.w3.org/1999/xlink">
    <!-- Generator: Sketch 3.7.2 (28276) - http://www.bohemiancoding.com/sketch -->
    <title>sublime-text</title>
    <desc>Created with Sketch.</desc>
    <defs>
        <linearGradient x1="50%" y1="0%" x2="50%" y2="100%" id="linearGradient-1">
            <stop stop-color="#18E98A" offset="0%"></stop>
            <stop stop-color="#1C9BE2" offset="100%"></stop>
        </linearGradient>
    </defs>
    <g id="iPhone" stroke="none" stroke-width="1" fill="none" fill-rule="evenodd">
        <g id="Main-Page---iPhone---1.0" transform="translate(-129.000000, -1702.000000)" fill="url(#linearGradient-1)">
            <g id="Tools---1-column" transform="translate(10.000000, 1453.000000)">
                <g id="sublime-text" transform="translate(88.000000, 249.000000)">
                    <path d="M69.3201206,0.384669615 C77.5332511,1.46410963 85.2770599,5.3516581 91.2374461,11.0695614 C87.9600159,15.0900843 84.7060518,19.1106073 81.4833758,23.1702404 C75.4760575,18.3518705 67.54452,15.0587962 59.7772451,16.9360832 C56.2807981,17.5931336 53.1128763,20.6984792 53.4101134,24.4295871 C53.7464606,27.7617715 56.7814079,29.7642109 59.5738723,31.0157356 C65.9253599,33.8707762 72.4880424,36.225207 78.8786401,39.0020273 C84.1585098,41.4033902 89.1020322,45.2205404 91.5033951,50.6412066 C95.0076642,58.533634 94.1159528,68.3268144 88.9064815,75.2727763 C84.9563568,80.6308662 78.9021062,84.1194912 72.5271525,85.7386512 C58.0563987,89.3054965 41.9117306,85.1754651 31,75.0224713 C31.0234661,74.122938 32.0090418,73.5597519 32.4548974,72.8401252 C35.5915311,69.1950596 38.6108343,65.4561297 41.7083578,61.7875981 C47.8564727,66.9188492 55.5846375,70.8846179 63.7743019,70.5639147 C67.5992742,70.3527199 72.3707119,69.1168393 73.6613467,64.99463 C75.1240662,61.4825389 72.9573641,57.5871684 69.7034,56.0540507 C62.7965483,52.5497817 55.4360189,50.0310883 48.4353029,46.72237 C43.4135602,44.2506088 38.9393595,40.3630604 36.4754204,35.2630974 C32.5096516,27.1281871 33.7611763,16.6310241 39.9092911,9.896257 C47.1055579,1.72223659 58.8229575,-1.11715997 69.3201206,0.384669615 Z"></path>
                </g>
            </g>
        </g>
    </g>
</svg>