<?xml version="1.0" encoding="UTF-8" standalone="no"?>
<svg width="100px" height="107px" viewBox="0 0 100 107" version="1.1" xmlns="http://www.w3.org/2000/svg" xmlns:xlink="http://www.w3.org/1999/xlink">
    <!-- Generator: Sketch 3.7.2 (28276) - http://www.bohemiancoding.com/sketch -->
    <title>Logo</title>
    <desc>Created with Sketch.</desc>
    <defs>
        <linearGradient x1="50%" y1="0%" x2="50%" y2="100%" id="linearGradient-1">
            <stop stop-color="#18E98A" offset="0%"></stop>
            <stop stop-color="#1C9BE2" offset="100%"></stop>
        </linearGradient>
    </defs>
    <g id="iPhone" stroke="none" stroke-width="1" fill="none" fill-rule="evenodd">
        <g id="Main-Page---iPhone---1.0" transform="translate(-110.000000, -3725.000000)" fill="url(#linearGradient-1)">
            <g id="CV" transform="translate(8.000000, 3093.000000)">
                <g id="Treehouse" transform="translate(2.000000, 632.000000)">
                    <path d="M194.666667,23.5833333 C193.333333,22.9166667 190.333333,21.5833333 187,19.5833333 C183.333333,17.5833333 177.666667,20.9166667 174,26.5833333 L167.666667,37.25 C165.333333,41.9166668 165.666667,46.9166668 168.666667,51.25 L169,51.5833332 C172,55.9166668 176,59.5833332 177,60.9166668 C177.666667,61.5833332 178.333333,62.9166668 178.666667,63.9166668 C179.666667,67.9166668 177.666667,71.5833332 173.666667,72.5833332 C170,73.5833332 166,71.25 164.666667,67.5833332 C164.333333,66.5833332 164.333333,65.5833332 164.333333,64.5833332 C164.666667,62.9166668 164,60.25 161.666667,58.25 C159.333333,55.5833332 154.666667,60.5833332 153.333333,65.25 L153.333333,65.5833332 C152,70.5833332 151,74.5833332 151.333333,74.9166668 C151.333333,75.25 151.666667,75.5833332 151.666667,75.5833332 C153.666667,79.5833332 152.333333,84.25 148.333333,86.25 C144.333333,88.25 139.333333,86.9166668 137.333333,82.9166668 C135.333333,78.9166668 136.666667,74.25 140.666667,72.25 C141,72.25 141,71.9166668 141.333333,71.9166668 C141.666667,71.9166668 142.333333,69.5833332 143.333333,67.25 C144,64.9166668 144.666667,62.9166668 144.666667,62.9166668 C144.666667,62.5833332 144.666667,62.25 145,62.25 L149,48.25 L145,56.5833332 C144.333333,54.9166668 143.666667,54.9166668 141.666667,56.25 C140.666667,56.9166668 138.666667,58.5833332 138,59.25 C136.333333,60.5833332 135,62.9166668 134.333333,64.25 C134,65.25 133.333333,65.9166668 132.666667,66.5833332 C129.666667,69.25 125,68.5833332 122.666667,65.5833332 C120.333333,62.5833332 121,58.5833332 124,56.25 C125,55.5833332 126,54.9166668 127,54.9166668 C128.666667,54.5833332 135,50.5833332 138.666667,48.25 C139.333333,47.9166668 140,47.25 140.333333,46.9166668 L150,39.9166668 L141.333333,44.5833332 L139.333333,44.5833332 C136.666667,44.9166668 133.333333,45.25 132.666667,46.25 C132.333333,46.5833332 132,47.25 131.333333,47.5833332 C128.666667,48.9166668 124.666667,48.25 122.333333,45.5833332 C120.333333,42.5833332 121,38.9166667 123.666667,36.9166667 C125.333333,35.9166667 126.666667,35.5833333 128,35.5833333 C130.333333,35.5833333 136.333333,36.9166667 141.333333,35.9166667 L142.666667,35.5833333 C147.666667,34.5833333 153.666667,30.5833333 156,25.9166667 C156,25.9166667 158.333333,21.5833333 161.333333,16.9166667 C164.333333,11.9166667 164,6.58333332 161,4.58333332 L155.333333,1.25 C152.333333,-0.416666667 147.666667,-0.416666667 144.666667,1.25 L105.333333,22.9166667 C102.333333,24.5833333 100,28.9166667 100,32.25 L100,74.9166668 C100,78.25 102.333333,81.9166668 105.333333,83.5833332 L145,105.583333 C148,107.25 152.666667,107.25 155.666667,105.583333 L194.666667,83.25 C197.666667,81.5833332 200,77.9166668 200,74.5833332 L200,32.25 C200,28.9166667 197.666667,25.25 194.666667,23.5833333 L194.666667,23.5833333 L194.666667,23.5833333 Z" id="Logo"></path>
                </g>
            </g>
        </g>
    </g>
</svg>