<?xml version="1.0" encoding="UTF-8" standalone="no"?>
<svg width="376px" height="214px" viewBox="0 0 376 214" version="1.1" xmlns="http://www.w3.org/2000/svg" xmlns:xlink="http://www.w3.org/1999/xlink">
    <!-- Generator: Sketch 3.7.2 (28276) - http://www.bohemiancoding.com/sketch -->
    <title>main-logo</title>
    <desc>Created with Sketch.</desc>
    <defs>
        <path d="M170.37868,103.5 L107.93934,41.0606602 L106.87868,40 L109,37.8786797 L110.06066,38.9393398 L172.5,101.37868 L234.93934,38.9393398 L236,37.8786797 L238.12132,40 L237.06066,41.0606602 L174.62132,103.5 L237.06066,165.93934 L238.12132,167 L236,169.12132 L234.93934,168.06066 L172.5,105.62132 L110.06066,168.06066 L109,169.12132 L106.87868,167 L107.93934,165.93934 L170.37868,103.5 Z M0.94140625,131 L0.94140625,79.8125 L17.6757812,79.8125 C23.2304965,79.8125 27.4081891,80.960926 30.2089844,83.2578125 C33.0097796,85.554699 34.4101562,88.9531025 34.4101562,93.453125 C34.4101562,95.843762 33.7304755,97.9589752 32.3710938,99.7988281 C31.011712,101.638681 29.160168,103.062495 26.8164062,104.070312 C29.5820451,104.843754 31.7675701,106.314442 33.3730469,108.482422 C34.9785237,110.650401 35.78125,113.23436 35.78125,116.234375 C35.78125,120.828148 34.2929836,124.437487 31.3164062,127.0625 C28.3398289,129.687513 24.1328397,131 18.6953125,131 L0.94140625,131 Z M7.69140625,107.058594 L7.69140625,125.480469 L18.8359375,125.480469 C21.9765782,125.480469 24.455069,124.666024 26.2714844,123.037109 C28.0878997,121.408195 28.9960938,119.164077 28.9960938,116.304688 C28.9960938,110.140594 25.6445648,107.058594 18.9414062,107.058594 L7.69140625,107.058594 Z M7.69140625,101.644531 L17.8867188,101.644531 C20.8398585,101.644531 23.201163,100.906257 24.9707031,99.4296875 C26.7402432,97.9531176 27.625,95.9492314 27.625,93.4179688 C27.625,90.6054547 26.8046957,88.5605533 25.1640625,87.2832031 C23.5234293,86.005853 21.0273605,85.3671875 17.6757812,85.3671875 L7.69140625,85.3671875 L7.69140625,101.644531 Z M53.0078125,131 L46.2578125,131 L46.2578125,79.8125 L53.0078125,79.8125 L53.0078125,131 Z M103.140625,124.285156 C101.406241,126.769544 98.9863437,128.626947 95.8808594,129.857422 C92.7753751,131.087897 89.1601769,131.703125 85.0351562,131.703125 C80.8632604,131.703125 77.1601724,130.724619 73.9257812,128.767578 C70.6913901,126.810537 68.189462,124.027362 66.4199219,120.417969 C64.6503818,116.808576 63.7421877,112.625024 63.6953125,107.867188 L63.6953125,103.402344 C63.6953125,95.6913677 65.4941226,89.714865 69.0917969,85.4726562 C72.6894711,81.2304475 77.7460612,79.109375 84.2617188,79.109375 C89.6054955,79.109375 93.9062337,80.4745957 97.1640625,83.2050781 C100.421891,85.9355605 102.414059,89.8085687 103.140625,94.8242188 L96.390625,94.8242188 C95.1249937,88.0507474 91.093784,84.6640625 84.296875,84.6640625 C79.7734149,84.6640625 76.3457148,86.2519372 74.0136719,89.4277344 C71.681629,92.6035315 70.5039064,97.2030949 70.4804688,103.226562 L70.4804688,107.410156 C70.4804688,113.152372 71.7929556,117.71678 74.4179688,121.103516 C77.0429819,124.490251 80.5937276,126.183594 85.0703125,126.183594 C87.6015752,126.183594 89.8163968,125.902347 91.7148438,125.339844 C93.6132907,124.777341 95.1835875,123.828132 96.4257812,122.492188 L96.4257812,110.996094 L84.578125,110.996094 L84.578125,105.511719 L103.140625,105.511719 L103.140625,124.285156 Z M257.023438,108.183594 C251.234346,106.519523 247.021498,104.474622 244.384766,102.048828 C241.748034,99.6230347 240.429688,96.6289241 240.429688,93.0664062 C240.429688,89.0351361 242.041,85.7011851 245.263672,83.0644531 C248.486344,80.4277212 252.675755,79.109375 257.832031,79.109375 C261.347674,79.109375 264.482408,79.7890557 267.236328,81.1484375 C269.990248,82.5078193 272.123039,84.3828005 273.634766,86.7734375 C275.146492,89.1640745 275.902344,91.7773296 275.902344,94.6132812 L269.117188,94.6132812 C269.117188,91.5195158 268.132822,89.0878995 266.164062,87.3183594 C264.195303,85.5488193 261.417987,84.6640625 257.832031,84.6640625 C254.50389,84.6640625 251.908212,85.3964771 250.044922,86.8613281 C248.181631,88.3261792 247.25,90.359362 247.25,92.9609375 C247.25,95.0468854 248.134757,96.8105397 249.904297,98.2519531 C251.673837,99.6933666 254.685526,101.011713 258.939453,102.207031 C263.193381,103.40235 266.521472,104.720696 268.923828,106.162109 C271.326184,107.603523 273.107416,109.285147 274.267578,111.207031 C275.42774,113.128916 276.007812,115.390612 276.007812,117.992188 C276.007812,122.140646 274.390641,125.462878 271.15625,127.958984 C267.921859,130.455091 263.597683,131.703125 258.183594,131.703125 C254.667951,131.703125 251.386734,131.029304 248.339844,129.681641 C245.292954,128.333978 242.943368,126.488293 241.291016,124.144531 C239.638664,121.80077 238.8125,119.14064 238.8125,116.164062 L245.597656,116.164062 C245.597656,119.257828 246.740223,121.701163 249.025391,123.494141 C251.310558,125.287118 254.363262,126.183594 258.183594,126.183594 C261.746112,126.183594 264.476553,125.457039 266.375,124.003906 C268.273447,122.550774 269.222656,120.570325 269.222656,118.0625 C269.222656,115.554675 268.343759,113.615241 266.585938,112.244141 C264.828116,110.87304 261.640648,109.519538 257.023438,108.183594 Z M320.691406,79.8125 L320.691406,114.617188 C320.667969,119.445337 319.150406,123.394516 316.138672,126.464844 C313.126938,129.535172 309.042995,131.257811 303.886719,131.632812 L302.09375,131.703125 C296.492159,131.703125 292.02736,130.191421 288.699219,127.167969 C285.371077,124.144516 283.683594,119.984401 283.636719,114.6875 L283.636719,79.8125 L290.316406,79.8125 L290.316406,114.476562 C290.316406,118.179706 291.335927,121.05663 293.375,123.107422 C295.414073,125.158213 298.320294,126.183594 302.09375,126.183594 C305.914082,126.183594 308.83788,125.164073 310.865234,123.125 C312.892588,121.085927 313.90625,118.214862 313.90625,114.511719 L313.90625,79.8125 L320.691406,79.8125 Z M350.117188,110.292969 L338.09375,110.292969 L338.09375,131 L331.308594,131 L331.308594,79.8125 L348.253906,79.8125 C354.01956,79.8125 358.455063,81.1249869 361.560547,83.75 C364.666031,86.3750131 366.21875,90.1952874 366.21875,95.2109375 C366.21875,98.3984534 365.35743,101.175769 363.634766,103.542969 C361.912101,105.910168 359.51564,107.679682 356.445312,108.851562 L368.46875,130.578125 L368.46875,131 L361.226562,131 L350.117188,110.292969 Z M338.09375,104.773438 L348.464844,104.773438 C351.816423,104.773438 354.482412,103.906259 356.462891,102.171875 C358.443369,100.437491 359.433594,98.117202 359.433594,95.2109375 C359.433594,92.0468592 358.490244,89.6211022 356.603516,87.9335938 C354.716787,86.2460853 351.992205,85.3906251 348.429688,85.3671875 L338.09375,85.3671875 L338.09375,104.773438 Z M114.165039,10.5175781 L114.438477,12.3925781 L114.838867,10.703125 L117.651367,0.78125 L119.233398,0.78125 L121.977539,10.703125 L122.368164,12.421875 L122.670898,10.5078125 L124.87793,0.78125 L126.762695,0.78125 L123.31543,15 L121.606445,15 L118.676758,4.63867187 L118.452148,3.5546875 L118.227539,4.63867187 L115.19043,15 L113.481445,15 L110.043945,0.78125 L111.918945,0.78125 L114.165039,10.5175781 Z M136.879883,8.42773438 L130.717773,8.42773438 L130.717773,13.4667969 L137.875977,13.4667969 L137.875977,15 L128.842773,15 L128.842773,0.78125 L137.77832,0.78125 L137.77832,2.32421875 L130.717773,2.32421875 L130.717773,6.89453125 L136.879883,6.89453125 L136.879883,8.42773438 Z M142.094727,13.4667969 L148.833008,13.4667969 L148.833008,15 L140.209961,15 L140.209961,0.78125 L142.094727,0.78125 L142.094727,13.4667969 Z M161.430664,10.4882812 C161.254882,11.992195 160.699874,13.1526652 159.765625,13.9697266 C158.831376,14.7867879 157.589526,15.1953125 156.040039,15.1953125 C154.360343,15.1953125 153.014328,14.593105 152.001953,13.3886719 C150.989578,12.1842388 150.483398,10.5729268 150.483398,8.5546875 L150.483398,7.1875 C150.483398,5.86587881 150.719399,4.70378105 151.191406,3.70117188 C151.663414,2.6985627 152.332352,1.92871362 153.198242,1.39160156 C154.064132,0.854489502 155.066726,0.5859375 156.206055,0.5859375 C157.716479,0.5859375 158.927404,1.00748276 159.838867,1.85058594 C160.75033,2.69368911 161.280924,3.86066963 161.430664,5.3515625 L159.545898,5.3515625 C159.383137,4.21874434 159.029951,3.39844004 158.486328,2.890625 C157.942706,2.38280996 157.182622,2.12890625 156.206055,2.12890625 C155.008132,2.12890625 154.069014,2.57161016 153.388672,3.45703125 C152.70833,4.34245234 152.368164,5.60220537 152.368164,7.23632812 L152.368164,8.61328125 C152.368164,10.1562577 152.690426,11.383459 153.334961,12.2949219 C153.979495,13.2063848 154.881179,13.6621094 156.040039,13.6621094 C157.081711,13.6621094 157.880857,13.4261091 158.4375,12.9541016 C158.994143,12.482094 159.363606,11.6601621 159.545898,10.4882812 L161.430664,10.4882812 Z M174.926758,8.34960938 C174.926758,9.74284551 174.692385,10.9586537 174.223633,11.9970703 C173.75488,13.035487 173.090825,13.8281223 172.231445,14.375 C171.372066,14.9218777 170.369472,15.1953125 169.223633,15.1953125 C168.103836,15.1953125 167.111007,14.9202501 166.245117,14.3701172 C165.379227,13.8199842 164.707034,13.0354869 164.228516,12.0166016 C163.749998,10.9977163 163.504232,9.81771504 163.491211,8.4765625 L163.491211,7.45117188 C163.491211,6.08397754 163.728839,4.87630732 164.204102,3.828125 C164.679364,2.77994268 165.351558,1.97754185 166.220703,1.42089844 C167.089848,0.864255029 168.084304,0.5859375 169.204102,0.5859375 C170.34343,0.5859375 171.347652,0.860999854 172.216797,1.41113281 C173.085942,1.96126577 173.75488,2.75878384 174.223633,3.80371094 C174.692385,4.84863804 174.926758,6.06444619 174.926758,7.45117188 L174.926758,8.34960938 Z M173.061523,7.43164062 C173.061523,5.74543428 172.722985,4.4515019 172.045898,3.54980469 C171.368812,2.64810747 170.421556,2.19726562 169.204102,2.19726562 C168.0192,2.19726562 167.086592,2.64810747 166.40625,3.54980469 C165.725908,4.4515019 165.375977,5.70311699 165.356445,7.3046875 L165.356445,8.34960938 C165.356445,9.98373213 165.699866,11.267899 166.386719,12.2021484 C167.073571,13.1363979 168.0192,13.6035156 169.223633,13.6035156 C170.434576,13.6035156 171.372067,13.1624393 172.036133,12.2802734 C172.700199,11.3981076 173.041992,10.1334718 173.061523,8.48632812 L173.061523,7.43164062 Z M180.161133,0.78125 L184.80957,12.3828125 L189.458008,0.78125 L191.889648,0.78125 L191.889648,15 L190.014648,15 L190.014648,9.46289062 L190.19043,3.48632812 L185.522461,15 L184.086914,15 L179.428711,3.515625 L179.614258,9.46289062 L179.614258,15 L177.739258,15 L177.739258,0.78125 L180.161133,0.78125 Z M203.237305,8.42773438 L197.075195,8.42773438 L197.075195,13.4667969 L204.233398,13.4667969 L204.233398,15 L195.200195,15 L195.200195,0.78125 L204.135742,0.78125 L204.135742,2.32421875 L197.075195,2.32421875 L197.075195,6.89453125 L203.237305,6.89453125 L203.237305,8.42773438 Z M221.342773,2.32421875 L216.772461,2.32421875 L216.772461,15 L214.907227,15 L214.907227,2.32421875 L210.34668,2.32421875 L210.34668,0.78125 L221.342773,0.78125 L221.342773,2.32421875 Z M234.389648,8.34960938 C234.389648,9.74284551 234.155276,10.9586537 233.686523,11.9970703 C233.217771,13.035487 232.553715,13.8281223 231.694336,14.375 C230.834957,14.9218777 229.832363,15.1953125 228.686523,15.1953125 C227.566726,15.1953125 226.573898,14.9202501 225.708008,14.3701172 C224.842118,13.8199842 224.169924,13.0354869 223.691406,12.0166016 C223.212888,10.9977163 222.967122,9.81771504 222.954102,8.4765625 L222.954102,7.45117188 C222.954102,6.08397754 223.191729,4.87630732 223.666992,3.828125 C224.142255,2.77994268 224.814449,1.97754185 225.683594,1.42089844 C226.552739,0.864255029 227.547195,0.5859375 228.666992,0.5859375 C229.806321,0.5859375 230.810543,0.860999854 231.679688,1.41113281 C232.548832,1.96126577 233.217771,2.75878384 233.686523,3.80371094 C234.155276,4.84863804 234.389648,6.06444619 234.389648,7.45117188 L234.389648,8.34960938 Z M232.524414,7.43164062 C232.524414,5.74543428 232.185876,4.4515019 231.508789,3.54980469 C230.831702,2.64810747 229.884446,2.19726562 228.666992,2.19726562 C227.48209,2.19726562 226.549483,2.64810747 225.869141,3.54980469 C225.188799,4.4515019 224.838867,5.70311699 224.819336,7.3046875 L224.819336,8.34960938 C224.819336,9.98373213 225.162757,11.267899 225.849609,12.2021484 C226.536462,13.1363979 227.48209,13.6035156 228.686523,13.6035156 C229.897467,13.6035156 230.834958,13.1624393 231.499023,12.2802734 C232.163089,11.3981076 232.504883,10.1334718 232.524414,8.48632812 L232.524414,7.43164062 Z M128.544922,201.488281 C128.36914,202.992195 127.814132,204.152665 126.879883,204.969727 C125.945633,205.786788 124.703784,206.195312 123.154297,206.195312 C121.474601,206.195312 120.128586,205.593105 119.116211,204.388672 C118.103836,203.184239 117.597656,201.572927 117.597656,199.554688 L117.597656,198.1875 C117.597656,196.865879 117.833656,195.703781 118.305664,194.701172 C118.777672,193.698563 119.44661,192.928714 120.3125,192.391602 C121.17839,191.85449 122.180984,191.585938 123.320312,191.585938 C124.830737,191.585938 126.041662,192.007483 126.953125,192.850586 C127.864588,193.693689 128.395182,194.86067 128.544922,196.351562 L126.660156,196.351562 C126.497395,195.218744 126.144208,194.39844 125.600586,193.890625 C125.056963,193.38281 124.29688,193.128906 123.320312,193.128906 C122.12239,193.128906 121.183272,193.57161 120.50293,194.457031 C119.822588,195.342452 119.482422,196.602205 119.482422,198.236328 L119.482422,199.613281 C119.482422,201.156258 119.804684,202.383459 120.449219,203.294922 C121.093753,204.206385 121.995437,204.662109 123.154297,204.662109 C124.195969,204.662109 124.995114,204.426109 125.551758,203.954102 C126.108401,203.482094 126.477864,202.660162 126.660156,201.488281 L128.544922,201.488281 Z M138.955078,202.289062 L132.998047,202.289062 L131.660156,206 L129.726562,206 L135.15625,191.78125 L136.796875,191.78125 L142.236328,206 L140.3125,206 L138.955078,202.289062 Z M133.564453,200.746094 L138.398438,200.746094 L135.976562,194.095703 L133.564453,200.746094 Z M146.035156,204.466797 L152.773438,204.466797 L152.773438,206 L144.150391,206 L144.150391,191.78125 L146.035156,191.78125 L146.035156,204.466797 Z M156.923828,206 L155.048828,206 L155.048828,191.78125 L156.923828,191.78125 L156.923828,206 Z M168.193359,199.720703 L162.226562,199.720703 L162.226562,206 L160.351562,206 L160.351562,191.78125 L169.160156,191.78125 L169.160156,193.324219 L162.226562,193.324219 L162.226562,198.1875 L168.193359,198.1875 L168.193359,199.720703 Z M182.34375,199.349609 C182.34375,200.742846 182.109377,201.958654 181.640625,202.99707 C181.171873,204.035487 180.507817,204.828122 179.648438,205.375 C178.789058,205.921878 177.786464,206.195312 176.640625,206.195312 C175.520828,206.195312 174.527999,205.92025 173.662109,205.370117 C172.79622,204.819984 172.124026,204.035487 171.645508,203.016602 C171.16699,201.997716 170.921224,200.817715 170.908203,199.476562 L170.908203,198.451172 C170.908203,197.083978 171.145831,195.876307 171.621094,194.828125 C172.096357,193.779943 172.76855,192.977542 173.637695,192.420898 C174.50684,191.864255 175.501296,191.585938 176.621094,191.585938 C177.760422,191.585938 178.764644,191.861 179.633789,192.411133 C180.502934,192.961266 181.171873,193.758784 181.640625,194.803711 C182.109377,195.848638 182.34375,197.064446 182.34375,198.451172 L182.34375,199.349609 Z M180.478516,198.431641 C180.478516,196.745434 180.139977,195.451502 179.462891,194.549805 C178.785804,193.648107 177.838548,193.197266 176.621094,193.197266 C175.436192,193.197266 174.503584,193.648107 173.823242,194.549805 C173.1429,195.451502 172.792969,196.703117 172.773438,198.304688 L172.773438,199.349609 C172.773438,200.983732 173.116859,202.267899 173.803711,203.202148 C174.490563,204.136398 175.436192,204.603516 176.640625,204.603516 C177.851569,204.603516 178.789059,204.162439 179.453125,203.280273 C180.117191,202.398108 180.458984,201.133472 180.478516,199.486328 L180.478516,198.431641 Z M190.371094,200.248047 L187.03125,200.248047 L187.03125,206 L185.146484,206 L185.146484,191.78125 L189.853516,191.78125 C191.455086,191.78125 192.68717,192.14583 193.549805,192.875 C194.412439,193.60417 194.84375,194.665358 194.84375,196.058594 C194.84375,196.944015 194.604495,197.715492 194.125977,198.373047 C193.647459,199.030602 192.981775,199.522134 192.128906,199.847656 L195.46875,205.882812 L195.46875,206 L193.457031,206 L190.371094,200.248047 Z M187.03125,198.714844 L189.912109,198.714844 C190.843104,198.714844 191.583656,198.473961 192.133789,197.992188 C192.683922,197.510414 192.958984,196.865889 192.958984,196.058594 C192.958984,195.179683 192.696943,194.505862 192.172852,194.037109 C191.64876,193.568357 190.891932,193.330729 189.902344,193.324219 L187.03125,193.324219 L187.03125,198.714844 Z M208.398437,206 L206.513672,206 L199.355469,195.042969 L199.355469,206 L197.470703,206 L197.470703,191.78125 L199.355469,191.78125 L206.533203,202.787109 L206.533203,191.78125 L208.398437,191.78125 L208.398437,206 Z M213.740234,206 L211.865234,206 L211.865234,191.78125 L213.740234,191.78125 L213.740234,206 Z M225.019531,202.289062 L219.0625,202.289062 L217.724609,206 L215.791016,206 L221.220703,191.78125 L222.861328,191.78125 L228.300781,206 L226.376953,206 L225.019531,202.289062 Z M219.628906,200.746094 L224.462891,200.746094 L222.041016,194.095703 L219.628906,200.746094 Z" id="path-1"></path>
        <filter x="-50%" y="-50%" width="200%" height="200%" filterUnits="objectBoundingBox" id="filter-2">
            <feOffset dx="0" dy="1" in="SourceAlpha" result="shadowOffsetOuter1"></feOffset>
            <feGaussianBlur stdDeviation="2" in="shadowOffsetOuter1" result="shadowBlurOuter1"></feGaussianBlur>
            <feColorMatrix values="0 0 0 0 0   0 0 0 0 0   0 0 0 0 0  0 0 0 0.3 0" type="matrix" in="shadowBlurOuter1"></feColorMatrix>
        </filter>
    </defs>
    <g id="Front-Page" stroke="none" stroke-width="1" fill="none" fill-rule="evenodd">
        <g id="Desktop-HD" transform="translate(-535.000000, -232.000000)">
            <g id="Header">
                <g id="Top">
                    <g id="Logo" transform="translate(538.000000, 235.000000)">
                        <g id="Welcome">
                            <g id="main-logo">
                                <use fill="black" fill-opacity="1" filter="url(#filter-2)" xlink:href="#path-1"></use>
                                <use fill="#F6F6F6" fill-rule="evenodd" xlink:href="#path-1"></use>
                            </g>
                        </g>
                    </g>
                </g>
            </g>
        </g>
    </g>
</svg>