<?xml version="1.0" encoding="UTF-8" standalone="no"?>
<svg width="87px" height="87px" viewBox="0 0 87 87" version="1.1" xmlns="http://www.w3.org/2000/svg" xmlns:xlink="http://www.w3.org/1999/xlink">
    <!-- Generator: Sketch 3.7.2 (28276) - http://www.bohemiancoding.com/sketch -->
    <title>bootstrap</title>
    <desc>Created with Sketch.</desc>
    <defs>
        <radialGradient cx="50%" cy="0%" fx="50%" fy="0%" r="100%" id="radialGradient-1">
            <stop stop-color="#18E98A" offset="0%"></stop>
            <stop stop-color="#1C9BE2" offset="100%"></stop>
        </radialGradient>
    </defs>
    <g id="iPhone" stroke="none" stroke-width="1" fill="none" fill-rule="evenodd">
        <g id="Main-Page---iPhone---1.0" transform="translate(-117.000000, -2380.000000)" fill="url(#radialGradient-1)">
            <g id="Tools---1-column" transform="translate(10.000000, 1453.000000)">
                <g id="Bootstrap" transform="translate(107.000000, 927.000000)">
                    <path d="M0,75.7821741 C0,81.97829 5.02239167,87 11.2178258,87 L75.7821741,87 C81.97829,87 87,81.9776083 87,75.7821741 L87,11.2178258 C87,5.02171011 81.9776083,0 75.7821741,0 L11.2178258,0 C5.02171011,0 0,5.02239167 0,11.2178258 L0,75.7821741 Z M2,74.2979362 C2,80.2091732 6.79147711,85 12.7020637,85 L74.2979362,85 C80.2091732,85 85,80.2085228 85,74.2979362 L85,12.7020637 C85,6.79082689 80.2085228,2 74.2979362,2 L12.7020637,2 C6.79082689,2 2,6.79147711 2,12.7020637 L2,74.2979362 Z M24.6614173,17.1259843 L24.6614173,69.8740157 L50.028494,69.8740157 C52.3745936,69.8740157 54.659563,69.5785114 56.8834699,68.9874942 C59.1073769,68.396477 61.0868689,67.4853388 62.822005,66.2540528 C64.5571415,65.0227667 65.9378983,63.4344316 66.9643169,61.4889994 C67.9907353,59.5435677 68.503937,57.241097 68.503937,54.5815192 C68.503937,51.2816724 67.7096966,48.4620696 66.1211914,46.1226263 C64.5326862,43.7831827 62.1255263,42.1455966 58.8996393,41.2098193 C61.2457389,40.0770363 63.0175065,38.6241404 64.2149948,36.8510885 C65.4124834,35.0780366 66.0112186,32.8617549 66.0112186,30.2021769 C66.0112186,27.7396048 65.6079887,25.6710752 64.8015169,23.9965262 C63.9950452,22.3219771 62.8586702,20.9798954 61.3923577,19.9702408 C59.9260455,18.9605863 58.1664971,18.2341384 56.1136597,17.7908754 C54.0608224,17.3476124 51.7880725,17.1259843 49.2953413,17.1259843 L24.6614173,17.1259843 Z M36.3070866,38.3622047 L36.3070866,26.0314961 L46.969523,26.0314961 C47.9849982,26.0314961 48.9641918,26.1176379 49.9071331,26.2899241 C50.8500743,26.4622103 51.6842019,26.7698597 52.4095413,27.2128813 C53.134881,27.655903 53.7151437,28.2712017 54.1503472,29.0587958 C54.585551,29.8463899 54.8031496,30.8554798 54.8031496,32.0860956 C54.8031496,34.3012041 54.1503539,35.9009806 52.8447428,36.8854734 C51.539132,37.8699658 49.8708764,38.3622047 47.839926,38.3622047 L36.3070866,38.3622047 Z M36.3070866,60.9685039 L36.3070866,46.5826772 L49.0936843,46.5826772 C51.6360613,46.5826772 53.6799026,47.157615 55.2252689,48.3075083 C56.7706355,49.4574015 57.5433071,51.3779391 57.5433071,54.0691789 C57.5433071,55.4392646 57.3065205,56.564675 56.8329405,57.4454443 C56.3593605,58.3262136 55.7237757,59.0234787 54.9261673,59.537261 C54.1285586,60.051043 53.2063378,60.4180249 52.1594766,60.638217 C51.1126154,60.8584094 50.0159202,60.9685039 48.8693578,60.9685039 L36.3070866,60.9685039 Z" id="bootstrap"></path>
                </g>
            </g>
        </g>
    </g>
</svg>