<?xml version="1.0" encoding="UTF-8" standalone="no"?>
<svg width="100px" height="100px" viewBox="0 0 100 100" version="1.1" xmlns="http://www.w3.org/2000/svg" xmlns:xlink="http://www.w3.org/1999/xlink">
    <!-- Generator: Sketch 3.7.2 (28276) - http://www.bohemiancoding.com/sketch -->
    <title>facebook</title>
    <desc>Created with Sketch.</desc>
    <defs>
        <radialGradient cx="50%" cy="0%" fx="50%" fy="0%" r="100%" id="radialGradient-1">
            <stop stop-color="#18E98A" offset="0%"></stop>
            <stop stop-color="#1C9BE2" offset="100%"></stop>
        </radialGradient>
    </defs>
    <g id="iPhone" stroke="none" stroke-width="1" fill="none" fill-rule="evenodd">
        <g id="Contact---iPhone---1.0" transform="translate(-180.000000, -1441.000000)" fill="url(#radialGradient-1)">
            <g id="Social" transform="translate(10.000000, 1130.000000)">
                <g id="Facebook" transform="translate(170.000000, 311.000000)">
                    <path d="M53.0265918,98.0003597 L7.29830307,98.0003597 C4.37146722,98.0003597 2,95.6281731 2,92.7020566 L2,7.29830307 C2,4.37182691 4.37146722,2 7.29830307,2 L92.7020566,2 C95.6274537,2 98,4.37146722 98,7.29830307 L98,92.7024163 C98,95.6281731 95.6278134,98.0007194 92.7020566,98.0007194 L92.7020566,98.0003597 L68.6059925,98.0003597 L68.6059925,61.1531835 L81.5992509,61.1531835 L83.5445693,46.0670412 L68.605618,46.0670412 L68.605618,36.435206 C68.605618,32.0674157 69.8183521,29.0910112 76.0820225,29.0910112 L84.070412,29.0872659 L84.070412,15.594382 C82.688764,15.4108614 77.9464419,15 72.4299625,15 C60.911985,15 53.0265918,22.0303371 53.0265918,34.941573 L53.0265918,46.0670412 L40,46.0670412 L40,61.1531835 L53.0265918,61.1531835 L53.0265918,98.0003597 Z M94.4434457,99.9606742 C97.4898876,99.9606742 99.9599251,97.4902622 99.9599251,94.4438202 L99.9599251,5.51685393 C99.9599251,2.46928839 97.4895131,-1.13686838e-13 94.4434457,-1.13686838e-13 L5.51685393,-1.13686838e-13 C2.46928839,-1.13686838e-13 2.13162821e-14,2.46966292 2.13162821e-14,5.51685393 L2.13162821e-14,94.4434457 C2.13162821e-14,97.4902622 2.46928839,99.9602996 5.51685393,99.9602996 L94.4434457,99.9602996 L94.4434457,99.9606742 Z" id="facebook"></path>
                </g>
            </g>
        </g>
    </g>
</svg>