<?xml version="1.0" encoding="UTF-8" standalone="no"?>
<svg width="100px" height="101px" viewBox="0 0 100 101" version="1.1" xmlns="http://www.w3.org/2000/svg" xmlns:xlink="http://www.w3.org/1999/xlink">
    <!-- Generator: Sketch 3.8.3 (29802) - http://www.bohemiancoding.com/sketch -->
    <title>Foundation 6</title>
    <desc>Created with Sketch.</desc>
    <defs>
        <radialGradient cx="50%" cy="0%" fx="50%" fy="0%" r="100%" id="radialGradient-1">
            <stop stop-color="#18E98A" offset="0%"></stop>
            <stop stop-color="#1C9BE2" offset="100%"></stop>
        </radialGradient>
    </defs>
    <g id="Symbols" stroke="none" stroke-width="1" fill="none" fill-rule="evenodd">
        <g id="Icons" transform="translate(-20.000000, -629.000000)" fill="url(#radialGradient-1)">
            <path d="M70,729.043062 C97.6142375,729.043062 120,706.657299 120,679.043062 C120,651.428824 97.6142375,629.043062 70,629.043062 C42.3857625,629.043062 20,651.428824 20,679.043062 C20,706.657299 42.3857625,729.043062 70,729.043062 Z M70,727.043062 C96.509668,727.043062 118,705.55273 118,679.043062 C118,652.533394 96.509668,631.043062 70,631.043062 C43.490332,631.043062 22,652.533394 22,679.043062 C22,705.55273 43.490332,727.043062 70,727.043062 Z M50,651.731234 L56.6308244,649.043062 L63.2616487,651.731234 L69.8924731,649.043062 L76.5232975,651.731234 L83.1541219,649.043062 L89.7849462,651.731234 L89.7849462,665.530517 L83.1541219,662.663133 L76.5232975,665.530517 L69.8924731,662.663133 L63.2616487,665.530517 L63.2616487,673.057399 L69.8924731,670.369226 L76.5232975,673.057399 L83.1541219,670.369226 L89.7849462,673.057399 L89.7849462,686.856682 L83.1541219,683.989298 L76.5232975,686.67747 L69.8924731,683.989298 L63.2616487,686.67747 L63.2616487,708.182847 L56.6308244,705.494674 L50,708.182847 L50,651.731234 Z" id="Foundation-6"></path>
        </g>
    </g>
</svg>