<?xml version="1.0" encoding="UTF-8" standalone="no"?>
<svg width="87px" height="87px" viewBox="0 0 87 87" version="1.1" xmlns="http://www.w3.org/2000/svg" xmlns:xlink="http://www.w3.org/1999/xlink">
    <!-- Generator: Sketch 3.7.2 (28276) - http://www.bohemiancoding.com/sketch -->
    <title>foundation</title>
    <desc>Created with Sketch.</desc>
    <defs>
        <radialGradient cx="50%" cy="0%" fx="50%" fy="0%" r="100%" id="radialGradient-1">
            <stop stop-color="#18E98A" offset="0%"></stop>
            <stop stop-color="#1C9BE2" offset="100%"></stop>
        </radialGradient>
    </defs>
    <g id="iPhone" stroke="none" stroke-width="1" fill="none" fill-rule="evenodd">
        <g id="Main-Page---iPhone---1.0" transform="translate(-117.000000, -2209.000000)" fill="url(#radialGradient-1)">
            <g id="Tools---1-column" transform="translate(10.000000, 1453.000000)">
                <g id="Foundation" transform="translate(94.000000, 756.000000)">
                    <path d="M56.5,87 C80.5243866,87 100,67.5243866 100,43.5 C100,19.4756134 80.5243866,0 56.5,0 C32.4756134,0 13,19.4756134 13,43.5 C13,67.5243866 32.4756134,87 56.5,87 Z M56.5,85.6299213 C79.767713,85.6299213 98.6299213,66.767713 98.6299213,43.5 C98.6299213,20.232287 79.767713,1.37007874 56.5,1.37007874 C33.232287,1.37007874 14.3700787,20.232287 14.3700787,43.5 C14.3700787,66.767713 33.232287,85.6299213 56.5,85.6299213 Z M39.7165354,21.5164639 L45.5393701,19.1811024 L51.3622047,21.5164639 L57.1850394,19.1811024 L63.007874,21.5164639 L68.8307087,19.1811024 L74.6535433,21.5164639 L74.6535433,33.5046528 L68.8307087,31.0136006 L63.007874,33.5046528 L57.1850394,31.0136006 L51.3622047,33.5046528 L51.3622047,40.043665 L57.1850394,37.7083035 L63.007874,40.043665 L68.8307087,37.7083035 L74.6535433,40.043665 L74.6535433,52.031854 L68.8307087,49.5408017 L63.007874,51.8761632 L57.1850394,49.5408017 L51.3622047,51.8761632 L51.3622047,70.5590551 L45.5393701,68.2236936 L39.7165354,70.5590551 L39.7165354,21.5164639 Z" id="foundation"></path>
                </g>
            </g>
        </g>
    </g>
</svg>