<?xml version="1.0" encoding="UTF-8"?>
<svg width="100px" height="100px" viewBox="0 0 100 100" version="1.1" xmlns="http://www.w3.org/2000/svg" xmlns:xlink="http://www.w3.org/1999/xlink">
    <!-- Generator: Sketch 40.1 (33804) - http://www.bohemiancoding.com/sketch -->
    <title>GitHub</title>
    <desc>Created with Sketch.</desc>
    <defs>
        <radialGradient cx="50%" cy="0%" fx="50%" fy="0%" r="100%" id="radialGradient-1">
            <stop stop-color="#18E98A" offset="0%"></stop>
            <stop stop-color="#1C9BE2" offset="100%"></stop>
        </radialGradient>
    </defs>
    <g id="Symbols" stroke="none" stroke-width="1" fill="none" fill-rule="evenodd">
        <g id="Icons" transform="translate(-318.000000, -305.000000)" fill="url(#radialGradient-1)">
            <path d="M318,354.99995 C318,341.19788 322.882808,329.414038 332.648523,319.648423 C342.414038,309.882808 354.19788,305 368.00005,305 C381.80202,305 393.585862,309.882808 403.351577,319.648423 C413.117092,329.414038 418,341.19788 418,354.99995 C418,368.80202 413.117192,380.585862 403.351577,390.351477 C393.585962,400.117092 381.80212,405 368.00005,405 C354.19788,405 342.414038,400.117192 332.648523,390.351477 C322.882808,380.585962 318,368.80192 318,354.99995 L318,354.99995 Z M323.468745,354.99995 C323.468745,367.239621 327.830719,377.721281 336.554669,386.445331 C345.278619,395.169181 355.760379,399.531255 368.00005,399.531255 C380.239621,399.531255 390.721381,395.169281 399.445331,386.445331 C408.169281,377.721381 412.531255,367.239621 412.531255,354.99995 C412.531255,342.760379 408.169381,332.278619 399.445331,323.554669 C390.721381,314.830719 380.239521,310.468745 368.00005,310.468745 C355.760379,310.468745 345.278719,314.830719 336.554669,323.554669 C327.830719,332.278619 323.468745,342.760379 323.468745,354.99995 L323.468745,354.99995 Z M337.53133,365.742127 C337.270914,365.48171 337.270914,365.221294 337.53133,364.960878 C338.052063,364.440045 338.703204,364.244732 339.484354,364.374941 C340.265603,364.505149 340.721331,364.635357 340.85154,364.765565 C341.762997,365.15619 342.772161,366.035045 343.87883,367.402331 C344.9855,368.769517 345.864455,369.713477 346.515596,370.23431 C349.640593,372.838474 352.830594,373.033786 356.085799,370.820247 C356.346216,369.908789 356.769442,369.12754 357.355279,368.476399 C357.941116,367.825358 358.494651,367.369729 359.015484,367.109213 C359.536417,366.848796 360.447874,366.458172 361.749956,365.937339 C357.452986,365.546714 353.969966,364.797967 351.300698,363.691198 C348.63143,362.584428 346.515496,361.18474 344.952998,359.492033 C342.869667,357.148285 341.600087,354.088393 341.144358,350.312355 C340.688529,346.536317 340.981548,343.085799 342.023313,339.960803 C342.804563,338.007679 343.911332,336.249969 345.343523,334.68737 C344.301857,331.432165 344.497169,327.721231 345.92946,323.554569 C350.096122,323.814985 353.87216,325.247276 357.257573,327.85144 C363.767983,326.158733 370.53881,326.093629 377.569953,327.656127 C378.48141,327.005086 379.881199,326.191335 381.769117,325.214674 C383.657136,324.238112 386.033486,323.684677 388.898067,323.554469 C389.418899,324.986759 389.777022,326.679466 389.972334,328.632589 C390.167647,330.585712 390.07004,332.408627 389.679416,334.101333 C392.674104,337.22633 394.236603,341.392993 394.366811,346.601321 C394.366811,350.767983 393.650766,354.218501 392.218476,356.952873 C390.786186,359.687245 388.247126,361.965889 384.601296,363.788704 C382.12734,364.960678 378.872135,365.676723 374.835681,365.937139 C376.658695,366.848596 377.99328,367.792656 378.839633,368.769217 C379.686086,369.745779 380.239421,371.275675 380.499937,373.359007 L380.499937,379.511494 C380.499937,379.511494 380.564942,381.497119 380.69515,385.46847 C381.085774,386.119611 381.541603,386.672945 382.062436,387.128774 C382.583269,387.584503 383.038997,387.910023 383.429622,388.105336 C383.820147,388.300648 383.950455,388.593666 383.820147,388.984291 C383.689938,389.374916 383.169106,389.570228 382.257748,389.570228 C380.044109,389.570228 378.286398,388.788979 376.984316,387.22638 C376.593691,386.575339 376.398379,385.79419 376.398379,384.882633 L376.398379,375.507642 C376.398379,374.465976 376.137963,373.717229 375.61713,373.2615 C375.096297,372.805672 374.575464,372.512753 374.054631,372.382545 L374.054631,384.68722 C374.054631,386.90076 374.315048,388.33305 374.835881,388.984091 C375.356713,389.635132 375.682234,390.286273 375.812542,390.937214 C375.94275,391.067422 375.845044,391.165028 375.519524,391.230132 C375.194103,391.295137 374.640668,391.19763 373.859319,390.937214 C372.166612,390.546589 370.994739,389.667634 370.343698,388.300448 C369.692657,386.933262 369.367136,385.46837 369.367136,383.905871 L369.367136,371.796808 L366.828076,371.796808 L366.828076,383.906171 C366.828076,385.46867 366.502456,386.966164 365.851415,388.398354 C364.940057,390.221369 363.247251,391.19783 360.773395,391.328039 C360.38277,391.19783 360.187458,391.067622 360.187458,390.937514 C360.317666,390.807206 360.708291,390.156265 361.359332,388.984391 C361.48954,388.723975 361.65235,388.203142 361.847662,387.421893 C362.043075,386.640643 362.140681,385.729186 362.140681,384.68752 L362.140681,372.382745 C361.619848,372.512953 361.131517,372.805872 360.675789,373.2617 C360.22006,373.717529 359.992146,374.466176 359.992146,375.507842 L359.992146,384.882833 C359.992146,385.79419 359.796833,386.575539 359.406209,387.22658 C358.234335,388.789079 356.476524,389.570428 354.132876,389.570428 C353.221419,389.570428 352.700586,389.375116 352.570378,388.984491 C352.44007,388.724075 352.472672,388.49616 352.668084,388.300848 C352.863496,388.105536 353.156415,387.877621 353.547039,387.617205 C353.937664,387.356788 354.19808,387.161376 354.328289,387.031268 C354.849121,386.640643 355.239646,386.119811 355.500163,385.46877 C355.890787,384.947937 355.988393,383.580751 355.793081,381.367211 C355.597769,379.153672 355.565167,377.721381 355.695375,377.07034 C352.309862,378.242214 348.859444,377.656177 345.343723,375.31253 C344.302057,374.270864 343.260391,372.77337 342.218726,370.820347 C341.437477,369.387956 339.874978,367.69525 337.53133,365.742127 L337.53133,365.742127 L337.53133,365.742127 Z" id="GitHub"></path>
        </g>
    </g>
</svg>