<?xml version="1.0" encoding="UTF-8" standalone="no"?>
<svg width="62px" height="87px" viewBox="0 0 62 87" version="1.1" xmlns="http://www.w3.org/2000/svg" xmlns:xlink="http://www.w3.org/1999/xlink">
    <!-- Generator: Sketch 3.7.2 (28276) - http://www.bohemiancoding.com/sketch -->
    <title>html5</title>
    <desc>Created with Sketch.</desc>
    <defs>
        <linearGradient x1="50%" y1="0%" x2="50%" y2="100%" id="linearGradient-1">
            <stop stop-color="#18E98A" offset="0%"></stop>
            <stop stop-color="#1C9BE2" offset="100%"></stop>
        </linearGradient>
    </defs>
    <g id="iPad" stroke="none" stroke-width="1" fill="none" fill-rule="evenodd">
        <g id="Main-Page---iPad---1.0" transform="translate(-98.000000, -2142.000000)" fill="url(#linearGradient-1)">
            <g id="Tools" transform="translate(85.000000, 1702.000000)">
                <g id="html5" transform="translate(12.000000, 440.000000)">
                    <path d="M6.60912109,80.0123027 L1,17.0975391 L62.6362715,17.0975391 L57.0210332,80.0024473 L31.7803281,87 L6.60912109,80.0123027 Z M21.6100006,45.5800781 L20.9000015,37.6699219 L50.3999939,37.6699219 L51.1199951,29.9599609 L12.4700012,29.9599609 L14.5500031,53.2900391 L41.2930645,53.2920879 L40.3974063,63.2994668 L31.791543,65.6222988 L23.1900024,63.3000488 L22.6399994,57.1499023 L14.9000015,57.1499023 L15.9800034,69.2700195 L31.791543,73.6500879 L47.6100801,69.2659336 L47.7261367,67.962293 L49.539373,47.6479629 L49.7276465,45.5759355 L47.6483125,45.5759355 L21.6100006,45.5800781 Z M6.73452344,0 L10.6558105,0 L10.6558105,3.87421875 L14.2428613,3.87421875 L14.2428613,0 L18.1643184,0 L18.1643184,11.7320859 L14.2430313,11.7320859 L14.2430313,7.80349219 L10.6559805,7.80349219 L10.6559805,11.7320859 L6.73486328,11.7320859 L6.73486328,0 L6.73452344,0 Z M23.3209375,3.89053125 L19.8689746,3.89053125 L19.8689746,0 L30.6963965,0 L30.6963965,3.89053125 L27.2427344,3.89053125 L27.2427344,11.7320859 L23.3212773,11.7320859 L23.3209375,3.89053125 Z M32.4146465,0 L36.5033066,0 L39.0184902,4.12230469 L41.5312949,0 L45.6216543,0 L45.6216543,11.7320859 L41.7165098,11.7320859 L41.7165098,5.91701953 L39.0186602,10.0884316 L38.9513711,10.0884316 L36.2514824,5.91701953 L36.2514824,11.7320859 L32.4148164,11.7320859 L32.4148164,0 L32.4146465,0 Z M47.573207,0 L51.4956836,0 L51.4956836,7.85412891 L57.0101582,7.85412891 L57.0101582,11.7320859 L47.573207,11.7320859 L47.573207,0 Z"></path>
                </g>
            </g>
        </g>
    </g>
</svg>