<?xml version="1.0" encoding="UTF-8" standalone="no"?>
<svg width="87px" height="87px" viewBox="0 0 87 87" version="1.1" xmlns="http://www.w3.org/2000/svg" xmlns:xlink="http://www.w3.org/1999/xlink">
    <!-- Generator: Sketch 3.7.2 (28276) - http://www.bohemiancoding.com/sketch -->
    <title>js</title>
    <desc>Created with Sketch.</desc>
    <defs>
        <linearGradient x1="50%" y1="0%" x2="50%" y2="100%" id="linearGradient-1">
            <stop stop-color="#18E98A" offset="0%"></stop>
            <stop stop-color="#1C9BE2" offset="100%"></stop>
        </linearGradient>
    </defs>
    <g id="iPhone" stroke="none" stroke-width="1" fill="none" fill-rule="evenodd">
        <g id="Main-Page---iPhone---1.0" transform="translate(-117.000000, -2872.000000)" fill="url(#linearGradient-1)">
            <g id="Tools---1-column" transform="translate(10.000000, 1453.000000)">
                <g id="javascript" transform="translate(107.000000, 1419.000000)">
                    <path d="M0,0 L87,0 L87,87 L0,87 L0,0 Z M2,2 L85,2 L85,85 L2,85 L2,2 Z M22.6064384,72.6416177 L29.3165017,68.594309 C30.6109989,70.8818701 31.7885863,72.8173707 34.6132096,72.8173707 C37.3207838,72.8173707 39.0278054,71.7617439 39.0278054,67.6557587 L39.0278054,39.7322835 L47.2677165,39.7322835 L47.2677165,67.7718637 C47.2677165,76.2779117 42.2650924,80.1496063 34.966444,80.1496063 C28.3748214,80.1496063 24.5485321,76.7470482 22.6062992,72.6409241 L22.6064384,72.6416177 Z M52.0629921,71.8573897 L58.7975711,68.0302233 C60.5704172,70.8719056 62.8745578,72.9592888 66.9508459,72.9592888 C70.3779289,72.9592888 72.563321,71.2775076 72.563321,68.9579797 C72.563321,66.1745734 70.3184149,65.188678 66.5371818,63.5655845 L64.4699794,62.6951443 C58.5025161,60.2021591 54.5439985,57.0708787 54.5439985,50.460169 C54.5439985,44.3714767 59.2703301,39.7322835 66.6556509,39.7322835 C71.9138364,39.7322835 75.6949296,41.5300687 78.4123151,46.2271265 L71.972512,50.2860263 C70.5545149,47.7927667 69.0188868,46.8071456 66.6557908,46.8071456 C64.2334603,46.8071456 62.6972733,48.3147838 62.6972733,50.2860263 C62.6972733,52.7215579 64.2334603,53.7075904 67.7778947,55.2153659 L69.8455163,56.0851203 C76.8761284,59.0426693 80.8346457,62.057672 80.8346457,68.8419757 C80.8346457,76.1488455 74.9857914,80.1496063 67.1282703,80.1496063 C59.4478942,80.1496063 54.4850435,76.5545846 52.0631321,71.8573897 L52.0629921,71.8573897 Z" id="js"></path>
                </g>
            </g>
        </g>
    </g>
</svg>