<?xml version="1.0" encoding="UTF-8" standalone="no"?>
<svg width="100px" height="102px" viewBox="0 0 100 102" version="1.1" xmlns="http://www.w3.org/2000/svg" xmlns:xlink="http://www.w3.org/1999/xlink">
    <!-- Generator: Sketch 3.7.2 (28276) - http://www.bohemiancoding.com/sketch -->
    <title>Combined Shape</title>
    <desc>Created with Sketch.</desc>
    <defs>
        <linearGradient x1="50%" y1="0%" x2="50%" y2="100%" id="linearGradient-1">
            <stop stop-color="#18E98A" offset="0%"></stop>
            <stop stop-color="#1C9BE2" offset="100%"></stop>
        </linearGradient>
    </defs>
    <g id="iPhone" stroke="none" stroke-width="1" fill="none" fill-rule="evenodd">
        <g id="Main-Page---iPhone---1.0" transform="translate(-110.000000, -3219.000000)" fill="url(#linearGradient-1)">
            <g id="CV" transform="translate(8.000000, 3093.000000)">
                <g id="SSE" transform="translate(2.000000, 126.000000)">
                    <g id="HHSlogo-THE-STUDENT-svart" transform="translate(100.000000, 0.000000)">
                        <path d="M57.03125,19.1967509 C56.8976119,18.1432753 56.2804779,16.9084113 55.889158,16.318721 C53.9150831,13.8169832 51.5695626,13.0025136 48.7991415,13.3620895 C46.0016501,13.7216654 43.7178088,16.4165285 42.96875,19.0601761 C46.935061,21.6351806 53.0748762,21.8564034 57.03125,19.1967509 Z M39.84375,20.2813271 L39.9701625,20.4200327 C40.8684109,20.9709843 41.6847824,21.4951625 42.6395567,21.891925 C47.709076,24.4189477 55.0344938,23.7944499 59.375,20.4048719 C58.6925779,20.1403635 57.9834344,19.8490817 57.2441438,19.7903738 C53.2147015,22.3315896 46.8276141,22.3715884 42.659769,20.0335924 C42.2229777,19.9261762 42.0085218,19.5113497 41.5141768,19.5319942 L39.84375,20.2813271 Z M32.8125,24.1340894 C33.4324566,24.2540983 34.0842785,24.2672454 34.6836998,24.0363292 C36.3498996,23.0176015 38.1247954,22.1630433 39.84375,21.3071367 L38.6017124,21.09375 C36.4391224,21.5087248 34.564382,23.0361422 32.8125,24.1340894 Z M38.7910253,24.0193476 C39.9567007,23.4495501 41.0984664,22.7810331 42.1875,22.1356534 C41.7951204,22.103261 41.5134455,21.8018576 41.0663686,21.8916308 C39.5335333,22.4537157 38.0249352,23.1151373 36.71875,24.1014083 C37.3964073,24.2630617 38.1303995,24.2772526 38.7910253,24.0193476 Z M39.84375,25.6402866 C41.7365631,26.2677816 43.1799691,24.6589443 44.53125,23.5961928 C42.6119212,22.9038124 41.194351,24.6416146 39.84375,25.6402866 Z M42.96875,25.6765632 C44.5254109,26.1035542 45.8216329,25.1377929 46.875,24.3407845 C45.2669149,23.8385515 44.1518388,25.0058871 42.96875,25.6765632 Z M30.5385719,25.4950956 C28.6329492,27.0777592 26.7543312,28.6063822 25,30.4403169 C25.7268501,30.5387601 26.5109633,30.3907511 27.0422731,29.8520672 C28.8964893,28.2404903 30.8854037,26.4117187 32.8125,25.0496918 C32.0078893,24.9491833 31.148293,24.9577885 30.5385719,25.4950956 Z M45.3125,26.5081731 C45.6238806,26.552195 46.0238291,26.6321963 46.3159921,26.4383307 C46.6978371,26.247428 46.9067239,25.6446667 46.8710739,25 C46.3290823,25.4910134 45.8322103,25.9828734 45.3125,26.5081731 Z M31.25,28.7988627 C31.7790948,28.8995935 32.468079,28.9744959 32.9752802,28.809194 C34.2633522,28.0716084 35.586255,26.891988 36.71875,25.9440853 C34.4255637,25.0932236 32.9941883,27.8055758 31.25,28.7988627 Z M35.9375,28.7715432 L36.4521609,28.8444196 C38.2222934,29.2546871 39.3741876,27.5222327 40.625,26.6249655 L39.2498232,26.5625 C37.8692704,26.747583 37.0417272,28.024656 35.9375,28.7715432 Z M42.8109188,26.574994 C41.559879,26.4419847 40.7696548,27.4008023 39.84375,28.032681 C41.3454964,28.4144481 42.6755943,27.5473494 43.75,26.6206842 C43.4070591,26.6680666 43.1531475,26.5546872 42.8109188,26.574994 Z M46.09375,27.4656884 C44.9221447,27.1322919 43.8192247,27.5219566 42.96875,28.157155 C44.1346016,28.7074999 45.2195411,27.9080104 46.09375,27.4656884 Z M66.6633754,45.4161788 C65.9776586,45.2516591 65.1294653,45.2350188 64.6138514,45.7273218 C63.8896708,46.0645242 64.3774316,47.1866485 63.3107242,47.0579213 C63.1399581,47.1448907 62.5613431,47.3448888 62.5,47.7455129 C63.0026822,47.8054809 63.5560967,47.9420573 63.8654651,48.3756482 C64.3018303,47.8315403 64.8963614,47.3404932 65.6411003,47.2798972 C66.705155,47.1254246 67.6226494,47.6459848 68.2423809,48.4375 C68.648572,48.0431553 69.1277116,47.9772218 69.53125,47.7090925 C69.2507295,47.2258946 68.695657,47.1144357 68.111405,47.1533678 L67.834532,46.4692299 C67.6322654,45.9882298 67.0824982,45.6758309 66.6633754,45.4161788 Z M72.7331245,51.7099759 C73.2307908,50.6384816 74.1710211,49.6876215 75,48.7613735 C74.3914311,48.5270383 73.6377822,48.511439 73.1010558,48.8327833 C72.1957006,49.4241677 71.9784293,50.4734764 72.0673606,51.529718 L70.761989,51.2523983 C70.9102078,50.8391918 71.0580778,50.4547573 71.0685404,49.9559284 C70.9042791,49.7579914 70.7707078,49.4772051 70.4652027,49.4439267 C70.0487951,49.3517179 69.6278538,49.4539796 69.3687325,49.8089489 C69.0283524,50.106721 69.2689899,50.5840576 69.0956612,50.8849496 C68.7061073,50.8225526 68.286561,50.8683104 67.9276971,50.6942922 C68.1080009,50.0599233 68.0943997,49.3936625 67.6298646,48.8858207 C67.1879982,48.7100693 66.8308781,48.3973913 66.3004293,48.4417624 C65.7961366,48.5419442 65.2315103,48.8074779 64.9699477,49.3018004 C64.7676727,49.6578096 64.8133589,50.1299465 64.8618352,50.4918488 C64.3864888,50.5102212 63.991355,50.7507961 63.5191474,50.6305087 C63.6363274,50.3830008 63.5306561,50.1032545 63.5355386,49.8536667 C63.3761598,49.4622992 63.1034373,49.1787397 62.6859834,49.1156495 C62.3787346,49.1364485 62.068347,49.2681753 61.8964133,49.5149899 C61.663797,49.9535018 61.7080882,50.5088347 61.9783695,50.9036687 C61.6672845,51.0912062 61.3028406,51.1941611 60.9969868,51.1882681 C61.0928931,50.5792045 60.8533018,50.0200586 60.7256592,49.4629925 C60.2942554,48.7603335 59.4328427,48.5485306 58.59375,48.6695113 C59.4290064,50.0734426 60.2346191,51.5324912 60.7598367,53.125 C64.1332963,51.974123 68.5972973,52.0119078 72.0914243,53.0282847 C72.3236919,52.5887329 72.5015544,52.1211024 72.7331245,51.7099759 Z M70.761508,55.46875 C70.9032724,55.0017197 71.1521921,54.5086414 71.0813098,54.0074919 C68.0124097,52.9974884 63.9435047,52.6973857 60.9375,53.9498927 C61.0895806,54.36446 60.9987316,54.9492568 61.2326761,55.2482589 C64.2047372,54.3769337 67.8243888,54.4613147 70.761508,55.46875 Z M70.2470875,56.9977257 C70.4141516,56.732769 70.2329694,56.4066944 70.0205257,56.2408026 C67.4839753,55.3539199 64.1517697,55.2306764 61.5022745,55.873423 C61.3116803,55.9775251 61.0128474,56.132335 60.954022,56.3731131 C60.8945243,56.6407562 60.9953678,56.9379509 61.262267,57.0783209 C63.3403156,58.0353886 66.0335095,57.8503555 68.3774488,57.6569271 C69.0514196,57.5907719 69.8050568,57.5793542 70.2470875,56.9977257 Z M31.0753249,48.400973 C31.4302885,47.8743486 32.0477599,47.4293542 32.7104686,47.3407365 C33.8509747,47.1352322 34.7636438,47.6872667 35.4346075,48.4375 L36.1547707,48.1220971 C36.3687394,47.9991757 36.6860603,47.9801182 36.71875,47.7012423 C36.3855796,47.2371903 35.8321666,47.1498431 35.2777631,47.1387261 C35.1787035,46.8315815 35.1328059,46.5253898 34.9006762,46.2665244 C34.4383981,45.6474708 33.7588493,45.3031639 32.9657122,45.3126927 C32.3568259,45.3768532 31.7710535,45.5934743 31.4685915,46.1464616 C31.1446666,46.4450303 31.2863219,47.2105097 30.7071534,47.1228448 C30.3086037,47.216227 29.724152,47.3823455 29.6875,47.8390921 C30.2432243,47.7997064 30.6856905,48.1132036 31.0753249,48.400973 Z M42.1875,48.6664831 C41.5276781,48.3521859 40.6361021,48.4433014 40.0718311,48.813906 C39.2514838,49.4520557 39.2316787,50.4075741 39.2104838,51.3900517 C38.7949246,51.3269192 38.3807552,51.1822264 37.9936875,51.0921347 C38.223357,50.7416642 38.2897213,50.2509373 38.2157129,49.8131052 C38.0263485,49.5633054 37.7271876,49.2561745 37.3651368,49.2766499 C37.0301878,49.3520676 36.6663997,49.453762 36.492671,49.7772732 C36.3199846,50.0472072 36.1726626,50.4266844 36.3328405,50.7304028 C35.9707897,50.7768137 35.4707983,50.7396167 35.1407137,50.5962889 C35.2591967,50.2444534 35.326256,49.6987842 35.1115273,49.3390998 C34.9006205,48.7893355 34.2661631,48.5579636 33.7404598,48.4375 C33.2390786,48.5095051 32.7373499,48.5538685 32.3947568,48.9835105 C32.1087992,49.3599165 31.8735705,49.9557504 32.0851721,50.4515962 C31.6390366,50.5242838 31.1908164,50.678873 30.7189691,50.6416761 C30.7269606,50.25981 30.8204267,49.7974074 30.5487149,49.4913002 C30.3030624,49.2947365 30.0292659,49.0715547 29.6661727,49.1459486 C29.386122,49.2493493 29.0761898,49.4612697 28.9865458,49.7325686 C28.7829357,50.1649407 29.0233763,50.6334859 29.1269186,50.963481 C28.7930119,50.9839564 28.5362408,51.3064438 28.1769697,51.1900753 C28.2169273,50.6177881 28.2308256,49.9898761 27.9069952,49.5192833 C27.4778852,48.800597 26.5911735,48.6460078 25.78125,48.8203899 C26.7256396,50.1502666 27.3892835,51.6381452 27.9966393,53.125 C31.3850452,51.9940758 35.8356288,51.8940876 39.2897041,52.8932868 C39.9078311,51.2675406 40.8550003,49.8943242 42.1875,48.6664831 Z M28.3144232,53.9296683 L28.125,54.1374367 L28.4204338,55.4208911 C31.3628082,54.4583953 35.0861381,54.4561163 38.0188751,55.46875 C38.107605,54.9844634 38.3561814,54.4739684 38.2591436,53.9851238 C35.2217252,52.8482848 31.3395457,52.8471453 28.3144232,53.9296683 Z M38.2800674,56.5593873 C38.1010564,56.1486229 37.6215747,56.0297084 37.2234008,55.8846328 C35.3031317,55.5180366 33.1118367,55.3080677 31.1775144,55.6209826 C30.3694555,55.8751197 29.0193448,55.7646991 28.90625,56.6861161 C29.0574892,57.1519209 29.5369709,57.2708353 29.9087114,57.4420721 C32.4426368,57.9037998 35.3851087,58.0206757 37.7831865,57.2834063 C38.0535432,57.1529401 38.300478,56.8865718 38.2800674,56.5593873 Z M49.3910181,65.1594096 C50.3882443,64.8245143 51.0686891,65.281276 51.7338321,65.8779468 C52.1700982,66.7737442 52.2449797,66.3315431 53.125,65.9947486 C52.9026345,65.4335299 52.0141493,64.9334028 51.7553198,64.8650309 C51.5065831,64.3281856 51.4193298,64.1616875 51.1139436,63.7761464 C50.5523324,63.2576602 50.0835091,63.2728539 49.4317146,63.2851988 C48.4667201,63.3412257 48.0545463,64.3212218 47.8302274,65.0767937 C47.5114927,65.3493313 47.0130424,65.5158294 46.875,65.866868 L47.6980453,66.365096 C48.1258465,65.8418616 48.7099221,65.3474321 49.3910181,65.1594096 Z M59.2980753,67.3318695 C59.5017395,66.9568749 60.0385774,66.6140906 60.15625,66.2916495 C59.6013087,66.226551 59.0164269,66.1868816 58.5384254,66.3947221 C57.3369809,66.5598418 57.0031109,67.8285848 56.7872617,68.8006548 L55.5127069,68.5026256 C55.5506546,68.016082 55.5332474,67.526826 55.178837,67.1942133 C54.9041514,66.9989177 54.4877714,66.9361926 54.1514644,67.0368919 C53.6727666,67.2715178 53.5780714,67.7577223 53.3740591,68.1873047 C53.0144265,68.0994895 52.5371212,68.2527423 52.207429,68.0550733 C52.3024722,67.5152981 52.2868058,66.9178836 52.0176906,66.4781296 C51.6900872,66.2007828 51.4167942,65.9505604 50.9704738,65.9410669 C50.4973462,65.9586977 50.0496332,66.0583798 49.734563,66.43134 C49.4194928,66.8324418 49.2690946,67.3444145 49.3690119,67.8892756 C49.1684811,68.1564507 48.6695909,68.0381206 48.3061287,68.0849102 C47.9231704,67.7519584 48.2145668,67.1603078 47.7195062,66.8514289 C47.5015682,66.6300261 47.0548996,66.6754595 46.7749919,66.7510687 C46.4926472,66.9080511 46.2364133,67.1742091 46.1187407,67.4702039 C45.9457132,67.7377181 46.1591254,68.2032403 45.9321356,68.3615789 C44.2105641,69.4126486 45.502526,66.9829822 44.527375,66.3523403 C44.3456439,65.7386512 42.8883136,65.4921583 42.1875,65.694235 C43.1891099,67.0443511 44.0350996,68.5124582 44.3905545,70.0938097 L44.6415662,70.0988955 C48.6570577,68.6080717 53.7664173,69.3628076 57.7857383,70.3125 C58.2804508,69.3190695 58.5826397,68.2130729 59.2980753,67.3318695 Z M57.03125,71.058798 C53.2540352,70.2185555 48.5969129,69.9488336 44.8563463,70.985504 C44.1565389,71.0435528 44.8141136,71.5709765 44.7505899,71.875 C48.3529401,70.7656219 52.9507271,71.1983498 56.6759363,71.8741205 L57.03125,71.058798 Z M56.1814027,74.2212402 C56.2983699,73.978971 56.2773579,73.6104003 56.0276643,73.4825679 C55.3353164,73.0389818 54.5263514,72.8667525 53.6862185,72.8173801 C51.0817715,72.72629 48.2027667,72.3546574 45.8609706,73.1897781 C45.5773076,73.365452 45.2085456,73.6031284 45.3398711,74.0647029 C45.8889867,74.6598508 46.674138,74.6476034 47.3987045,74.8470066 C49.7205391,75.0226805 52.1870068,75.0483235 54.4864284,74.9174292 C55.1048839,74.8094989 55.7506551,74.7624229 56.1814027,74.2212402 Z M29.4295549,34.2032806 C29.6825423,33.9536828 29.7387273,33.5630206 29.6446718,33.2391481 C29.5009501,32.9374428 29.1545281,32.840425 28.8320079,32.8125 C28.5333896,32.8775624 28.2316672,33.0802346 28.1522012,33.3784852 C28.0714935,33.7458287 28.1646178,34.09302 28.5091773,34.2821616 C28.8050019,34.4243776 29.1781195,34.4071044 29.4295549,34.2032806 Z M25.0006883,36.677438 C25.7900604,36.8497849 26.5063994,36.4600003 26.9787258,35.9329394 C27.424774,35.378824 27.4380838,34.5237696 27.1483402,33.8778027 C26.9364076,33.4472694 26.4524778,33.01206 25.9627462,32.8978301 C25.1474371,32.6446538 24.2959527,32.9786594 23.7676569,33.5855477 C23.3775781,34.0337833 23.4209202,34.7291831 23.4663099,35.3440875 C23.7014493,35.9893864 24.3758113,36.5077631 25.0006883,36.677438 Z M18.9245054,38.3851539 C18.2554326,40.0867587 19.7069861,41.4421305 19.9779606,42.96875 C20.7310021,40.9960029 21.5636633,39.0521368 22.5836648,37.1656931 C22.7529403,36.5972456 22.6291618,35.9700167 22.1805484,35.5279664 C21.9176028,35.224885 21.4633023,35.1905675 21.0350957,35.15625 C20.767132,35.1790151 20.551356,35.311868 20.3600012,35.5534497 C19.7876094,36.2241701 19.9846513,37.3416977 20.1873804,38.0790145 C19.7049789,38.0980421 19.2252536,37.9814984 18.9245054,38.3851539 Z M21.8050307,43.3501712 C22.815388,42.845935 24.329061,43.0893239 24.8100223,41.8090501 C25.0068099,41.3198759 24.6067992,40.9299743 24.5319454,40.5174797 C25.3980143,40.5589003 26.1909229,40.1330552 26.5553696,39.3446941 C26.5628211,38.8520967 26.6264977,38.2773428 26.1702619,37.9695978 C25.6384949,37.3308302 24.5532838,37.3958708 23.9771465,37.8521823 C22.5406982,39.6099915 21.8036759,41.6799957 21.09375,43.75 L21.8050307,43.3501712 Z M18.1457878,42.4600089 C18.0029871,42.6696644 17.9050665,42.9504794 18.01785,43.1874814 C18.1312163,43.4009596 18.2442912,43.6379615 18.5228984,43.7129435 C18.8475516,43.8355612 19.1072159,43.6279639 19.3660058,43.4674142 C19.580207,43.1886576 19.5869099,42.7655238 19.3817431,42.479416 C19.0847757,42.0751012 18.4313894,42.1118571 18.1457878,42.4600089 Z M24.0980865,44.9990828 C24.1953185,44.7654787 24.2943024,44.414779 24.134001,44.1776532 C23.9520925,43.869507 23.5573248,43.6989995 23.1829963,43.7635635 C22.8302748,43.8988543 22.7085158,44.2260762 22.65625,44.5770693 C22.6974203,44.9298233 22.9269228,45.1916008 23.2758484,45.2913814 C23.625066,45.3673908 23.9074184,45.2309261 24.0980865,44.9990828 Z M18.3830447,45.4605875 C18.0000293,46.1149804 17.8264754,47.010726 18.1070874,47.7542641 C18.4395661,48.5786934 19.2551364,49.1723354 20.1588136,49.2126159 C21.0624907,49.2796399 21.8145576,48.7893406 22.3305645,48.1372589 C22.6873142,47.4297091 22.8096664,46.4537327 22.3950654,45.7607102 C22.0575995,45.2007454 21.558549,44.8233634 21.0026445,44.629885 C20.0228298,44.3499026 19.0333731,44.6780895 18.3830447,45.4605875 Z M21.0785188,55.5787952 C21.5057591,54.3926004 23.6895529,54.1900398 23.3088149,52.7069722 C23.2270725,52.3935705 22.8815746,52.2075389 22.6232686,52.0234518 C22.626175,51.8409852 22.831076,51.7657947 22.9793022,51.6124969 C23.3353358,51.2021901 23.6383276,50.5066781 23.2695786,49.9832616 C23.0127258,49.693843 22.7278989,49.3784967 22.3231831,49.269276 C21.686319,49.1052829 21.1293807,49.3564581 20.7439198,49.7920444 C19.8076968,51.8011213 20.6661737,54.2250423 20.8045909,56.25 L21.0785188,55.5787952 Z M16.8619005,52.7494409 C16.0339957,54.8964839 18.6791797,55.4177232 19.5302937,57.03125 C19.5402405,56.3858393 19.4732654,55.5148856 19.2978703,54.8386074 C19.0312962,53.1219551 19.4324835,51.1362648 18.6582914,49.6630447 C18.3433096,49.4343448 18.0024662,49.1765313 17.5508818,49.2245863 C17.2299319,49.35893 16.8297392,49.5213349 16.6125676,49.8829754 C16.3148269,50.2705726 16.3851176,50.8886235 16.5376351,51.3407618 C16.4772912,51.8444628 17.8499487,52.2874811 16.8619005,52.7494409 Z M22.7578238,57.8125 C22.9691823,57.7485816 23.2284838,57.6396107 23.3492184,57.4166004 C23.4930474,57.1705007 23.4521204,56.8317615 23.2916283,56.6273354 C23.0861165,56.3305515 22.6671999,56.1897622 22.3149357,56.2742358 C21.9150209,56.4479698 21.8609388,56.8759694 21.8776019,57.2811611 C22.0360477,57.6218712 22.3836345,57.8065868 22.7578238,57.8125 Z M17.5159786,58.4277454 C17.7802159,58.6006852 18.0705134,58.653712 18.3635381,58.5136127 C18.7059558,58.3262111 18.8095902,57.8932591 18.7186829,57.5070068 C18.6244422,57.3367787 18.4583848,57.1171391 18.2650552,57.0653174 C18.0241507,56.9893927 17.7802159,57.0577852 17.5614323,57.102376 C17.3890113,57.2689887 17.1917423,57.483205 17.1875,57.7480379 C17.2323476,57.9893702 17.2517412,58.2795113 17.5159786,58.4277454 Z M20.9616803,62.4976843 C21.8947107,62.5396659 22.809204,62.0072156 23.2341825,61.1955701 C23.5743713,60.5446837 23.4514777,59.6146022 23.1318856,58.9814641 C22.8648151,58.5135222 22.3777032,58.0414845 21.8579799,57.9240724 C20.9558446,57.6373683 19.9902028,57.9213419 19.3757346,58.5681325 C18.7344908,59.1586063 18.6074778,60.2491055 18.8972047,61.0460745 C19.240483,61.9246175 20.0846043,62.3744698 20.9616803,62.4976843 Z M26.4922289,65.4211092 C26.325216,64.9519668 25.927122,64.945108 25.6070918,64.6920179 C25.812981,64.2019561 25.7989855,63.460176 25.5822109,62.9629124 C25.1436855,62.2972651 24.1217036,62.3891731 23.7155233,62.9855465 C23.4119766,63.3099681 23.4042014,63.8586727 23.4726238,64.2979794 C24.0934016,66.147457 24.8883455,68.0000211 26.1603802,69.53125 C26.0067408,68.0737533 26.7960866,66.8251073 26.4922289,65.4211092 Z M20.7638562,67.7526061 C20.6026933,68.1256832 20.7267399,68.5616019 20.9826471,68.8548629 C22.1957646,69.6555521 23.7592081,69.625937 25,70.3125 C24.3875808,69.405269 23.749115,68.527653 23.2942774,67.5081016 C22.6330209,66.3982605 22.4731602,64.7777408 21.2838102,64.1493244 C20.8449261,63.9109595 20.4236233,64.221195 20.0563671,64.3884115 C19.7115761,64.8163848 19.3654827,65.3303138 19.6178085,65.9121407 C19.9469717,66.5824515 20.5131583,67.08374 21.2151125,67.1538048 C21.1073449,67.4405649 20.8205074,67.4647625 20.7638562,67.7526061 Z M27.8201335,70.2436538 C28.1202763,70.3687914 28.4698132,70.3265799 28.706034,70.0903751 C28.8722311,69.8535716 28.9701479,69.5203701 28.858575,69.2308771 C28.6551869,68.8443874 28.1696705,68.6444066 27.7951459,68.8066664 C27.560959,68.9467727 27.326191,69.0865796 27.3447865,69.3976275 C27.3389754,69.7817222 27.5673512,70.048463 27.8201335,70.2436538 Z M25.0013275,71.862025 C25.3137168,71.9344752 25.5637401,71.6899556 25.7237102,71.4652466 C25.7955849,71.1726155 25.8462048,70.7659318 25.5813591,70.5355626 C25.3822355,70.3960392 25.1828321,70.2794396 24.9135118,70.3210419 C24.6889383,70.3623612 24.5077134,70.518016 24.3491416,70.6515962 C24.2562918,70.8539475 24.1396702,71.1462956 24.2934876,71.3296854 C24.4238129,71.6036379 24.6880993,71.8572138 25.0013275,71.862025 Z M29.7357604,74.9137162 C30.3595999,74.6484616 30.9882296,74.1844214 31.2056338,73.5663224 C31.3040184,73.0454419 31.2564843,72.423305 30.8817384,71.9719996 C30.2483184,71.1672284 28.9855318,70.8777468 27.9467819,71.2619622 C27.2057653,71.4753461 26.7798005,72.1655049 26.5922433,72.759377 C26.4625378,73.3787184 26.7768527,73.9048791 27.15123,74.3822752 C27.7879663,75.0112453 28.760021,75.1000777 29.7357604,74.9137162 Z M34.9081088,76.4516155 C35.8058498,77.056927 36.6524393,77.6337988 37.5,78.125 C36.790354,77.0460427 37.070716,75.5622569 36.3872933,74.4818951 C35.9793763,73.9970138 35.4377533,73.8484948 34.8417413,73.865348 C34.6403728,73.4692973 34.6209482,73.019878 34.3415575,72.6491071 C34.0647567,72.0820664 33.5509756,71.7931039 32.9277692,71.8952765 C32.5625864,72.0574888 32.1954611,72.3882333 32.0860358,72.7790174 C31.6693778,74.7111691 33.7283871,75.6163276 34.9081088,76.4516155 Z M33.1928708,79.6683693 C34.8277167,79.8410679 36.0606439,78.7871396 37.5,78.8079879 C36.773441,78.398801 35.8210453,77.9625425 34.9826266,77.4780529 C33.7232341,76.8631835 32.639218,75.9016723 31.1162318,75.78125 C30.5505814,75.8481513 30.1211388,76.1904368 29.8032031,76.6095811 C29.6849917,76.9067472 29.5914812,77.4033724 29.8688369,77.6803125 C30.3660305,78.310118 31.3547718,78.2743336 32.1444945,78.310118 C32.21895,78.883913 32.547119,79.4605086 33.1928708,79.6683693 Z M40.4175077,78.420749 C40.6456656,78.14437 40.6524584,77.7377928 40.5941203,77.3631804 C40.411514,76.7983382 39.8401202,76.5710759 39.2643311,76.5625 C38.9434715,76.6505982 38.6222123,76.7710511 38.4571874,77.0801746 C38.2913633,77.4220425 38.2206383,77.8562966 38.3429086,78.2016729 C38.4983437,78.4846787 38.7824423,78.7080428 39.0685388,78.8370716 C39.6083661,79.0319792 40.0598871,78.7902938 40.4175077,78.420749 Z M40.657954,81.6344656 C41.1113918,82.0086896 41.7998123,82.1328414 42.3775682,81.9439608 C42.8690918,81.7533118 43.3358237,81.364232 43.5736809,80.8587821 C43.8704635,80.2967387 43.7659069,79.6162029 43.4583453,79.0732598 C43.0092192,78.3881258 42.154083,77.9509417 41.3165526,78.1918174 C40.6518459,78.4079335 40.0981632,78.8521918 39.915279,79.5277757 C39.7007764,80.3734936 39.9745637,81.1986963 40.657954,81.6344656 Z M36.7306421,79.8926166 C36.6606428,80.3293971 36.9080266,80.7708615 37.2528525,81.0882007 C37.6020533,81.1248918 37.9162546,81.3793877 38.2698304,81.1650959 C38.6520423,81.1405051 38.9125509,80.7696906 39.0131748,80.4273702 C39.1480029,79.9613149 38.9960727,79.5214118 38.6834624,79.2040726 C38.3688634,78.9503574 37.9878447,78.913276 37.5423949,78.90625 C37.1581944,79.0573081 36.706381,79.4550555 36.7306421,79.8926166 Z M51.2673001,81.25 C52.7240773,79.9132647 53.8019003,78.2033326 54.6875,76.5747428 C54.2752499,76.5373882 53.8911467,76.5855652 53.5856492,76.7185754 C52.841814,78.1551557 51.8542674,79.4196256 50.7846826,80.6809536 L50.78125,80.8764542 C50.8876593,81.0464699 51.1052834,81.1354925 51.2673001,81.25 Z M47.1098912,76.6938497 L46.09375,76.5625 C46.8759,78.6427769 48.2385545,80.6515336 49.8286623,82.2806827 C51.7202058,83.9988882 53.755241,85.4454543 56.25,85.9375 C52.3757253,84.2323606 48.5406785,80.6859183 47.1098912,76.6938497 Z M51.4573549,76.6121535 L49.249965,76.5625 L49.21875,78.1683147 C49.4970559,78.7095729 49.9863092,79.2561134 50.3717317,79.6875 L51.5625,77.9665314 C51.4931699,77.5143678 51.6331444,77.03861 51.4573549,76.6121535 Z M49.3466106,82.03125 C47.4333969,83.4212971 45.1795828,84.5581067 42.96875,85.15625 C45.5779733,84.8110376 47.9408663,83.9449408 50,82.4852993 C49.8013465,82.3338474 49.6330328,82.1103484 49.3466106,82.03125 Z M52.34375,87.0434045 C51.0093626,86.659434 51.2686681,85.3593741 51.2350941,84.334493 C50.8129191,84.0698734 50.3896725,83.8068536 49.966426,83.59375 L48.920632,84.3162544 L48.8899154,85.6217539 C48.7331178,86.2329069 48.1787898,86.7093502 47.65625,87.0322053 C49.0413555,87.6983941 51.0722246,87.608481 52.34375,87.0434045 Z M70.5703198,34.2034353 C70.3179617,33.9538098 70.2611578,33.5628162 70.3552101,33.2389076 C70.4995478,32.9371688 70.8456478,32.8401402 71.1675363,32.8125 C71.466455,32.8772817 71.7684777,33.0799765 71.8482514,33.3785482 C71.9280251,33.7459325 71.8352145,34.0928746 71.4906665,34.2820372 C71.1954727,34.424269 70.8220571,34.4072818 70.5703198,34.2034353 Z M74.9994161,36.6774411 C74.2094686,36.8497812 73.4945916,36.4600121 73.0213056,35.9326381 C72.5753179,35.3785448 72.5616687,34.5238583 72.8520555,33.8775831 C73.0632769,33.4470669 73.5481648,33.0118748 74.0368062,32.8976494 C74.8520048,32.6448172 75.7043974,32.9788096 76.2322803,33.5853397 C76.6223062,34.0338915 76.57897,34.7292636 76.5339276,35.3441436 C76.2981377,35.9890828 75.6238671,36.507439 74.9994161,36.6774411 Z M81.0754984,38.3850135 C81.744663,40.0865443 80.2925759,41.4418571 80.0218989,42.96875 C79.2684196,40.9960887 78.4359789,39.0519674 77.4165067,37.1656057 C77.2468735,36.5975227 77.3710035,35.9703211 77.8190092,35.5279502 C78.08266,35.2252218 78.536019,35.190566 78.9642843,35.15625 C79.2326193,35.1793539 79.4484249,35.3118612 79.6398059,35.5534324 C80.2122762,36.2241237 80.0152072,37.3416027 79.8121158,38.0788874 C80.294918,38.0982539 80.774709,37.9817153 81.0754984,38.3850135 Z M78.1946168,43.3505055 C77.1845787,42.8459169 75.6708763,43.089653 75.1899058,41.8093535 C74.9927756,41.3198272 75.3927941,40.9302602 75.4683268,40.5174149 C74.6019024,40.5591787 73.8093171,40.1329828 73.4448634,39.3449481 C73.4367343,38.8519986 73.3740726,38.2775755 73.8303172,37.969482 C74.3620945,37.3310439 75.4473266,37.3957435 76.0227977,37.8520642 C77.4589351,39.6099085 78.1966491,41.6799543 78.90625,43.75 L78.1946168,43.3505055 Z M81.854123,42.4599262 C81.9972169,42.6692534 82.0951387,42.9503164 81.9817709,43.1875735 C81.8686947,43.4004288 81.7559098,43.6379799 81.4770077,43.7129496 C81.152642,43.8355472 80.893266,43.6279839 80.6338899,43.4674605 C80.4199776,43.1887495 80.4129832,42.7653911 80.6181525,42.4796241 C80.9157064,42.0750816 81.5685179,42.1118315 81.854123,42.4599262 Z M75.9014135,44.9990424 C75.8050631,44.7657016 75.705793,44.4152502 75.8655011,44.1778003 C76.047399,43.8696144 76.4421437,43.6987913 76.8167424,43.7636571 C77.1694433,43.8989654 77.2911952,44.2256425 77.34375,44.5772679 C77.3019982,44.9300674 77.0733849,45.1915852 76.7238957,45.2913787 C76.3746984,45.3673979 76.0926545,45.2309156 75.9014135,44.9990424 Z M81.6174293,45.4605954 C81.9994451,46.1149869 82.1736629,47.0104004 81.8930525,47.7542672 C81.5602433,48.5783646 80.7450102,49.1723355 79.8410059,49.2126159 C78.9376665,49.2796398 78.1852715,48.7893415 77.6696001,48.1372612 C77.31252,47.4297128 77.190501,46.4540686 77.6047671,45.7610476 C77.942231,45.2007538 78.4409462,44.8233727 78.9975123,44.6295645 C79.9766564,44.350243 80.9664398,44.6780991 81.6174293,45.4605954 Z M78.921911,55.5790856 C78.4942544,54.3928312 76.3101899,54.1896122 76.6913384,52.70647 C76.7730909,52.3937007 77.1186317,52.2073356 77.376243,52.0225911 C77.3733362,51.8410876 77.1687732,51.7662175 77.0205286,51.6129119 C76.6644509,51.2022605 76.3614215,50.5063893 76.7309429,49.9826223 C76.9867376,49.6941616 77.2726898,49.3784753 77.676729,49.2695732 C78.3136721,49.1049237 78.8706794,49.3564356 79.2561881,49.7917197 C80.1921638,51.8012217 79.3339438,54.2249405 79.1955095,56.25 L78.921911,55.5790856 Z M83.1388613,52.749235 C83.9664823,54.8969068 81.3214774,55.4177778 80.4696512,57.03125 C80.4600354,56.3869134 80.5266827,55.5159891 80.7027511,54.8390323 C80.9693406,53.1227889 80.5677985,51.136815 81.3417037,49.6643463 C81.6563721,49.4349526 81.9978983,49.176797 82.4495088,49.2244997 C82.769814,49.3602418 83.1703613,49.5212383 83.3875455,49.8828665 C83.6853033,50.2711521 83.614677,50.8891821 83.4624823,51.3409544 C83.5234928,51.844989 82.1504246,52.2890447 83.1388613,52.749235 Z M77.2420573,57.8125 C77.0307254,57.748287 76.7711642,57.6395756 76.6513217,57.4170834 C76.5066339,57.1709337 76.547848,56.8321259 76.7089046,56.6265318 C76.9143905,56.3305327 77.3326699,56.1894331 77.6851821,56.2744871 C78.085339,56.4476931 78.1388296,56.8752162 78.1224609,57.2816166 C77.9637427,57.6221142 77.6164919,57.8068673 77.2420573,57.8125 Z M81.7027008,58.4284973 C81.4387097,58.6005643 81.1480467,58.6536007 80.854959,58.5137774 C80.5130739,58.3260406 80.4091141,57.8942157 80.500041,57.5075923 C80.5939988,57.3367307 80.7603951,57.1167501 80.9537663,57.0655218 C81.1950256,56.989282 81.4387097,57.0576869 81.6572374,57.102587 C81.8299985,57.2686271 82.0273098,57.4834849 82.03125,57.7474616 C81.9869989,57.9897415 81.9672981,58.2796337 81.7027008,58.4284973 Z M79.0382422,62.49779 C78.104884,62.5387421 77.1904058,62.0070465 76.7654343,61.1948285 C76.4255944,60.5443715 76.5488293,59.6140747 76.8680728,58.9810225 C77.1347956,58.5128027 77.6218995,58.0411702 78.1419575,57.9244565 C79.0437346,57.6367675 80.0090172,57.9220676 80.6245049,58.5677468 C81.2653949,59.1584819 81.3924058,60.2484921 81.103027,61.0446705 C80.7597543,61.9237771 79.9149605,62.3742509 79.0382422,62.49779 Z M72.726191,65.4206736 C72.8931848,64.9515597 73.2915443,64.9440155 73.6118489,64.6919696 C73.4056722,64.2019376 73.4202881,63.4605456 73.6367269,62.9636552 C74.0752022,62.2966767 75.0964454,62.3896079 75.5025792,62.9852592 C75.8064022,63.309661 75.8147985,63.8583323 75.746073,64.2979551 C75.1253661,66.1469772 74.330202,67.9994285 73.0583127,69.53125 C73.2116236,68.073842 72.423301,66.825272 72.726191,65.4206736 Z M78.4546091,67.7524291 C78.6164372,68.1258931 78.4917287,68.5622032 78.2357993,68.8544009 C77.0222512,69.6565902 75.4586725,69.6269731 74.21875,70.3125 C74.830571,69.4044839 75.469092,68.5271684 75.9236434,67.5075464 C76.5856083,66.3972673 76.7451572,64.7777191 77.9346101,64.1499816 C78.3735323,63.9105167 78.7955227,64.2207736 79.1621594,64.3876406 C79.5073059,64.8156434 79.8534292,65.3299691 79.600756,65.9118363 C79.2712387,66.5825546 78.7053287,67.0838778 78.0033138,67.1535863 C78.1114163,67.4407274 78.3986042,67.4645655 78.4546091,67.7524291 Z M72.1799631,70.2438071 C71.8797188,70.3686921 71.5300636,70.3264648 71.2943443,70.0910699 C71.1275096,69.8544771 71.030141,69.5202522 71.1411703,69.2303511 C71.3446272,68.8443155 71.8300172,68.6448587 72.2049592,68.8062809 C72.439516,68.9461402 72.6740727,69.086299 72.6551803,69.3980625 C72.661284,69.7814028 72.432831,70.0485431 72.1799631,70.2438071 Z M74.2171935,71.8619673 C73.9050376,71.9346976 73.6555366,71.689339 73.4947036,71.4654881 C73.4233776,71.172303 73.3724705,70.765636 73.6373555,70.5355592 C73.8367884,70.3960416 74.0362214,70.2800127 74.3050223,70.3207643 C74.5299089,70.3617989 74.7114404,70.5177304 74.8703155,70.6513051 C74.9623399,70.8536481 75.0789788,71.1457013 74.9254183,71.3296495 C74.795633,71.6033078 74.530748,71.8563073 74.2171935,71.8619673 Z M70.264155,74.9135368 C69.6400071,74.649219 69.0121748,74.1851877 68.7940546,73.5655475 C68.6960479,73.0452981 68.743946,72.4241049 69.1186557,71.9715657 C69.7523832,71.1677416 71.0150484,70.8776444 72.0525929,71.2618524 C72.7946436,71.4755429 73.2198305,72.1650674 73.4077381,72.7601705 C73.5374311,73.3788789 73.2235149,73.9044084 72.8484367,74.3824166 C72.2117617,75.0119959 71.240169,75.0998947 70.264155,74.9135368 Z M64.3106379,76.4511254 C63.412898,77.0567113 62.5663096,77.6324568 61.71875,78.125 C62.4280713,77.0451262 62.1483572,75.5611774 62.8311316,74.4823568 C63.2396954,73.997888 63.780994,73.8476325 64.3763577,73.8651857 C64.5780497,73.4684831 64.5981218,73.0194718 64.8771884,72.6498011 C65.1536651,72.0828323 65.6677693,71.7935553 66.2909749,71.8950129 C66.6558335,72.0575556 67.0236057,72.3886093 67.1327072,72.7793439 C67.5493646,74.7101975 65.4906818,75.6159434 64.3106379,76.4511254 Z M66.8069006,79.6685543 C65.1727132,79.8402864 63.9393976,78.7874942 62.5,78.8074052 C63.2262271,78.3986082 64.1790031,77.9627448 65.0177989,77.4780373 C66.2765219,76.8635975 67.3605693,75.9022713 68.8832466,75.78125 C69.449619,75.8484495 69.8790739,76.1909803 70.196666,76.6097327 C70.3152336,76.9074638 70.408394,77.4030601 70.1310303,77.6811914 C69.6341752,78.3105645 68.6450525,78.2741647 67.8549542,78.3105645 C67.7804965,78.8833157 67.452671,79.4607336 66.8069006,79.6685543 Z M59.5824344,77.6398065 C59.3543401,77.3625439 59.3475492,76.956594 59.4058711,76.581451 C59.5892253,76.0167867 60.1604595,75.7894392 60.735289,75.78125 C61.056059,75.8697713 61.3776279,75.9898794 61.5422073,76.2983389 C61.708784,76.6403352 61.7794892,77.0751423 61.6568536,77.4210381 C61.5010625,77.7045401 61.2178421,77.9260382 60.9314261,78.0558954 C60.3917495,78.2508762 59.9403546,78.0083201 59.5824344,77.6398065 Z M60.1231812,81.6343174 C59.6693436,82.0096106 58.9815801,82.1330576 58.4034132,81.9431119 C57.9122049,81.7538735 57.4450719,81.3644317 57.2068341,80.8589708 C56.911103,80.2969153 57.0153095,79.6156573 57.323258,79.0737636 C57.7724243,78.388261 58.6272777,77.9507137 59.4645237,78.1919484 C60.1292899,78.4077154 60.6830222,78.8523371 60.8659227,79.528643 C61.0804445,80.3743792 60.8069921,81.1988924 60.1231812,81.6343174 Z M64.0505758,79.8937032 C64.1205925,80.3296657 63.8739426,80.7707021 63.5290306,81.0876239 C63.178549,81.1243118 62.8646672,81.3791762 62.5106052,81.1656834 C62.1290935,81.1410947 61.8685198,80.7699215 61.7678707,80.4276304 C61.6334068,79.9627859 61.7853749,79.5229204 62.0972677,79.2048277 C62.4127409,78.9503536 62.7930591,78.9136657 63.2386202,78.90625 C63.6233145,79.0569049 64.0752408,79.4557892 64.0505758,79.8937032 Z M67.1875,24.1342069 C66.5668353,24.2538701 65.9150133,24.2673533 65.3155921,24.0367909 C63.6490382,23.0177997 61.8744964,22.1629661 60.15625,21.3071213 L61.3975795,21.09375 C63.5598154,21.5090319 65.4352639,23.0360019 67.1875,24.1342069 Z M61.2088505,24.0191627 C60.0427778,23.4495868 58.9006162,22.7809676 57.8125,22.1354893 C58.204248,22.103092 58.4859397,21.8016425 58.933371,21.8917379 C60.4666256,22.4536002 61.974659,23.1151229 63.28125,24.1015445 C62.6032246,24.2629141 61.8691884,24.2774157 61.2088505,24.0191627 Z M60.15625,25.6401186 C58.2637768,26.2680516 56.819691,24.6591244 55.46875,23.5963135 C57.3877389,22.9034914 58.805649,24.6421968 60.15625,25.6401186 Z M57.03125,25.6764619 C55.4735938,26.1036489 54.1777035,25.1381443 53.125,24.3407285 C54.7324215,23.838629 55.8474977,25.005964 57.03125,25.6764619 Z M68.6803141,25.4949136 C70.5854528,27.0779281 72.4642396,28.6062134 74.21875,30.4401559 C73.4916351,30.5389437 72.7075872,30.3909341 72.1763216,29.8522479 C70.3222599,28.2406641 68.3341618,26.4115406 66.40625,25.0498521 C67.212095,24.948999 68.070969,24.9579484 68.6803141,25.4949136 Z M53.90625,26.5081264 C53.5948792,26.5517114 53.1943862,26.6325341 52.9022323,26.4387289 C52.5212348,26.2478857 52.3117975,25.6448891 52.3477249,25 C52.8891425,25.4912836 53.3862775,25.9834135 53.90625,26.5081264 Z M68.75,28.7984567 C68.221237,28.8995515 67.5325845,28.9744502 67.0253833,28.8095255 C65.7373112,28.0716071 64.4144084,26.8916756 63.28125,25.9441884 C65.5744363,25.0929996 67.0058117,27.8055875 68.75,28.7984567 Z M64.0625,28.7709862 L63.5468033,28.8446281 C61.7771646,29.2540925 60.6257167,27.5221582 59.375,26.6245751 L60.7497133,26.5625 C62.1301606,26.7471831 62.9579989,28.0245425 64.0625,28.7709862 Z M57.1898925,26.5749876 C58.4395222,26.4420048 59.2305983,27.4009698 60.15625,28.0327227 C58.6542022,28.4144138 57.324824,27.5471494 56.25,26.6210071 C56.5932032,26.6677033 56.8470453,26.5546849 57.1898925,26.5749876 Z M53.90625,27.4658099 C55.0777205,27.1321411 56.1812327,27.5220733 57.03125,28.1569164 C55.8648135,28.7078159 54.7810774,27.9077931 53.90625,27.4658099 Z M48.4375,51.1600287 C47.7416748,50.791717 47.0475409,50.3149184 46.3233008,50 C43.7382271,51.9595677 42.6736856,54.9853008 43.0383426,58.2579353 C43.3407577,60.6317261 44.9654775,63.1969846 47.3022596,64.0625 C47.3144374,63.4911578 47.67605,63.0361245 47.7139365,62.5202161 C46.0564043,61.5057437 45.2005765,59.7189389 44.9949072,57.890984 C44.7286872,55.0822249 46.1842711,52.7730502 48.4375,51.1600287 Z M51.48991,60.9375 L51.5625,52.5612702 C50.6805314,51.7645568 49.5299797,51.2856562 48.4375,50.78125 L48.5855836,60.9086384 C49.4628339,60.6300908 50.5948751,60.6790883 51.48991,60.9375 Z M55.5018278,45.0127056 C54.2742909,45.8391093 53.162456,46.4469599 51.8277749,47.0759829 L51.7747163,47.0227106 L51.9684658,28.881101 L51.895553,24.21875 C50.7943298,24.3871041 49.6941336,24.2805595 48.5655253,24.2307021 L48.4535887,24.282267 L48.4375,29.2461528 L48.6702733,45.3658054 L48.7205934,45.6673402 C50.5519717,46.3370004 52.2323897,47.4147401 53.8922688,48.4375 C55.5319514,47.5936804 57.2572125,46.6706353 58.7651043,45.548502 C61.2547519,43.6764587 62.8783457,40.9947446 62.4237532,37.7748437 C62.2423269,35.8765056 60.5667013,34.4412269 59.0177318,33.5564285 C59.4103657,33.2374777 59.8529773,33.054781 60.2192529,32.7057791 L60.2226761,32.5961611 C58.4032787,32.8311056 56.9056563,31.9507467 55.1978533,32.0798296 C54.7569532,32.1245647 54.5002179,32.5305952 54.3557616,32.884378 C53.8871341,32.9315035 53.4164528,32.9482364 53.0556541,33.2159639 C52.5774419,33.6165306 52.400808,34.1342281 52.3908809,34.7103203 C52.9450868,34.5296725 53.5773402,34.51533 54.1517426,34.6922214 C54.476256,34.9456063 54.8555396,35.283339 54.8733399,35.7511791 C54.8925094,36.1070108 54.7192987,36.3784946 54.4433939,36.5909009 C54.2725793,36.7821348 53.8049788,36.7172519 53.8830263,37.0198112 C54.2886681,37.4128652 54.8586204,37.670348 55.4415806,37.4647715 C55.9403317,37.2837823 56.3079766,36.823455 56.4544869,36.3323936 C56.9285913,36.1780405 57.3294407,36.5430924 57.7977258,36.6352945 C58.9126415,37.2359738 59.4938902,38.45509 59.5246984,39.6605466 C59.5253831,42.1325863 57.4259731,43.8451543 55.5018278,45.0127056 Z M45.8479049,34.6902869 C46.3220734,34.4252337 47.0650863,34.5802195 47.5591692,34.7280047 C47.5945344,34.2044132 47.3596819,33.7298549 47.0352147,33.3667354 C46.6036217,32.7793666 45.6291899,33.2532392 45.3689294,32.5324865 C45.0746771,32.0836449 44.5510659,32.0178102 43.9986132,32.0332402 C42.6118162,32.3891589 41.2219289,32.7755948 39.6802803,32.744049 C40.0026874,33.1394 40.521835,33.3667354 40.9008952,33.7072242 C40.703468,33.8670105 40.4538514,33.9445034 40.2598578,34.0799445 C38.2478175,35.2498817 37.2658319,37.3511054 37.5473802,39.6724638 C38.1764003,45.0870237 44.0411888,47.1395572 47.9399461,49.4249122 C50.5559419,50.9672269 54.0852529,52.5013122 54.7589087,55.8787687 C55.3676711,58.314652 54.7063759,61.0029016 52.6857518,62.58602 C52.9532227,63.0612642 53.1612937,63.5629108 53.3453302,64.0625 C54.4340981,63.3667783 55.6172877,62.3435975 56.1378087,61.1448577 C57.599113,58.5838198 57.1530993,54.7990113 55.630335,52.4227906 C52.220167,47.9151721 46.6376135,47.0558923 42.5441759,43.6335173 C41.2154052,42.3644852 40.1455217,40.7453634 40.6574589,38.8265567 C40.9259599,37.7032524 41.8310346,36.6457828 42.9967133,36.4222191 C43.8873673,36.0004657 43.5869347,37.1789751 44.2173282,37.3850514 C44.5991352,37.5578675 45.1797427,37.627131 45.5951981,37.4683734 C45.8194067,37.3387614 46.0721135,37.1765749 46.1311699,36.8741468 L45.8300506,36.7853386 C45.5021498,36.5854343 45.0410287,36.2998078 45.078454,35.8338217 C45.0887545,35.3650924 45.4557974,34.9313379 45.8479049,34.6902869 Z M1.61870439,46.1321533 L2.23107587,47.1983978 C1.86421415,47.3797948 1.6225624,47.5572269 1.50576991,47.7293724 C1.37354537,47.9087869 1.30094463,48.1433806 1.28937059,48.4338141 C1.27428928,48.7903303 1.36968736,49.0900154 1.57451264,49.3335302 C1.77583064,49.5767146 2.03607098,49.7039238 2.35593511,49.7154882 C2.79715122,49.7320089 3.16541585,49.4359584 3.46002755,48.8286583 L3.86406646,47.9937032 C4.1888408,47.3137121 4.57218674,46.8217264 5.01305212,46.5177459 C5.45321603,46.2137654 5.98456929,46.0733397 6.60465678,46.0961382 C7.43588267,46.1268667 8.11208668,46.4130048 8.63326881,46.9542222 C9.15795823,47.5003958 9.40416944,48.162875 9.37225317,48.9419901 C9.34138909,49.6804644 9.08325312,50.2821475 8.59854672,50.7467089 C8.11384032,51.2043317 7.4474567,51.4759316 6.60009732,51.5625 L6.34932664,50.2504278 C6.88243353,50.2111086 7.25350399,50.1215665 7.46218728,49.982132 C7.86412182,49.7316785 8.07490949,49.3523638 8.09595318,48.8455094 C8.11208668,48.4447177 7.98336942,48.1070351 7.70980141,47.8318006 C7.43588267,47.5565661 7.08059498,47.4108537 6.64393834,47.3946635 C6.46822351,47.3883856 6.30618707,47.4055671 6.15782903,47.446208 C6.00947099,47.4865184 5.87198553,47.553262 5.74502191,47.6457778 C5.61840903,47.738624 5.49810925,47.8605466 5.3844733,48.0105543 C5.27048663,48.1608925 5.1607087,48.3406375 5.05443805,48.5501196 L4.6574137,49.35732 C4.08642816,50.5015421 3.29728966,51.055976 2.29069967,51.0183089 C1.61204056,50.9941887 1.05438269,50.7285362 0.61807678,50.2246555 C0.177912863,49.7194532 -0.0272631466,49.1029015 0.00289948045,48.3753309 C0.0432332259,47.3940026 0.581951773,46.6462768 1.61870439,46.1321533 Z M2.68978625,39.7109588 L10.15625,41.2127294 L9.8887175,42.5019468 L2.42294238,41.0001763 L2.01424086,42.96875 L0.78125,42.7209409 L1.86446397,37.5 L3.09779914,37.7478091 L2.68978625,39.7109588 Z M6.72770356,37.0936567 C5.55818111,36.6041117 4.73454912,35.7589441 4.25645785,34.5571129 C3.77696764,33.3594452 3.78990793,32.1659408 4.29492899,30.9772937 C4.79400451,29.8039123 5.6456155,28.9740105 6.84941224,28.4882819 C8.05460793,27.9997778 9.25106017,28.0039412 10.4384192,28.5007721 C11.6327731,29.0007255 12.4661977,29.8479749 12.9390429,31.043214 C13.4129373,32.2433104 13.394751,33.4444477 12.8837844,34.6466258 C12.4315737,35.7107182 11.6541071,36.5107825 10.5510347,37.0464716 C9.3332485,37.6348971 8.05915451,37.6508567 6.72770356,37.0936567 Z M7.27469313,35.8453344 C8.19135532,36.228713 9.07549191,36.2384275 9.92675317,35.8737842 C10.7766155,35.5126103 11.3704699,34.9335526 11.7100651,34.1369578 C12.07659,33.272361 12.0863827,32.4171318 11.7373446,31.5709233 C11.380962,30.7219393 10.7657736,30.1147786 9.89177941,29.7487475 C9.00694334,29.3788999 8.14064337,29.3618994 7.29287949,29.6987868 C6.44301718,30.030817 5.83517327,30.6272222 5.46864829,31.4880025 C5.10492121,32.3456603 5.09792646,33.1953383 5.44801377,34.0377304 C5.79180581,34.8773468 6.40034919,35.4796502 7.27469313,35.8453344 Z M12.2151334,18.75 L13.5218966,19.6446999 C12.5271178,19.8857469 11.782697,20.3302707 11.2903848,20.978604 C10.7473007,21.693433 10.5603201,22.4810748 10.7301433,23.3411969 C10.8943641,24.2026489 11.3656672,24.8998565 12.1451032,25.4334847 C12.9143847,25.9604632 13.7508953,26.1589529 14.6535844,26.0286213 C15.5566236,25.8982897 16.2796853,25.4757094 16.8227693,24.7612129 C17.1032402,24.3918292 17.2783157,24.0344147 17.3479957,23.6896344 C17.3942156,23.5021165 17.4225779,23.2943174 17.4323821,23.0655721 C17.4421863,22.8378243 17.4362337,22.5858055 17.4145244,22.3108457 L18.75,23.2254943 C18.6523079,24.0719848 18.3529289,24.8250488 17.8508124,25.4860163 C17.095887,26.4801273 16.0860518,27.0779238 14.8209565,27.2797383 C13.5499087,27.4768981 12.3940605,27.2185622 11.3523615,26.5053956 C10.4188591,25.8660393 9.80889623,25.0022599 9.52422353,23.9133925 C9.17617352,22.5788235 9.43703595,21.3396758 10.3061105,20.1956169 C10.7809152,19.5708896 11.4167893,19.0887957 12.2151334,18.75 Z M18.2367105,17.0463394 L18.4272327,12.1293434 L19.7647054,10.9375 L19.4794426,16.5782986 L25.78125,17.4729516 L24.440307,18.6689036 L19.3801907,17.8855259 L19.3604097,18.2734485 L21.8430976,20.9841133 L20.8429429,21.875 L14.84375,15.3244835 L15.8432106,14.4332544 L18.2367105,17.0463394 Z M25.5686222,11.0506537 L28.933628,9.14891408 L27.1940675,6.13148266 L28.3668792,5.46875 L32.8125,13.1783562 L31.6393404,13.8417777 L29.5647406,10.2435941 L26.1997347,12.1453337 L28.2743346,15.7435173 L27.101175,16.40625 L22.65625,8.69664382 L23.8290617,8.03356671 L25.5686222,11.0506537 Z M33.0090903,8.34100001 C32.6496235,7.12529585 32.7830803,5.94870656 33.4098073,4.8108829 C34.032028,3.67375772 34.9613727,2.91974874 36.1974946,2.54885594 C37.4187111,2.18180479 38.5959041,2.30753116 39.7301136,2.92498734 C40.8670962,3.54174503 41.618614,4.46653234 41.983627,5.70039698 C42.3507199,6.94194489 42.2221161,8.12726518 41.5974689,9.25670708 C40.969702,10.3910383 40.0306514,11.146095 38.7799705,11.521528 C37.6734922,11.8536551 36.5656274,11.7663451 35.4563761,11.2592488 C34.2341198,10.6969725 33.4181267,9.72433933 33.0090903,8.34100001 Z M34.3155804,7.9638209 C34.5980929,8.91899208 35.1489055,9.60839168 35.9676716,10.0327182 C36.7836647,10.4580924 37.6055506,10.5461009 38.4354093,10.2970928 C39.3356361,10.0271303 40.0018802,9.48545923 40.4351815,8.67277793 C40.8657096,7.8527626 40.946477,6.98769532 40.6771369,6.07757609 C40.4050237,5.15628118 39.8708498,4.47526334 39.0753086,4.03626876 C38.2825406,3.59168634 37.4377763,3.50437636 36.5417092,3.7732911 C35.6491085,4.04115812 34.988064,4.58108304 34.5585758,5.39236737 C34.1273543,6.19631766 34.0462403,7.05370167 34.3155804,7.9638209 Z M45.0588628,0.78125 L45.7687315,8.05113276 L48.3202026,7.8141503 L48.4375,9.01556559 L44.5771661,9.375 L43.75,0.902711766 L45.0588628,0.78125 Z M50.78125,8.92930034 L53.7804088,0 L55.8409328,7.00804582 L59.7446793,0.780301321 L60.15625,10.15625 L58.8354184,9.9832571 L58.6862115,4.7304726 L55.434369,9.93325915 L53.7066399,4.07383287 L52.1140982,9.10362652 L50.78125,8.92930034 Z M74.21875,8.12930491 L73.0159783,8.22095281 C72.9916467,7.82481901 72.9235839,7.5401398 72.8117899,7.36657948 C72.6999959,7.17656954 72.5145495,7.01576607 72.2554505,6.88484049 C71.9371665,6.72336561 71.6287466,6.68207369 71.3292045,6.76029333 C71.0313064,6.8348202 70.8156098,7.00972335 70.6814571,7.28466707 C70.496997,7.66367983 70.6249025,8.1084911 71.0635294,8.61910086 L71.6672169,9.32005627 C72.1604256,9.88706474 72.4599677,10.4265453 72.5674872,10.9381622 C72.6743491,11.4501147 72.5980661,11.9728099 72.3389672,12.505912 C71.9924058,13.2202957 71.4735503,13.6929706 70.7824004,13.9239368 C70.0863185,14.1562458 69.3902366,14.09649 68.6951411,13.7443337 C68.0358855,13.4106414 67.5887096,12.9349451 67.3529558,12.3175806 C67.124107,11.7042447 67.1326559,11.009332 67.3786027,10.2325069 L68.6668638,10.5594851 C68.4985153,11.0415598 68.4366998,11.4031158 68.4833902,11.643146 C68.5570427,12.0976928 68.8197585,12.4397778 69.2725242,12.6687298 C69.6302649,12.8493399 69.9860328,12.8775393 70.341143,12.7529921 C70.6962533,12.6281093 70.9648877,12.3780078 71.1467173,12.0030235 C71.2203698,11.852627 71.2667314,11.7039089 71.2864598,11.5572052 C71.3065169,11.4108371 71.2982968,11.2631262 71.2627857,11.1130653 C71.2269459,10.9636759 71.1621712,10.807908 71.0694479,10.6460974 C70.9757383,10.4839511 70.8540801,10.3130764 70.7048023,10.1324663 L70.1215008,9.44896761 C69.2971846,8.47273278 69.0952978,7.55289665 69.5151828,6.68878782 C69.7986135,6.10566543 70.2533519,5.72933832 70.881371,5.55879936 C71.5100477,5.38523904 72.1489174,5.46245156 72.7986377,5.79144404 C73.6742476,6.23491248 74.1470703,7.01408753 74.21875,8.12930491 Z M82.03125,13.096952 L81.1135414,14.3836009 C80.8948026,13.3809626 80.4672677,12.6251222 79.8315996,12.1160796 C79.1313041,11.5554307 78.3514672,11.3497073 77.4904318,11.4989094 C76.6300593,11.6428456 75.9257867,12.0985264 75.378277,12.8656009 C74.8370642,13.6238988 74.6223025,14.4566222 74.7329976,15.3637712 C74.8440241,16.2709201 75.2500165,17.0046436 75.950312,17.5656436 C76.3118938,17.8552712 76.6641958,18.0395798 77.0062237,18.1171649 C77.1921517,18.1680691 77.3992907,18.2010691 77.6256522,18.216867 C77.8530079,18.2316117 78.1038947,18.2316117 78.3783124,18.216867 L77.4407185,19.53125 C76.5995685,19.4125904 75.856188,19.0941755 75.2089201,18.5760053 C74.2352011,17.7955904 73.6601833,16.7701329 73.4848608,15.4989308 C73.3161669,14.2235158 73.5982073,13.0730796 74.3296565,12.0479732 C74.98521,11.1288881 75.8571823,10.5394519 76.945242,10.2796647 C78.2815371,9.96370723 79.509457,10.2543881 80.6313218,11.1520583 C81.2427961,11.6421434 81.7101017,12.2905583 82.03125,13.096952 Z M83.8677457,18.9696756 L86.3464371,21.9328147 L88.9731919,19.628853 L89.84375,20.6695669 L83.1260576,26.5625 L82.2558422,25.521786 L85.3905369,22.7717038 L82.9118455,19.8078628 L79.7771508,22.558296 L78.90625,21.5179331 L85.6235997,15.625 L86.493815,16.665363 L83.8677457,18.9696756 Z M88.4707111,25.5236035 C89.5932933,24.9372956 90.7735065,24.8438615 92.0103029,25.2408697 C93.2464007,25.6354466 94.1660519,26.4044547 94.7696057,27.547894 C95.3658247,28.6777872 95.4709576,29.8583918 95.0850045,31.0904025 C94.7007978,32.3258866 93.9386714,33.240777 92.7989745,33.8357684 C91.6526414,34.4342332 90.4654426,34.5346141 89.2363303,34.1365638 C88.0023282,33.7371242 87.0802321,32.9587379 86.4696927,31.8017524 C85.9293583,30.7781449 85.8004744,29.6729128 86.083041,28.4864035 C86.3973919,27.1776309 87.1937477,26.1901467 88.4707111,25.5236035 Z M89.0966188,26.739984 C88.2160869,27.1998606 87.6467623,27.8716138 87.3896931,28.7562857 C87.1308775,29.6371369 87.2035275,30.4606772 87.6079924,31.227254 C88.0466866,32.0577411 88.7054265,32.6082731 89.5849106,32.8781553 C90.4713803,33.1435222 91.3340991,33.0570348 92.1737654,32.6190406 C93.0232115,32.1754889 93.5865983,31.5217973 93.8632271,30.6576183 C94.1447459,29.7948288 94.0675553,28.9501008 93.6306074,28.1223924 C93.1957553,27.2981574 92.5391111,26.7531829 91.6617226,26.4874687 C90.7913197,26.2175864 89.9359359,26.3019898 89.0966188,26.739984 Z M93.4878739,35.2833655 C94.7221215,34.9951759 95.8902673,35.1970126 96.9898633,35.8888759 C98.0891095,36.5769243 98.7871991,37.548654 99.0858807,38.8047586 C99.3800156,40.045604 99.1859075,41.2143153 98.5025072,42.3101989 C97.8194567,43.4102441 96.8513645,44.1062689 95.5971816,44.3989669 C94.335654,44.6937457 93.1591143,44.4957237 92.0679122,43.8062881 C90.9718137,43.1133845 90.2726749,42.1315976 89.9711953,40.8605807 C89.7039907,39.7362596 89.8571787,38.6348272 90.4286608,37.557324 C91.0623975,36.3695387 92.081902,35.611437 93.4878739,35.2833655 Z M93.7883043,36.6133382 C92.8198624,36.8394509 92.1004384,37.3485512 91.6289832,38.1406392 C91.1571782,38.9292593 91.0214774,39.744236 91.2208316,40.5866098 C91.4376731,41.5000773 91.9392063,42.1967958 92.7236827,42.6757246 C93.5158535,43.1536131 94.3737762,43.284703 95.2967513,43.069341 C96.2309182,42.8512047 96.9408991,42.3580571 97.4256446,41.5909386 C97.9149369,40.8255541 98.0513371,39.9880354 97.8355449,39.0787295 C97.6201024,38.1728915 97.1210174,37.4820687 96.3375902,37.0066078 C95.5608082,36.5290661 94.7112794,36.3979762 93.7883043,36.6133382 Z M100,48.919577 L92.6472295,49.0700428 L92.6997683,51.537748 L91.4853907,51.5625 L91.40625,47.8311421 L99.972733,47.65625 L100,48.919577 Z M7.82550085,70.1489251 C8.9212172,69.5143 10.0961714,69.3683293 11.3500144,69.7127507 C12.6014139,70.052654 13.5533153,70.7811174 14.2057186,71.8984886 C14.8504424,73.0012627 15.0064746,74.1770222 14.6741644,75.4261145 C14.3435994,76.6779873 13.6213831,77.626797 12.5089116,78.2711536 C11.3891097,78.9193331 10.2071742,79.0712122 8.96205785,78.7274859 C7.71170552,78.3816742 6.75631347,77.643827 6.09657983,76.5135965 C5.51224432,75.513697 5.33596628,74.4147459 5.56704759,73.2157006 C5.82465787,71.8936229 6.57794104,70.8714803 7.82550085,70.1489251 Z M8.50164056,71.3354586 C7.64154337,71.8338444 7.1022373,72.5310284 6.88372235,73.4270107 C6.663113,74.3195174 6.77167235,75.1407765 7.20905132,75.8890503 C7.68378029,76.7016207 8.36585412,77.2232922 9.25666906,77.4551077 C10.1541163,77.6820574 11.0124681,77.5590249 11.8324228,77.0842725 C12.6621513,76.6039593 13.1969195,75.9251954 13.4356803,75.0483284 C13.680026,74.1735467 13.5655326,73.3314346 13.0932471,72.5223397 C12.6223578,71.7167203 11.9427275,71.1999144 11.0540069,70.971922 C10.1726167,70.739759 9.32124617,70.8610538 8.50164056,71.3354586 Z M19.391576,80.8183585 L17.3954,78.4429219 L15.8282488,79.8867733 L17.7541535,82.1784165 L16.832557,83.0269125 L14.9069886,80.7349172 L11.8039554,83.59375 L10.9375,82.5621761 L17.4498686,76.5625 L20.3125,79.9695105 L19.391576,80.8183585 Z M28.2400474,88.147786 L25.3983078,86.1764578 L24.2757795,87.960963 L27.0351498,89.8748605 L26.3689472,90.933524 L23.6102358,89.0206644 L22.049503,91.5012583 L24.8912426,93.4722406 L24.2253695,94.53125 L20.3125,91.8181654 L24.99371,84.375 L28.90625,87.0887766 L28.2400474,88.147786 Z M37.5,90.9831462 L36.8711731,92.4673237 C36.3966401,91.5539837 35.7681664,90.9351678 34.9857518,90.6087748 C34.1231892,90.248762 33.2666289,90.2533147 32.4153647,90.6210321 C31.5623351,90.9848972 30.9486905,91.6089662 30.5733716,92.493239 C30.2033488,93.3666554 30.1874604,94.2271141 30.5274718,95.0753156 C30.8664239,95.9235171 31.4677109,96.5279745 32.3302735,96.887287 C32.7758544,97.0732469 33.1847154,97.1593978 33.5572097,97.1457398 C33.7616402,97.14609 33.9830184,97.1243771 34.2213441,97.080251 C34.4593167,97.0357747 34.7184739,96.9706362 34.9984625,96.8837849 L34.3555127,98.399481 C33.4587018,98.5048933 32.6113214,98.3910761 31.8144307,98.0583793 C30.6150344,97.5582837 29.767301,96.7167361 29.2715835,95.5330363 C28.7797498,94.3426825 28.7846928,93.1572316 29.2853534,91.9752828 C29.7348181,90.915206 30.4900458,90.1184849 31.5506836,89.5837188 C32.8514125,88.9302324 34.1916858,88.8913594 35.5718566,89.4663994 C36.325672,89.7808853 36.9682688,90.2865843 37.5,90.9831462 Z M37.5838084,95.2431981 C37.8009989,93.9900661 38.44284,92.994643 39.5096793,92.2562278 C40.5723486,91.5174619 41.7399643,91.2604541 43.0128739,91.4845032 C44.2697983,91.7071498 45.2695692,92.3505458 46.0114917,93.4164443 C46.7572367,94.4823429 47.0199502,95.6516757 46.7996322,96.9230402 C46.5772292,98.2031704 45.9360831,99.2084109 44.8744564,99.9398137 C43.8083121,100.674723 42.6316612,100.927874 41.3438089,100.700669 C40.2046886,100.500112 39.2504408,99.9212306 38.4817605,98.9661294 C37.6359341,97.909347 37.3367326,96.6684868 37.5838084,95.2431981 Z M38.9258715,95.4945959 C38.7555942,96.4763446 38.9432467,97.3409847 39.488829,98.0895681 C40.0305888,98.8367489 40.7276832,99.2858989 41.5811546,99.4363169 C42.5065596,99.5993573 43.3430033,99.41563 44.0904858,98.8837326 C44.8393584,98.3444721 45.294937,97.6074593 45.4575692,96.6719931 C45.6215914,95.7249562 45.4454065,94.8757436 44.9276246,94.1243553 C44.4147077,93.3701619 43.6974581,92.911545 42.7758757,92.7485046 C41.8577684,92.5865161 41.0268847,92.7726977 40.2832247,93.3042445 C39.5402597,93.8291294 39.0881561,94.5591297 38.9258715,95.4945959 Z M49.8365463,101.523776 L49.21875,92.1875 L56.2399595,98.447917 L55.8377958,92.3750068 L57.1985605,92.2900852 L57.8125,101.5625 L50.792693,95.3207657 L51.1980123,101.438854 L49.8365463,101.523776 Z M59.5848638,95.8839986 C59.2131002,94.6724545 59.3355186,93.4951368 59.9500382,92.351347 C60.5617834,91.2086049 61.4839095,90.4458455 62.7164165,90.0620211 C63.9333178,89.6834354 65.1120717,89.7972905 66.2519847,90.4039357 C67.3953656,91.0088346 68.1551919,91.9270097 68.5325042,93.1567147 C68.9118972,94.3941032 68.7950275,95.5811999 68.1812015,96.7162586 C67.5646012,97.8562067 66.6331116,98.6207123 65.386386,99.0080292 C64.2828865,99.35169 63.174185,99.2748553 62.0606284,98.7785727 C60.8333233,98.2278074 60.007606,97.2631822 59.5848638,95.8839986 Z M60.8922784,95.4931892 C61.1835856,96.4434952 61.7401905,97.1262766 62.5617463,97.5415335 C63.3801809,97.9578381 64.2024302,98.0374668 65.0281475,97.7811182 C65.924264,97.5020684 66.5838668,96.955494 67.0083431,96.1403473 C67.4303918,95.3178663 67.502525,94.4538248 67.2250896,93.5482226 C66.9441862,92.6314445 66.4042274,91.9573943 65.6062536,91.5264213 C64.8107075,91.0912573 63.9666101,91.0123271 63.0743083,91.2892814 C62.1854744,91.5662357 61.5310735,92.1110638 61.1100652,92.9248135 C60.6869761,93.731229 60.6144961,94.5875871 60.8922784,95.4931892 Z M72.0883927,96.875 L68.75,87.6190858 L74.9431106,92.0100918 L74.0814785,84.375 L80.46875,91.7764534 L79.2872015,92.4944554 L75.7753768,88.2938473 L76.5064168,94.6735689 L71.3210772,90.9984726 L73.2792692,96.1503724 L72.0883927,96.875 Z M78.3662988,81.25 L84.375,88.1379227 L83.3524512,89.0625 L77.34375,82.1745773 L78.3662988,81.25 Z M85.2177034,75 L86.4555536,75.9734513 C85.4378674,76.1395222 84.6561971,76.5241766 84.1094857,77.1270863 C83.5078215,77.7916982 83.2570106,78.5537865 83.3574054,79.4117103 C83.452164,80.2706186 83.8692428,80.9910251 84.6072326,81.5703041 C85.3360636,82.1433473 86.1582441,82.3980331 87.0741265,82.3337052 C87.9893043,82.2697056 88.7487821,81.9050716 89.3504464,81.2401315 C89.6614941,80.8965025 89.8661586,80.5577966 89.9637353,80.2230291 C90.025029,80.042189 90.0701186,79.8396875 90.0986518,79.6151964 C90.1268328,79.3916899 90.1412756,79.1435681 90.1412756,78.8711592 L91.40625,79.8656156 C91.2399821,80.6910472 90.8782086,81.4114537 90.3219862,82.0255222 C89.4846584,82.949743 88.4239962,83.4666634 87.139295,83.5759552 C85.8521281,83.6780264 84.7146726,83.3409615 83.7290423,82.5654169 C82.8445113,81.8706102 82.3027317,80.9782252 82.1037034,79.888918 C81.8624036,78.5524737 82.2238249,77.3519057 83.1879672,76.2878702 C83.713895,75.7066219 84.3902389,75.2773319 85.2177034,75 Z M89.5116164,68.75 L89.5559693,69.9343366 C89.1557769,69.9433872 88.8666361,69.9996302 88.6871928,70.1030657 C88.4911594,70.2055315 88.3222119,70.3816951 88.1793344,70.6312333 C88.0042925,70.937661 87.9504595,71.2395634 88.0171582,71.536294 C88.0808098,71.8317316 88.2480645,72.0495927 88.5199381,72.1914933 C88.8940605,72.3860813 89.3467317,72.2781205 89.8772745,71.8669644 L90.6062206,71.3019479 C91.1966907,70.8406902 91.7509336,70.5672326 92.2706421,70.4812518 C92.7893349,70.3962407 93.3127676,70.4903024 93.8392476,70.7640833 C94.5448323,71.1312793 94.9995349,71.6588004 95.2043711,72.346 C95.4102231,73.0386947 95.3221943,73.7197529 94.9399461,74.3891745 C94.5773352,75.0243332 94.0796339,75.4455097 93.4475194,75.6523807 C92.8187907,75.8537567 92.1182846,75.8191704 91.345324,75.5482987 L91.7255407,74.2957593 C92.2042819,74.4796806 92.5662157,74.5530552 92.8106649,74.5168527 C93.2718004,74.4619026 93.6269627,74.2155968 93.8751362,73.7798748 C94.0718468,73.4359517 94.1145069,73.0868569 94.0031166,72.7338832 C93.8913877,72.3812328 93.6503242,72.1084216 93.2795876,71.9151265 C93.1316315,71.8381964 92.9833368,71.7861554 92.836735,71.7615894 C92.6897946,71.736377 92.5411614,71.7383164 92.3888038,71.7680541 C92.2367849,71.7977919 92.0776559,71.8550046 91.9110783,71.9396924 C91.7441622,72.02535 91.5674274,72.1378361 91.3798584,72.2777973 L90.6695337,72.8234196 C89.655171,73.5936908 88.7207115,73.7566018 87.8678478,73.3127988 C87.2926135,73.0128358 86.9313568,72.5522246 86.7854322,71.9293489 C86.6351061,71.3055035 86.7390478,70.6810116 87.0962416,70.0552268 C87.5773528,69.2119042 88.3824777,68.7768286 89.5116164,68.75 Z M5.46875,60.5470473 C5.46875,61.1940504 4.94431785,61.71875 4.296875,61.71875 C3.64943215,61.71875 3.125,61.1940504 3.125,60.5470473 C3.125,59.8993551 3.64943215,59.375 4.296875,59.375 C4.94431785,59.375 5.46875,59.8993551 5.46875,60.5470473 Z M95.3125,60.5470473 C95.3125,61.1940504 94.7874559,61.71875 94.1407973,61.71875 C93.4937941,61.71875 92.96875,61.1940504 92.96875,60.5470473 C92.96875,59.8993551 93.4937941,59.375 94.1407973,59.375 C94.7874559,59.375 95.3125,59.8993551 95.3125,60.5470473 Z" id="Combined-Shape"></path>
                    </g>
                </g>
            </g>
        </g>
    </g>
</svg>